<svg xmlns="http://www.w3.org/2000/svg" width="960" height="540"><path fill="#302745" fill-rule="evenodd" d="M0 1h960v540H0Z"/><path fill="#e21c54" fill-rule="evenodd" d="M479.75 43.154c-3.938 4.075-8.471 7.928-11.581 12.76-1.294 2.012-1.738 3.332-1.904 5.766-.169 2.434 1.118 5.15 3.35 5.69a8.04 8.04 0 0 0 1.873.239c1.459 0 2.818-.481 3.922-1.635 2.146-2.248 3.097-3.79 4.566-6.585 1.353 2.994 3.343 5.653 5.783 7.722a4.667 4.667 0 0 0 3.057 1.105 5.553 5.553 0 0 0 3.16-1.018c1.062-.743 1.609-2.133 1.662-3.485.053-1.35-.325-2.676-.763-3.943-2.424-6.914-7.139-12.889-13.124-16.616Z"/><path fill="#191919" fill-opacity=".14" fill-rule="evenodd" d="M479.79 45.442c-3.163 3.07-6.794 5.969-9.29 9.616-1.038 1.512-1.396 2.51-1.529 4.344-.136 1.83.899 3.873 2.686 4.284.229.05.454.076.68.076 1.475 0 2.878-1.028 3.972-2.102 1.72-1.698 2.48-2.852 3.657-4.957a16.867 16.867 0 0 0 4.64 5.813c.994.785 2.287 1.465 3.498 1.465.523 0 1.03-.13 1.492-.43.845-.558 1.286-1.61 1.326-2.62.046-1.022-.249-2.02-.607-2.975-1.94-5.21-5.726-9.705-10.524-12.514Z"/><path fill="#191919" fill-opacity=".14" fill-rule="evenodd" d="M481.807 48.51c.723 1.551.809 2.967 1.333 4.595a11.728 11.728 0 0 0 1.94 3.65c.271.349.696.707 1.097.707a.63.63 0 0 0 .342-.103c.457-.291.334-.981.139-1.482a20.884 20.884 0 0 0-4.851-7.368Zm-3.27 0a20.884 20.884 0 0 0-4.85 7.367c-.193.5-.316 1.19.138 1.482.11.07.226.103.345.103.401 0 .826-.358 1.094-.706a11.738 11.738 0 0 0 1.944-3.65c.52-1.629.606-3.045 1.33-4.597Zm1.509-.379c-.02 1.008-.418 2.142-.547 3.147a20.98 20.98 0 0 0-.163 2.739c.004.64.183 1.462.82 1.552a.81.81 0 0 0 .089.006c.358 0 .686-.275.836-.603.165-.362.159-.773.139-1.16a18.498 18.498 0 0 0-1.174-5.68Z"/><path fill="#ffba31" fill-rule="evenodd" d="M477.801 1.003c-.59 0-1.164.156-1.658.51-1.243.899-1.509 2.62-1.565 4.155a34.678 34.678 0 0 0 .408 6.758c1.11 6.943 2.881 15.266 4.586 22.09a55.626 55.626 0 0 0 3.097-27.014c-.236-1.774-.604-3.624-1.75-4.997-.76-.905-1.967-1.502-3.118-1.502ZM460.817 8.62c-.825 0-1.585.278-2.016.97-.597.96-.232 2.203.226 3.234a22.45 22.45 0 0 0 3.554 5.6c4.646 5.359 9.64 10.94 14.156 16.414a48.05 48.05 0 0 0-9.139-21.328c-1.276-1.674-2.709-3.306-4.566-4.31-.656-.352-1.462-.58-2.215-.58Zm38.263 0c-.754 0-1.56.228-2.216.58-1.857 1.004-3.293 2.636-4.57 4.31a48.006 48.006 0 0 0-9.134 21.328c4.512-5.475 9.513-11.055 14.155-16.414a22.534 22.534 0 0 0 3.551-5.6c.458-1.031.823-2.275.23-3.233-.429-.693-1.191-.972-2.017-.972Z"/><path fill="#191919" fill-opacity=".14" fill-rule="evenodd" d="M477.367 1.026a2.742 2.742 0 0 0-1.224.48c-1.243.903-1.509 2.627-1.565 4.156a34.67 34.67 0 0 0 .408 6.76c1.09 6.841 2.835 15.025 4.516 21.793.647-6.92.909-13.88.232-20.794-.408-4.185-1.17-8.36-2.367-12.395ZM458.98 9.375c-.06.073-.132.13-.182.216-.587.958-.226 2.202.229 3.233a22.45 22.45 0 0 0 3.554 5.6c4.64 5.359 9.636 10.933 14.146 16.41-.123-.736-.425-1.435-.746-2.112a77.5 77.5 0 0 0-17-23.347Zm40.073-.749c-.743 0-1.536.222-2.186.574-1.856 1.004-3.289 2.636-4.569 4.31a47.996 47.996 0 0 0-9.122 21.255 119.938 119.938 0 0 1 17.273-25.79c-.398-.243-.886-.35-1.396-.35Z"/><path fill="#88ad25" fill-rule="evenodd" d="M905.189 505.017c-2.661-3.298-4.162-7.516-4.166-11.752-.005-4.24 1.474-8.463 4.135-11.765 3.15 6.853 3.202 16.668.03 23.517Z"/><path fill="#ff8831" fill-rule="evenodd" d="M925.988 479.554c-3.69-1.993-7.006-4.772-9.287-8.293-2.282-3.52-3.477-7.813-2.936-11.974 2.325 1.592 4.41 2.997 6.43 4.951 1.618 1.566 3.163 3.298 3.978 5.392 1.087 2.796.559 7.21 1.815 9.924Z"/><path fill="#ffba31" fill-rule="evenodd" d="M921.8 508.271c-4.589 0-8.61-2.966-10.823-7.28.882-.699 2.06-.834 3.176-.93 1.527-.13 3.063-.231 4.598-.231 1.575 0 3.141.11 4.69.406 3.154.615 6.094 2.002 9.003 3.38-2.792 2.282-4.816 3.643-8.336 4.402-.78.17-1.553.253-2.308.253Z"/><path fill="#e21c54" fill-rule="evenodd" d="M931.04 487.598c-2.666 0-5.396-.741-8.018-1.91 2.15-2.6 5.265-4.188 8.345-5.558 2.312-1.02 4.676-1.972 7.171-2.343a16.158 16.158 0 0 1 6.722.41c-2.246 3.15-4.226 5.405-7.498 7.49-2.111 1.344-4.393 1.911-6.722 1.911Z"/><path fill="#3faf72" fill-rule="evenodd" d="M929.6 464.142c.528-9.252 6.95-17.903 15.66-21.096-2.486 3.804-2.132 8.24-4.663 12-2.551 3.787-7.14 6.653-10.997 9.096Z"/><path fill="#ffba31" fill-rule="evenodd" d="M924.653 445.166c-.31-3.607-.152-7.342 1.24-10.688 1.395-3.341 4.183-6.242 7.707-7.075-.606 2.5-.876 5.374-1.483 7.87-.27 1.103-.532 2.211-.973 3.254-1.295 3.075-3.869 4.576-6.49 6.64Z"/><path fill="#fff" fill-opacity=".14" fill-rule="evenodd" d="M905.184 505.017c-.14-.179-.257-.362-.392-.541-.881-3.56-.947-7.385-.873-11.093.079-3.774.27-7.578.816-11.312.148-.187.275-.388.423-.571 3.15 6.853 3.202 16.677.026 23.517Zm20.372-26.707a109.655 109.655 0 0 1-11.87-17.967c.022-.354.035-.703.079-1.056 2.325 1.592 4.41 2.997 6.43 4.951 1.618 1.566 3.163 3.298 3.978 5.392.93 2.4.677 5.994 1.383 8.68Zm1.165 25.63a47.98 47.98 0 0 1-13.51-1.929c-.785-.227-1.58-.519-2.185-1.047.872-.672 2.024-.807 3.123-.903 1.535-.13 3.08-.235 4.624-.235 1.566 0 3.123.109 4.659.41 3.145.61 6.085 1.993 8.982 3.372a48.68 48.68 0 0 1-5.693.331Zm-.659-18.71a20.56 20.56 0 0 1-2.486-.149c2.107-2.242 4.96-3.695 7.79-4.955 2.313-1.021 4.677-1.972 7.172-2.347.786-.123 1.58-.18 2.378-.18 1.466 0 2.931.201 4.345.594-.153.205-.292.393-.436.593a101.29 101.29 0 0 0-6.993 3.036c-1.65.799-3.276 1.645-5 2.256a20.22 20.22 0 0 1-6.77 1.151Zm3.534-21.088c.523-9.07 6.7-17.54 15.137-20.887a20.901 20.901 0 0 0-3.311 3.573c-2.273 3.089-3.883 6.618-5.867 9.911-1.431 2.378-3.08 4.616-4.886 6.723-.362.23-.724.462-1.073.68Zm-4.969-19.277c-.27-3.516-.087-7.132 1.265-10.378 1.374-3.293 4.11-6.16 7.56-7.032-1.867 1.972-3.328 4.437-4.458 6.928-1.562 3.441-2.7 7.093-4.367 10.482Z"/><path fill="#191919" fill-opacity=".14" fill-rule="evenodd" d="M905.184 505.017a18.9 18.9 0 0 1-4.161-11.752c0-.537.022-1.078.065-1.606.772 2.16 1.885 4.197 3.333 5.977 1.016-2.072 2.046-4.144 3.062-6.217.28 4.764-.475 9.667-2.299 13.598Zm20.804-25.463c-3.69-1.993-7.006-4.768-9.292-8.284a19.428 19.428 0 0 1-1.867-3.708 136.316 136.316 0 0 0 7.783 3.9c-.018-1.61-.1-3.215-.21-4.825.724.92 1.344 1.907 1.771 2.993 1.087 2.792.554 7.21 1.815 9.924Zm-5.492 28.626c-4.04-.498-7.525-3.281-9.523-7.19.881-.693 2.06-.833 3.176-.929 1.527-.13 3.071-.235 4.606-.235.82 0 1.64.03 2.456.1a56.71 56.71 0 0 0-4.563 2.39c-.17.1-.357.219-.423.41-.087.236.044.485.175.699a19.694 19.694 0 0 0 4.096 4.754Zm10.548-20.59c-2.67 0-5.4-.747-8.022-1.916 2.15-2.6 5.265-4.187 8.345-5.553 1.239-.55 2.49-1.064 3.773-1.492a69.946 69.946 0 0 1-3.747 4.956c2.063.519 4.188.772 6.308.772.672 0 1.348-.026 2.02-.074a23.47 23.47 0 0 1-1.959 1.391c-2.111 1.348-4.393 1.915-6.718 1.915Zm-1.444-23.448c.292-5.147 2.413-10.103 5.732-14.042a33.996 33.996 0 0 0-.392 6.207 54.364 54.364 0 0 0 6.766-3.332 12.21 12.21 0 0 1-1.109 2.072c-2.551 3.786-7.14 6.652-10.997 9.095Zm-4.947-18.967c-.31-3.612-.152-7.346 1.24-10.688.274-.663.623-1.295.998-1.91-.087 1.945.07 3.908.532 5.801 1.662-1.522 3.329-3.049 5-4.571-.1.497-.192.994-.306 1.47-.27 1.103-.532 2.211-.973 3.254-1.295 3.071-3.869 4.576-6.49 6.644Z"/><path fill="#88ad25" fill-rule="evenodd" d="M871.547 545.137c-1.902 0-3.765-.668-5.562-1.34-2.91-1.094-5.907-2.298-8.01-4.584-2.905-3.145-3.559-7.687-4.078-11.931 6.64 1.344 15.115 4.755 18.178 17.837a7.203 7.203 0 0 1-.528.018Z"/><path fill="#ffba31" fill-rule="evenodd" d="M875.625 522.108c-3.415-4.493-4.091-10.718-2.503-16.145 1.583-5.426 5.226-10.08 9.575-13.684-.454 5.252-1.257 12.306-1.71 17.563-.127 1.44-.249 2.887-.628 4.275-.838 3.066-2.78 5.5-4.734 7.991Z"/><path fill="#ff8831" fill-rule="evenodd" d="M905.97 532.041c-3.852 0-7.709-1.108-10.928-3.223-1.505-.99-2.91-2.23-3.712-3.848-1.165-2.338-.934-5.13-1.806-7.59 6.696.994 15.255 5.675 21.994 13.863a19.42 19.42 0 0 1-5.548.798Z"/><path fill="#fff" fill-opacity=".14" fill-rule="evenodd" d="M871.926 544.605c-.392-.27-.79-.533-1.178-.82-6.338-4.594-11.682-10.365-16.825-16.29-.013-.073-.017-.143-.026-.217 6.548 1.334 14.87 4.685 18.03 17.327Zm3.699-22.497c-.209-.27-.4-.545-.588-.824a73.29 73.29 0 0 1 6.006-27.544 35.23 35.23 0 0 1 1.654-1.461c-.454 5.252-1.257 12.306-1.71 17.563-.127 1.44-.249 2.887-.628 4.275-.838 3.066-2.78 5.5-4.734 7.991Zm34.925 9.388c-2.517-.707-4.977-1.601-7.333-2.722-5.248-2.5-9.981-6.151-13.497-10.753-.065-.214-.122-.436-.196-.646 6.696 1 15.255 5.68 21.994 13.864-.318.096-.65.183-.968.257Z"/><path fill="#191919" fill-opacity=".14" fill-rule="evenodd" d="M860.458 541.233c-.903-.576-1.754-1.23-2.482-2.025-2.897-3.14-3.556-7.69-4.08-11.93 5.589 1.138 12.46 3.756 16.329 12.34a29.237 29.237 0 0 0-11.861-6.176 25.532 25.532 0 0 0 2.094 7.79Zm15.163-19.116c-3.119-4.11-3.948-9.654-2.862-14.71.489 2.622 1.519 5.14 3.058 7.316 1.776-2.22 3.551-4.454 5.331-6.679-.061.615-.113 1.226-.166 1.802-.126 1.44-.248 2.888-.628 4.275-.837 3.067-2.779 5.5-4.733 7.996Zm21.192 7.73a20.16 20.16 0 0 1-1.77-1.03c-1.506-.994-2.91-2.237-3.713-3.847-1.165-2.334-.93-5.126-1.806-7.586 4.419.654 9.645 2.927 14.635 6.74a32.487 32.487 0 0 0-8.724-1.226c-.057 2.382.44 4.755 1.378 6.949Z"/><path fill="#ffba31" fill-rule="evenodd" d="M743.963 528.434c-2.618-8.817.632-19.072 7.847-24.774 1.047 4.698 1.056 9.052.332 13.811-.384 2.465-1.012 4.947-2.32 7.08-1.305 2.133-3.416 3.346-5.86 3.883Z"/><path fill="#ff8831" fill-rule="evenodd" d="M753.909 548.867a16.6 16.6 0 0 1-1.047-.03c-4.284-.24-8.472-1.933-11.726-4.721-3.254-2.796-5.562-6.674-6.452-10.87 2.635 1.147 5.047.453 7.878.924 3.717.633 6.897 3.032 9.532 5.723 2.644 2.688 3.075 5.907 5.92 8.372-1.318.431-2.714.602-4.105.602Z"/><path fill="#e21c54" fill-rule="evenodd" d="M788.118 544.714c-4.76-.34-9.161-3.076-12.162-6.784-3.01-3.712-4.742-8.314-5.689-12.995 3.87 1.435 7.076 2.665 10.086 5.488 3.69 3.472 4.798 10.173 7.765 14.29Z"/><path fill="#88ad25" fill-rule="evenodd" d="M790.552 524.708a10.63 10.63 0 0 1-.663-5.16c.174-1.453.654-2.858 1.265-4.188 2.43-5.265 7.071-9.466 12.55-11.364-.545 3.29-.336 4.764-.885 8.057-.35 2.06-.703 4.149-1.627 6.02-2.016 4.044-6.47 4.89-10.64 6.635Z"/><path fill="#3faf72" fill-rule="evenodd" d="M834.72 547.972c-5.108-.292-10.081-2.56-13.654-6.225-3.572-3.664-5.71-8.69-5.876-13.802 2.12 1.09 3.473 1.296 5.601 2.395 2.177 1.117 4.393 2.264 6.12 4 1.388 1.379 2.409 3.076 3.39 4.764 1.68 2.888 2.853 5.902 4.42 8.868Z"/><path fill="#e21c54" fill-rule="evenodd" d="M834.053 528.185c-.685-4.301.484-8.75 2.613-12.546 2.124-3.795 5.16-7.001 8.384-9.929 1.387-1.26 3.001-2.543 4.864-2.543h.118c-.65 4.253-1.287 9.423-2.892 13.414-1.627 3.979-4.323 7.674-8.145 9.645-1.492.768-3.293 1.61-4.942 1.959Z"/><path fill="#fff" fill-opacity=".14" fill-rule="evenodd" d="M743.963 528.425c-.066-.205-.105-.415-.162-.62a182.612 182.612 0 0 1 8.337-22.496c.706 4.083.65 7.97.004 12.162-.384 2.465-1.012 4.947-2.32 7.08-1.305 2.129-3.425 3.342-5.86 3.874Zm12.817 20.162c-.228-.1-.455-.2-.668-.305a82.317 82.317 0 0 1-21.332-14.68c-.03-.121-.065-.243-.092-.361 2.64 1.147 5.043.445 7.879.925 3.72.632 6.892 3.036 9.536 5.723 2.635 2.692 3.066 5.91 5.915 8.376-.406.13-.816.24-1.239.322Zm31.333-3.869c-.24-.013-.47-.07-.71-.096a72.467 72.467 0 0 1-5.794-6.177c-3.555-4.297-6.657-9.047-10.395-13.152 3.45 1.287 6.378 2.543 9.13 5.13 3.7 3.472 4.807 10.173 7.77 14.295Zm2.714-20.123a21.6 21.6 0 0 1 .89-1.837 165.057 165.057 0 0 1 11.494-18.561c.166-.066.323-.144.493-.201-.545 3.285-.336 4.764-.885 8.053-.35 2.059-.703 4.148-1.627 6.02-1.98 3.96-6.282 4.86-10.365 6.526Zm43.457 22.509a90.334 90.334 0 0 1-19.072-19.155c2.103 1.087 3.46 1.292 5.57 2.387 2.182 1.116 4.394 2.264 6.125 3.995 1.383 1.379 2.404 3.076 3.39 4.768 1.522 2.613 2.635 5.318 3.987 8.005Zm-.1-18.967a161.238 161.238 0 0 1 15.146-24.922c.183-.026.366-.04.554-.04h.148c-.65 4.254-1.287 9.415-2.901 13.398-1.627 3.978-4.323 7.677-8.144 9.645-1.453.75-3.194 1.557-4.803 1.919Z"/><path fill="#191919" fill-opacity=".14" fill-rule="evenodd" d="M743.963 528.434c-1.414-4.738-1.104-9.881.584-14.505a24.886 24.886 0 0 0 2.06 6.19c2.01-3.093 4.017-6.186 6.032-9.283a40.352 40.352 0 0 1-.497 6.635c-.375 2.465-1.012 4.947-2.32 7.08-1.305 2.129-3.416 3.346-5.86 3.883Zm2.286 18.832a19.775 19.775 0 0 1-5.113-3.15c-3.254-2.796-5.562-6.674-6.452-10.87 2.635 1.147 5.039.444 7.878.924 3.717.628 6.897 3.032 9.536 5.723.376.384.707.786 1.008 1.191a86.334 86.334 0 0 0-11.988-1.858 45.185 45.185 0 0 0 5.13 8.04Zm29.31-9.864c-2.757-3.611-4.384-8-5.292-12.467 3.865 1.43 7.076 2.665 10.082 5.488 1.308 1.234 2.29 2.87 3.15 4.65-2.461-1.57-5-3.01-7.617-4.288-.214-.105-.48-.196-.711-.196-.18 0-.34.052-.45.196-.122.166-.122.397-.113.606a29.82 29.82 0 0 0 .95 6.011Zm14.993-12.694a10.63 10.63 0 0 1-.663-5.16c.174-1.453.654-2.858 1.265-4.188a21.92 21.92 0 0 1 2.434-4c.057 2.25.654 4.48 1.776 6.43a80.989 80.989 0 0 0 7.55-6.382c-.034.213-.06.418-.095.645-.35 2.06-.703 4.149-1.627 6.02-2.016 4.044-6.47 4.89-10.64 6.635Zm30.427 16.943c-3.52-3.664-5.632-8.641-5.793-13.71 2.124 1.095 3.477 1.3 5.601 2.395 2.177 1.116 4.389 2.264 6.116 3.995 1.239 1.24 2.181 2.731 3.075 4.245-3.376-1.98-7.084-3.39-10.945-4.07.328 2.452.99 4.86 1.946 7.145Zm13.074-13.475c-.685-4.301.484-8.746 2.613-12.541.877-1.566 1.924-3.032 3.062-4.424a82.143 82.143 0 0 0-.868 8.149c-.022.336-.009.742.262.938a.576.576 0 0 0 .357.118c.267 0 .559-.14.799-.28a203.548 203.548 0 0 0 7.176-4.436c-.105.297-.2.589-.314.873-1.627 3.978-4.323 7.677-8.145 9.645-1.492.772-3.293 1.614-4.942 1.958Z"/><path fill="#ff8831" fill-rule="evenodd" d="M868.82 403.162c-2.608 0-5.095-.668-7.922-1.48-2.997-.859-5.61-2.987-7.058-5.744-1.448-2.762-1.705-6.125-.707-9.074.842-2.486 2.853-4.829 5.475-5.065-1.719-3.9-.624-8.628 2.73-11.267 1.868-1.466 4.228-2.19 6.601-2.19 1.893 0 3.795.462 5.453 1.383.502-2.875 3.743-4.777 6.727-4.777.392 0 .776.03 1.151.096 3.25.576 5.833 3.254 7.08 6.312 1.244 3.054 1.348 6.448 1.165 9.737-.153 2.783-.497 5.588-1.562 8.153-.994 2.408-2.578 4.528-4.362 6.43-2.984 3.176-6.648 5.832-10.858 6.962a14.925 14.925 0 0 1-3.913.524Z"/><path fill="#ffba31" fill-rule="evenodd" d="M872.825 399.45a13.615 13.615 0 0 1-9.667-4.01c-5.344-5.34-5.344-13.998 0-19.333a13.628 13.628 0 0 1 9.667-4.005 13.63 13.63 0 0 1 9.671 4.005c5.335 5.335 5.335 13.994 0 19.333a13.617 13.617 0 0 1-9.671 4.01Z"/><path fill="none" d="M871.9 380.779c-4.463-6.884-5.017-16.132-1.413-23.5"/><path fill="none" stroke="#88ad25" stroke-linecap="round" stroke-linejoin="round" d="M871.9 380.779c-4.463-6.884-5.017-16.132-1.413-23.5"/><path fill="none" d="M868.899 384.029a41.558 41.558 0 0 0-15.652-5.79c-1.16-.178-2.382-.3-3.49.114a13.97 13.97 0 0 0-.445-.436"/><path fill="none" stroke="#88ad25" stroke-linecap="round" stroke-linejoin="round" d="M868.899 384.029a41.558 41.558 0 0 0-15.652-5.79c-1.16-.178-2.382-.3-3.49.114a13.97 13.97 0 0 0-.445-.436"/><path fill="#ffba31" fill-rule="evenodd" d="M871.368 357.279a2.354 2.354 0 1 1 2.351-2.356 2.359 2.359 0 0 1-2.351 2.356Zm-24.412 22.994a2.353 2.353 0 0 1-2.35-2.356 2.347 2.347 0 0 1 2.35-2.351 2.359 2.359 0 0 1 2.356 2.351 2.357 2.357 0 0 1-2.356 2.356Z"/><path fill="#e21c54" fill-rule="evenodd" d="M891.975 407.925a4.25 4.25 0 0 1-.23-.009c-10.056-.767-20.115-1.53-30.17-2.298-2.78-.21-5.62-.445-8.145-1.623 4.454-3.08 7.756-6.627 11.962-10.042-.86-2.112-1.81-4.315-1.942-6.596-.135-2.277.327-4.65 1.632-6.53 1.27-1.841 3.263-3.106 5.387-3.804a14.022 14.022 0 0 1 4.367-.694c1.85 0 3.7.358 5.405 1.073.222-.21 5.143-11.582 9.74-16.428a54.028 54.028 0 0 0 4.132 25.934c1.845 4.297 4.31 8.781 3.407 13.37-.602 3.036-2.513 7.647-5.545 7.647Z"/><path fill="#e21c54" fill-rule="evenodd" d="M896.25 404.139a95.362 95.362 0 0 1-15.992-26.759c.367-.567 5.2-11.638 9.724-16.406a54.028 54.028 0 0 0 4.13 25.934c1.846 4.297 4.32 8.781 3.408 13.37a17.106 17.106 0 0 1-1.27 3.86Zm-4.27 3.786c-.079 0-.157-.004-.236-.009-10.055-.763-20.114-1.53-30.17-2.298-2.778-.219-5.618-.45-8.144-1.623 4.362-3.019 7.625-6.478 11.713-9.837a150.923 150.923 0 0 1 28.45 13.292 3.07 3.07 0 0 1-1.613.475Z"/><path fill="#ffba31" fill-rule="evenodd" d="M895.491 390.027a14.654 14.654 0 0 1-4.99-2.988c-.873-.816-1.658-1.745-2.216-2.801-1.414-2.718-1.178-6.072.009-8.882.497-1.178 1.142-2.277 1.88-3.32.602 5.113 1.91 10.143 3.939 14.876.44 1.02.916 2.063 1.378 3.115Zm-14.504 17.065c-6.282-.475-12.56-.955-18.841-1.44 1.457-2.15 3.983-3.55 6.596-3.834.388-.04.776-.061 1.164-.061 2.705 0 5.388.999 7.665 2.495 1.239.82 2.364 1.793 3.416 2.84Zm5.457-8.144c-2.657-1.23-5.326-2.465-7.739-4.114-2.42-1.64-4.593-3.739-5.932-6.338-.424-.834-.768-1.741-.76-2.67.018-.934.445-1.907 1.257-2.373a2.39 2.39 0 0 1 1.173-.293c.458 0 .93.114 1.348.301.803.363 1.449.965 2.072 1.584a32.806 32.806 0 0 1 3.69 4.436c2.208 3.194 2.84 6.164 4.891 9.467Z"/><path fill="#e21c54" fill-rule="evenodd" d="M891.971 407.92c-.079 0-.153-.004-.231-.008-6.033-.458-12.07-.92-18.1-1.383a109.431 109.431 0 0 0 8.01-1.718 44.465 44.465 0 0 0-10.945-8.315l18.998 4.223a88.78 88.78 0 0 0-5.96-15.207c2.74 4.113 5.707 8.419 10.195 10.478-.833-4.62-1.27-9.244-1.583-13.88a57.12 57.12 0 0 0 1.75 4.793c1.849 4.297 4.318 8.777 3.41 13.366-.602 3.04-2.512 7.652-5.544 7.652Z"/><path fill="#3faf72" fill-rule="evenodd" d="M891.705 409.378c-1.483 0-2.897-.34-3.992-1.379a41.826 41.826 0 0 1 10.313-10.316c.467 1.474 1.056 2.412 1.234 3.943.227 1.92.157 4.053-1.086 5.536-.999 1.19-2.574 1.723-4.105 1.985-.78.135-1.583.23-2.364.23Z"/><path fill="none" d="M898.091 407.899c8.974 9.828 18.051 19.814 24.11 31.666 6.064 11.848 8.826 26 4.52 38.593-2.6 7.6-7.59 14.165-13.187 19.918-15.862 16.311-37.394 26.999-59.977 29.773-16.52 2.033-33.237-.044-49.822-1.405-13.21-1.077-26.48-1.692-39.697-.794-7.891.528-15.866 1.636-23.107 4.825-7.242 3.185-13.733 8.677-16.725 16.005-2.997 7.32-1.88 16.525 3.804 22.021 5.688 5.501 15.979 5.902 21.248 0 2.278-2.556 3.451-6.107 2.29-9.326-1.168-3.22-4.41-5.588-7.834-5.667-3.429-.083-6.8 2.172-7.987 5.374-.515 1.396-.615 3.045.17 4.297.423.685 1.082 1.2 1.788 1.58 1.257.676 2.762.937 4.131.562 1.375-.38 2.574-1.457 2.936-2.83"/><path fill="none" stroke="#3faf72" stroke-linecap="round" stroke-linejoin="round" d="M898.091 407.899c8.974 9.828 18.051 19.814 24.11 31.666 6.064 11.848 8.826 26 4.52 38.593-2.6 7.6-7.59 14.165-13.187 19.918-15.862 16.311-37.394 26.999-59.977 29.773-16.52 2.033-33.237-.044-49.822-1.405-13.21-1.077-26.48-1.692-39.697-.794-7.891.528-15.866 1.636-23.107 4.825-7.242 3.185-13.733 8.677-16.725 16.005-2.997 7.32-1.88 16.525 3.804 22.021 5.688 5.501 15.979 5.902 21.248 0 2.278-2.556 3.451-6.107 2.29-9.326-1.168-3.22-4.41-5.588-7.834-5.667-3.429-.083-6.8 2.172-7.987 5.374-.515 1.396-.615 3.045.17 4.297.423.685 1.082 1.2 1.788 1.58 1.257.676 2.762.937 4.131.562 1.375-.38 2.574-1.457 2.936-2.83"/><path fill="none" d="M922.73 440.856c-2.7-6.216-4.105-12.917-5.144-19.613-1.182-7.651-1.897-15.46-.802-23.115 1.09-7.665 4.126-15.23 9.588-20.708 5.466-5.488 13.554-8.598 21.135-7.045 9.14 1.871 16.154 10.556 16.93 19.852.559 6.692-2.015 13.785-7.337 17.881-5.322 4.097-13.4 4.603-18.736.51-5.326-4.087-6.74-12.741-2.382-17.854 1.99-2.343 5.039-3.826 8.105-3.656 3.067.17 6.042 2.112 7.176 4.969.816 2.055.55 4.672-1.138 6.094-1.693 1.418-4.812.868-5.466-1.234"/><path fill="none" stroke="#3faf72" stroke-linecap="round" stroke-linejoin="round" d="M922.73 440.856c-2.7-6.216-4.105-12.917-5.144-19.613-1.182-7.651-1.897-15.46-.802-23.115 1.09-7.665 4.126-15.23 9.588-20.708 5.466-5.488 13.554-8.598 21.135-7.045 9.14 1.871 16.154 10.556 16.93 19.852.559 6.692-2.015 13.785-7.337 17.881-5.322 4.097-13.4 4.603-18.736.51-5.326-4.087-6.74-12.741-2.382-17.854 1.99-2.343 5.039-3.826 8.105-3.656 3.067.17 6.042 2.112 7.176 4.969.816 2.055.55 4.672-1.138 6.094-1.693 1.418-4.812.868-5.466-1.234"/><path fill="none" d="M927.746 454.231c-2.312-5.383-7.438-11.124-12.677-13.75-5.239-2.626-11.63-3.054-17.013-.733-5.383 2.317-9.544 7.49-10.238 13.305-.31 2.604.074 5.361 1.5 7.556 1.423 2.194 3.992 3.725 6.605 3.516 2.609-.21 5.034-2.417 5.122-5.03.039-1.239-.454-2.526-1.449-3.259-.994-.741-2.495-.794-3.437.009"/><path fill="none" stroke="#3faf72" stroke-linecap="round" stroke-linejoin="round" d="M927.746 454.231c-2.312-5.383-7.438-11.124-12.677-13.75-5.239-2.626-11.63-3.054-17.013-.733-5.383 2.317-9.544 7.49-10.238 13.305-.31 2.604.074 5.361 1.5 7.556 1.423 2.194 3.992 3.725 6.605 3.516 2.609-.21 5.034-2.417 5.122-5.03.039-1.239-.454-2.526-1.449-3.259-.994-.741-2.495-.794-3.437.009"/><path fill="#191919" fill-opacity=".14" fill-rule="evenodd" d="M945.767 544.016c-1.824-1.475-2.753-3.77-3.555-5.985-1.65-4.585-3.076-9.283-3.534-14.125-.017-.201-.022-.406-.04-.607a44.545 44.545 0 0 0 6.553 8.193 246.47 246.47 0 0 0 2.678-10.68c.376 1.567.611 3.155.716 4.677.384 5.841-1.41 12.847-2.818 18.527Z"/><path fill="#e21c54" fill-rule="evenodd" d="M479.804 499.329c-3.94-4.075-8.472-7.928-11.583-12.76-1.293-2.012-1.737-3.332-1.903-5.766-.169-2.434 1.118-5.15 3.35-5.69a8.038 8.038 0 0 1 1.873-.239c1.459 0 2.818.481 3.922 1.635 2.146 2.248 3.097 3.79 4.566 6.585 1.353-2.994 3.343-5.653 5.783-7.722a4.667 4.667 0 0 1 3.057-1.104c1.098 0 2.212.354 3.16 1.017 1.062.743 1.609 2.133 1.662 3.485.053 1.35-.325 2.676-.763 3.943-2.424 6.914-7.139 12.889-13.124 16.616Z"/><path fill="#191919" fill-opacity=".14" fill-rule="evenodd" d="M479.844 497.04c-3.164-3.07-6.795-5.968-9.291-9.615-1.038-1.512-1.396-2.51-1.53-4.344-.135-1.83.9-3.873 2.687-4.284a3.17 3.17 0 0 1 .68-.076c1.475 0 2.878 1.028 3.972 2.102 1.72 1.698 2.48 2.852 3.657 4.957a16.866 16.866 0 0 1 4.64-5.813c.994-.785 2.287-1.465 3.498-1.465.523 0 1.03.13 1.492.431.845.557 1.286 1.608 1.326 2.62.046 1.02-.249 2.019-.607 2.974-1.94 5.21-5.726 9.705-10.524 12.514Z"/><path fill="#191919" fill-opacity=".14" fill-rule="evenodd" d="M481.86 493.974c.723-1.552.809-2.968 1.333-4.596a11.728 11.728 0 0 1 1.94-3.65c.271-.349.696-.707 1.097-.707a.63.63 0 0 1 .342.103c.457.291.334.981.139 1.482a20.884 20.884 0 0 1-4.851 7.368Zm-3.27 0a20.884 20.884 0 0 1-4.85-7.368c-.193-.5-.316-1.19.138-1.482a.633.633 0 0 1 .345-.103c.401 0 .826.358 1.094.706a11.737 11.737 0 0 1 1.944 3.65c.52 1.629.606 3.045 1.33 4.597Zm1.509.378c-.02-1.008-.418-2.142-.547-3.147a20.97 20.97 0 0 1-.163-2.739c.004-.64.183-1.462.82-1.552a.81.81 0 0 1 .089-.006c.358 0 .686.275.836.603.165.362.159.773.139 1.16a18.497 18.497 0 0 1-1.174 5.68Z"/><path fill="#ffba31" fill-rule="evenodd" d="M477.854 541.48c-.59 0-1.164-.156-1.658-.51-1.243-.899-1.509-2.62-1.565-4.155a34.679 34.679 0 0 1 .408-6.758c1.11-6.943 2.881-15.266 4.586-22.09a55.625 55.625 0 0 1 3.097 27.014c-.236 1.774-.604 3.624-1.751 4.997-.76.905-1.966 1.502-3.117 1.502Zm-16.984-7.616c-.825 0-1.585-.279-2.016-.972-.597-.958-.232-2.202.226-3.233a22.452 22.452 0 0 1 3.554-5.6c4.646-5.359 9.64-10.94 14.156-16.414a48.05 48.05 0 0 1-9.139 21.328c-1.276 1.674-2.709 3.306-4.566 4.31-.656.352-1.462.58-2.215.58Zm38.262 0c-.753 0-1.558-.23-2.215-.58-1.857-1.005-3.293-2.637-4.57-4.311a48.007 48.007 0 0 1-9.134-21.328c4.512 5.475 9.513 11.055 14.155 16.414a22.534 22.534 0 0 1 3.551 5.6c.458 1.031.823 2.275.23 3.233-.429.693-1.191.972-2.017.972Z"/><path fill="#191919" fill-opacity=".14" fill-rule="evenodd" d="M477.42 541.457a2.742 2.742 0 0 1-1.224-.48c-1.243-.903-1.509-2.627-1.565-4.156-.086-2.26.053-4.529.408-6.76 1.09-6.841 2.835-15.025 4.516-21.793.647 6.92.909 13.88.232 20.794-.408 4.185-1.17 8.36-2.367 12.395Zm-18.387-8.349c-.06-.073-.132-.13-.182-.216-.587-.958-.226-2.202.229-3.233a22.452 22.452 0 0 1 3.554-5.6c4.64-5.359 9.636-10.933 14.146-16.41-.123.736-.425 1.435-.746 2.112a77.498 77.498 0 0 1-17 23.347Zm40.073.749c-.743 0-1.536-.222-2.186-.574-1.856-1.004-3.289-2.636-4.569-4.31a47.996 47.996 0 0 1-9.122-21.255 119.94 119.94 0 0 0 17.273 25.79c-.398.243-.886.35-1.396.35Z"/><path fill="#88ad25" fill-rule="evenodd" d="M12.795 36.276c2.66 3.298 4.161 7.516 4.166 11.752.004 4.24-1.475 8.463-4.136 11.765-3.15-6.853-3.202-16.669-.03-23.517Z"/><path fill="#ff8831" fill-rule="evenodd" d="M-8.005 61.738c3.69 1.994 7.006 4.773 9.288 8.293 2.281 3.52 3.476 7.813 2.935 11.975-2.325-1.593-4.41-2.997-6.43-4.952-1.618-1.566-3.162-3.297-3.978-5.391-1.086-2.797-.558-7.211-1.815-9.925Z"/><path fill="#ffba31" fill-rule="evenodd" d="M-3.817 33.021c4.59 0 8.611 2.967 10.823 7.281-.881.698-2.06.833-3.176.93-1.527.13-3.062.23-4.598.23-1.575 0-3.14-.109-4.69-.405-3.153-.615-6.093-2.003-9.003-3.381 2.792-2.282 4.816-3.643 8.336-4.402.781-.17 1.553-.253 2.308-.253Z"/><path fill="#e21c54" fill-rule="evenodd" d="M-13.056 53.694c2.665 0 5.396.742 8.018 1.911-2.151 2.6-5.266 4.188-8.345 5.558-2.313 1.02-4.677 1.971-7.172 2.342a16.158 16.158 0 0 1-6.722-.41c2.246-3.15 4.227-5.405 7.498-7.49 2.112-1.344 4.393-1.91 6.723-1.91Z"/><path fill="#3faf72" fill-rule="evenodd" d="M-11.617 77.15c-.528 9.253-6.949 17.903-15.66 21.096 2.486-3.803 2.133-8.24 4.663-12 2.552-3.787 7.141-6.653 10.997-9.096Z"/><path fill="#ffba31" fill-rule="evenodd" d="M-6.67 96.126c.31 3.608.153 7.342-1.239 10.688-1.396 3.341-4.183 6.242-7.708 7.076.606-2.5.877-5.375 1.483-7.87.27-1.104.532-2.212.973-3.254 1.296-3.076 3.87-4.576 6.491-6.64Z"/><path fill="#fff" fill-opacity=".14" fill-rule="evenodd" d="M12.799 36.276c.14.178.257.362.393.54.88 3.56.946 7.386.872 11.094-.078 3.773-.27 7.577-.816 11.311-.148.188-.275.389-.423.572-3.15-6.853-3.202-16.677-.026-23.517ZM-7.573 62.982A109.655 109.655 0 0 1 4.297 80.95c-.022.353-.035.702-.079 1.056-2.325-1.593-4.41-2.997-6.43-4.952-1.618-1.566-3.162-3.297-3.978-5.391-.93-2.4-.676-5.994-1.383-8.681Zm-1.165-25.629c4.568 0 9.13.641 13.51 1.928.786.227 1.58.52 2.186 1.047-.873.672-2.024.807-3.124.903-1.535.131-3.08.236-4.624.236-1.566 0-3.123-.11-4.658-.41-3.146-.611-6.086-1.994-8.982-3.372a48.673 48.673 0 0 1 5.692-.332Zm.659 18.71c.833 0 1.662.048 2.487.148-2.107 2.243-4.96 3.695-7.791 4.956-2.313 1.02-4.677 1.972-7.172 2.347-.785.122-1.58.179-2.378.179-1.465 0-2.931-.201-4.344-.594.152-.205.292-.392.436-.593a101.155 101.155 0 0 0 6.993-3.036c1.649-.798 3.276-1.645 4.999-2.255a20.221 20.221 0 0 1 6.77-1.152Zm-3.533 21.087c-.524 9.07-6.7 17.541-15.138 20.887a20.898 20.898 0 0 0 3.311-3.573c2.273-3.088 3.883-6.617 5.868-9.91 1.43-2.378 3.08-4.616 4.885-6.723.363-.231.725-.463 1.074-.68Zm4.968 19.277c.27 3.516.088 7.133-1.265 10.378-1.374 3.294-4.11 6.16-7.56 7.032 1.867-1.971 3.329-4.436 4.459-6.927 1.561-3.442 2.7-7.093 4.366-10.483Z"/><path fill="#191919" fill-opacity=".14" fill-rule="evenodd" d="M12.799 36.276a18.901 18.901 0 0 1 4.162 11.752c0 .536-.022 1.077-.066 1.605-.772-2.16-1.884-4.197-3.333-5.976-1.016 2.072-2.046 4.144-3.062 6.216-.28-4.764.476-9.667 2.299-13.597ZM-8.005 61.738c3.69 1.994 7.006 4.768 9.292 8.284a19.43 19.43 0 0 1 1.867 3.708 136.316 136.316 0 0 0-7.782-3.9c.017 1.61.1 3.215.209 4.825-.724-.92-1.344-1.906-1.771-2.992-1.086-2.792-.554-7.211-1.815-9.925Zm5.492-28.625c4.04.497 7.525 3.28 9.523 7.19-.88.693-2.059.832-3.176.928-1.526.131-3.07.236-4.606.236-.82 0-1.64-.03-2.456-.1a56.715 56.715 0 0 0 4.563-2.391c.17-.1.358-.218.423-.41.087-.236-.044-.484-.174-.698a19.694 19.694 0 0 0-4.097-4.755Zm-10.547 20.59c2.669 0 5.4.746 8.022 1.915-2.151 2.6-5.266 4.188-8.345 5.553-1.24.55-2.491 1.065-3.774 1.492a69.927 69.927 0 0 1 3.747-4.955 25.88 25.88 0 0 0-6.308-.773c-.671 0-1.347.027-2.02.075.607-.48 1.248-.938 1.96-1.392 2.11-1.348 4.392-1.915 6.717-1.915Zm1.443 23.447c-.292 5.148-2.412 10.103-5.732 14.043.319-2.055.454-4.132.393-6.208a54.362 54.362 0 0 0-6.766 3.333c.3-.711.654-1.396 1.108-2.072 2.552-3.787 7.141-6.653 10.997-9.096Zm4.947 18.968c.31 3.612.153 7.346-1.239 10.687a13.963 13.963 0 0 1-.999 1.91c.087-1.945-.07-3.908-.532-5.8-1.662 1.522-3.328 3.048-5 4.57.101-.497.193-.994.306-1.47.27-1.103.532-2.211.973-3.254 1.296-3.07 3.87-4.576 6.491-6.643Z"/><path fill="#88ad25" fill-rule="evenodd" d="M46.437-3.844c1.902 0 3.764.667 5.562 1.339 2.91 1.095 5.906 2.299 8.009 4.585 2.905 3.145 3.56 7.686 4.079 11.93-6.64-1.343-15.116-4.754-18.178-17.837a7.17 7.17 0 0 1 .528-.017Z"/><path fill="#ffba31" fill-rule="evenodd" d="M42.358 19.184c3.416 4.493 4.092 10.718 2.504 16.145-1.584 5.427-5.226 10.081-9.575 13.685.453-5.253 1.256-12.306 1.71-17.563.126-1.44.248-2.888.628-4.275.837-3.067 2.779-5.501 4.733-7.992Z"/><path fill="#ff8831" fill-rule="evenodd" d="M12.014 9.251c3.852 0 7.708 1.108 10.927 3.224 1.505.99 2.91 2.23 3.713 3.848 1.164 2.338.933 5.13 1.806 7.59-6.696-.995-15.255-5.675-21.995-13.863a19.42 19.42 0 0 1 5.549-.799Z"/><path fill="#fff" fill-opacity=".14" fill-rule="evenodd" d="M46.057-3.312c.393.27.79.532 1.178.82C53.573 2.1 58.917 7.873 64.06 13.797c.013.074.018.144.027.218-6.548-1.335-14.872-4.685-18.03-17.327Zm-3.699 22.496c.21.27.401.545.589.825a73.291 73.291 0 0 1-6.007 27.543c-.537.506-1.086.99-1.653 1.462.453-5.253 1.256-12.306 1.71-17.563.126-1.44.248-2.888.628-4.275.837-3.067 2.779-5.501 4.733-7.992ZM7.433 9.797c2.517.706 4.978 1.6 7.333 2.722 5.248 2.5 9.981 6.15 13.497 10.753.066.213.122.436.197.645-6.696-.999-15.255-5.68-21.995-13.863.318-.096.65-.183.968-.257Z"/><path fill="#191919" fill-opacity=".14" fill-rule="evenodd" d="M57.526.06c.903.576 1.753 1.23 2.482 2.024 2.896 3.14 3.555 7.69 4.079 11.93-5.589-1.138-12.46-3.755-16.329-12.34A29.239 29.239 0 0 0 59.62 7.85 25.532 25.532 0 0 0 57.526.06ZM42.362 19.175c3.12 4.11 3.948 9.654 2.862 14.71-.489-2.622-1.518-5.139-3.058-7.315-1.775 2.22-3.55 4.453-5.33 6.678.06-.615.113-1.226.165-1.801.127-1.44.249-2.888.628-4.275.838-3.067 2.779-5.501 4.733-7.997Zm-21.192-7.73c.611.315 1.2.66 1.771 1.03 1.505.995 2.91 2.238 3.713 3.848 1.164 2.333.929 5.125 1.806 7.586-4.42-.655-9.645-2.928-14.636-6.74a32.485 32.485 0 0 0 8.725 1.226c.056-2.382-.44-4.755-1.379-6.95Z"/><path fill="#ffba31" fill-rule="evenodd" d="M174.02 12.859c2.618 8.816-.632 19.072-7.847 24.773-1.047-4.698-1.056-9.051-.332-13.81.384-2.465 1.012-4.948 2.321-7.08 1.304-2.134 3.416-3.347 5.859-3.883Z"/><path fill="#ff8831" fill-rule="evenodd" d="M164.075-7.574c.353 0 .702.009 1.047.03 4.283.24 8.471 1.933 11.725 4.72 3.255 2.797 5.562 6.675 6.452 10.871-2.635-1.147-5.047-.453-7.878-.925-3.717-.632-6.897-3.031-9.532-5.723-2.643-2.687-3.075-5.906-5.92-8.371 1.318-.432 2.714-.602 4.106-.602Z"/><path fill="#e21c54" fill-rule="evenodd" d="M129.866-3.421c4.759.34 9.16 3.075 12.162 6.783 3.01 3.712 4.741 8.315 5.688 12.995-3.87-1.435-7.076-2.665-10.086-5.487-3.69-3.473-4.798-10.173-7.764-14.291Z"/><path fill="#88ad25" fill-rule="evenodd" d="M127.431 16.584c.646 1.632.873 3.42.663 5.16-.174 1.454-.654 2.858-1.265 4.189-2.43 5.265-7.07 9.466-12.55 11.363.545-3.289.336-4.763.886-8.057.349-2.059.702-4.148 1.627-6.02 2.015-4.044 6.469-4.89 10.64-6.635Z"/><path fill="#3faf72" fill-rule="evenodd" d="M83.263-6.68c5.108.292 10.081 2.56 13.654 6.225 3.573 3.664 5.71 8.69 5.876 13.802-2.12-1.09-3.472-1.295-5.601-2.394-2.177-1.117-4.393-2.265-6.12-4-1.388-1.38-2.408-3.076-3.39-4.764C86.002-.7 84.83-3.714 83.263-6.68Z"/><path fill="#e21c54" fill-rule="evenodd" d="M83.93 13.107c.685 4.302-.484 8.751-2.612 12.546-2.125 3.796-5.161 7.002-8.385 9.93-1.387 1.26-3.001 2.542-4.864 2.542h-.117c.65-4.253 1.286-9.422 2.892-13.414 1.627-3.978 4.323-7.673 8.144-9.645 1.492-.768 3.294-1.61 4.943-1.959Z"/><path fill="#fff" fill-opacity=".14" fill-rule="evenodd" d="M174.02 12.868c.066.205.105.414.162.619a182.615 182.615 0 0 1-8.336 22.496c-.707-4.083-.65-7.97-.005-12.162.384-2.464 1.012-4.947 2.321-7.08 1.304-2.129 3.425-3.341 5.859-3.873ZM161.204-7.295c.227.1.454.2.668.305a82.315 82.315 0 0 1 21.331 14.68c.03.122.066.244.092.362-2.64-1.148-5.043-.445-7.878-.925-3.721-.633-6.893-3.036-9.536-5.724-2.635-2.691-3.067-5.91-5.916-8.375.406-.131.816-.24 1.24-.323ZM129.87-3.426c.24.014.471.07.711.096a72.468 72.468 0 0 1 5.793 6.177c3.555 4.297 6.657 9.048 10.395 13.153-3.45-1.287-6.377-2.544-9.13-5.13-3.7-3.473-4.807-10.173-7.77-14.296Zm-2.713 20.124a21.585 21.585 0 0 1-.89 1.836 165.058 165.058 0 0 1-11.495 18.562c-.166.065-.323.144-.493.2.545-3.284.336-4.763.886-8.052.349-2.06.702-4.149 1.627-6.02 1.98-3.961 6.281-4.86 10.365-6.526ZM83.7-5.812a90.333 90.333 0 0 1 19.071 19.155c-2.102-1.086-3.459-1.291-5.57-2.386-2.181-1.117-4.393-2.264-6.125-3.996-1.383-1.378-2.404-3.075-3.39-4.768C86.165-.42 85.053-3.125 83.7-5.812Zm.1 18.968a161.239 161.239 0 0 1-15.146 24.921c-.183.026-.367.04-.554.04h-.148c.65-4.254 1.286-9.414 2.9-13.397 1.628-3.978 4.323-7.678 8.145-9.645 1.452-.75 3.193-1.557 4.803-1.92Z"/><path fill="#191919" fill-opacity=".14" fill-rule="evenodd" d="M174.02 12.859c1.414 4.737 1.104 9.88-.584 14.504a24.886 24.886 0 0 0-2.059-6.19c-2.01 3.093-4.018 6.186-6.033 9.283a40.35 40.35 0 0 1 .497-6.635c.376-2.464 1.012-4.947 2.321-7.08 1.304-2.129 3.416-3.346 5.859-3.882Zm-2.285-18.832a19.775 19.775 0 0 1 5.112 3.15 19.895 19.895 0 0 1 6.452 10.87c-2.635-1.147-5.038-.445-7.878-.925-3.717-.628-6.897-3.031-9.536-5.723a11.487 11.487 0 0 1-1.008-1.19 86.344 86.344 0 0 0 11.988 1.858 45.187 45.187 0 0 0-5.13-8.04Zm-29.31 9.863c2.757 3.612 4.384 8 5.291 12.467-3.865-1.43-7.076-2.665-10.081-5.487-1.309-1.235-2.29-2.87-3.15-4.65 2.46 1.57 5 3.01 7.617 4.288.214.104.48.196.71.196.18 0 .341-.052.45-.196.122-.166.122-.397.114-.607a29.762 29.762 0 0 0-.951-6.011Zm-14.994 12.694c.646 1.632.873 3.42.663 5.16-.174 1.454-.654 2.858-1.265 4.189a21.922 21.922 0 0 1-2.434 4c-.056-2.251-.654-4.48-1.775-6.43a80.983 80.983 0 0 0-7.551 6.382c.035-.214.06-.419.096-.646.349-2.059.702-4.148 1.627-6.02 2.015-4.044 6.469-4.89 10.64-6.635ZM97.004-.359c3.52 3.664 5.632 8.642 5.794 13.71-2.125-1.094-3.477-1.3-5.602-2.394C95.02 9.84 92.808 8.693 91.08 6.96c-1.239-1.239-2.18-2.73-3.075-4.245 3.376 1.981 7.084 3.39 10.945 4.07A28.261 28.261 0 0 0 97.004-.36ZM83.93 13.116c.685 4.301-.484 8.747-2.612 12.542-.877 1.566-1.924 3.032-3.063 4.423a82.16 82.16 0 0 0 .868-8.149c.022-.335.01-.741-.261-.937a.577.577 0 0 0-.358-.118c-.266 0-.558.14-.798.279a203.479 203.479 0 0 0-7.176 4.436c.104-.296.2-.589.314-.872 1.627-3.978 4.323-7.678 8.144-9.645 1.492-.772 3.294-1.614 4.943-1.959Z"/><path fill="#ff8831" fill-rule="evenodd" d="M49.163 138.13c2.609 0 5.095.668 7.922 1.48 2.997.86 5.61 2.988 7.058 5.745 1.448 2.761 1.706 6.124.707 9.073-.842 2.487-2.853 4.83-5.475 5.065 1.719 3.9.624 8.629-2.73 11.268-1.868 1.466-4.228 2.19-6.6 2.19-1.894 0-3.796-.463-5.454-1.383-.501 2.875-3.742 4.777-6.726 4.777-.393 0-.777-.03-1.152-.096-3.25-.576-5.832-3.255-7.08-6.313-1.243-3.053-1.348-6.447-1.165-9.736.153-2.783.498-5.588 1.562-8.153.995-2.408 2.578-4.528 4.362-6.43 2.984-3.176 6.649-5.833 10.858-6.963a14.926 14.926 0 0 1 3.913-.523Z"/><path fill="#ffba31" fill-rule="evenodd" d="M45.159 141.843a13.61 13.61 0 0 1 9.666 4.01c5.344 5.339 5.344 13.998 0 19.333a13.628 13.628 0 0 1-9.666 4.004 13.63 13.63 0 0 1-9.672-4.004c-5.335-5.335-5.335-13.994 0-19.334a13.617 13.617 0 0 1 9.672-4.009Z"/><path fill="none" d="M46.083 160.514c4.463 6.884 5.017 16.132 1.414 23.5"/><path fill="none" stroke="#88ad25" stroke-linecap="round" stroke-linejoin="round" d="M46.083 160.514c4.463 6.884 5.017 16.132 1.414 23.5"/><path fill="none" d="M49.085 157.264a41.559 41.559 0 0 0 15.651 5.789c1.16.179 2.382.3 3.49-.114.149.153.293.293.445.436"/><path fill="none" stroke="#88ad25" stroke-linecap="round" stroke-linejoin="round" d="M49.085 157.264a41.559 41.559 0 0 0 15.651 5.789c1.16.179 2.382.3 3.49-.114.149.153.293.293.445.436"/><path fill="#ffba31" fill-rule="evenodd" d="M46.616 184.013a2.354 2.354 0 1 1-2.352 2.356 2.359 2.359 0 0 1 2.352-2.356Zm24.411-22.993c1.3 0 2.351 1.055 2.351 2.355a2.347 2.347 0 0 1-2.351 2.352 2.359 2.359 0 0 1-2.356-2.352 2.357 2.357 0 0 1 2.356-2.355Z"/><path fill="#e21c54" fill-rule="evenodd" d="M26.008 133.367c.074 0 .153.005.231.009 10.055.768 20.115 1.531 30.17 2.299 2.779.21 5.619.445 8.144 1.623-4.454 3.08-7.756 6.626-11.961 10.042.86 2.111 1.81 4.314 1.941 6.595.135 2.278-.327 4.65-1.631 6.53-1.27 1.842-3.263 3.107-5.388 3.805a14.022 14.022 0 0 1-4.367.693c-1.85 0-3.699-.357-5.404-1.073-.223.21-5.144 11.582-9.741 16.429a54.027 54.027 0 0 0-4.131-25.934c-1.846-4.297-4.31-8.781-3.407-13.37.602-3.037 2.512-7.648 5.544-7.648Z"/><path fill="#e21c54" fill-rule="evenodd" d="M21.733 137.154a95.362 95.362 0 0 1 15.992 26.758c-.366.567-5.2 11.639-9.723 16.407a54.027 54.027 0 0 0-4.131-25.934c-1.846-4.297-4.32-8.781-3.407-13.37.23-1.17.658-2.57 1.269-3.861Zm4.271-3.787c.078 0 .157.005.235.009 10.055.763 20.115 1.531 30.17 2.299 2.779.218 5.619.45 8.144 1.623-4.362 3.018-7.625 6.478-11.712 9.837a150.922 150.922 0 0 1-28.451-13.292 3.07 3.07 0 0 1 1.614-.476Z"/><path fill="#ffba31" fill-rule="evenodd" d="M22.492 151.266a14.655 14.655 0 0 1 4.99 2.988c.873.816 1.658 1.745 2.217 2.8 1.413 2.718 1.177 6.073-.01 8.882-.496 1.178-1.142 2.277-1.88 3.32-.601-5.113-1.91-10.142-3.938-14.876-.441-1.02-.917-2.063-1.379-3.114ZM36.997 134.2c6.281.476 12.559.956 18.84 1.44-1.457 2.15-3.982 3.55-6.595 3.834-.389.04-.777.062-1.165.062-2.705 0-5.388-1-7.665-2.496-1.239-.82-2.364-1.793-3.415-2.84Zm-5.457 8.145c2.656 1.23 5.326 2.465 7.738 4.113 2.421 1.64 4.594 3.739 5.933 6.339.423.833.768 1.74.759 2.67-.018.933-.445 1.906-1.256 2.373a2.39 2.39 0 0 1-1.174.292c-.458 0-.93-.113-1.348-.301-.803-.362-1.448-.964-2.072-1.584a32.803 32.803 0 0 1-3.69-4.436c-2.208-3.193-2.84-6.164-4.89-9.466Z"/><path fill="#e21c54" fill-rule="evenodd" d="M26.012 133.372c.079 0 .153.004.232.008 6.033.458 12.07.92 18.099 1.383a109.452 109.452 0 0 0-8.01 1.719 44.466 44.466 0 0 0 10.946 8.314l-18.998-4.222a88.775 88.775 0 0 0 5.959 15.207c-2.74-4.114-5.706-8.42-10.195-10.479.833 4.62 1.27 9.244 1.584 13.881a57.117 57.117 0 0 0-1.75-4.794c-1.85-4.297-4.318-8.777-3.411-13.366.602-3.04 2.513-7.651 5.544-7.651Z"/><path fill="#3faf72" fill-rule="evenodd" d="M26.279 131.915c1.483 0 2.896.34 3.991 1.378a41.826 41.826 0 0 1-10.312 10.317c-.467-1.475-1.056-2.412-1.235-3.944-.227-1.919-.157-4.052 1.086-5.535 1-1.191 2.574-1.723 4.105-1.985.781-.135 1.584-.231 2.364-.231Z"/><path fill="none" d="M19.892 133.393c-8.973-9.828-18.051-19.813-24.11-31.665-6.064-11.848-8.825-26-4.52-38.594 2.6-7.599 7.59-14.164 13.188-19.918 15.86-16.31 37.393-26.998 59.977-29.773 16.52-2.032 33.236.044 49.822 1.405 13.209 1.078 26.479 1.693 39.696.794 7.892-.528 15.866-1.636 23.108-4.825 7.24-3.184 13.732-8.676 16.725-16.005 2.996-7.32 1.88-16.524-3.804-22.02-5.689-5.502-15.98-5.903-21.25 0-2.276 2.555-3.45 6.106-2.29 9.326 1.17 3.22 4.411 5.588 7.835 5.666 3.43.083 6.801-2.172 7.988-5.374.514-1.396.615-3.045-.17-4.297-.424-.685-1.082-1.2-1.789-1.579-1.256-.676-2.761-.938-4.131-.563-1.374.38-2.574 1.457-2.936 2.831"/><path fill="none" stroke="#3faf72" stroke-linecap="round" stroke-linejoin="round" d="M19.892 133.393c-8.973-9.828-18.051-19.813-24.11-31.665-6.064-11.848-8.825-26-4.52-38.594 2.6-7.599 7.59-14.164 13.188-19.918 15.86-16.31 37.393-26.998 59.977-29.773 16.52-2.032 33.236.044 49.822 1.405 13.209 1.078 26.479 1.693 39.696.794 7.892-.528 15.866-1.636 23.108-4.825 7.24-3.184 13.732-8.676 16.725-16.005 2.996-7.32 1.88-16.524-3.804-22.02-5.689-5.502-15.98-5.903-21.25 0-2.276 2.555-3.45 6.106-2.29 9.326 1.17 3.22 4.411 5.588 7.835 5.666 3.43.083 6.801-2.172 7.988-5.374.514-1.396.615-3.045-.17-4.297-.424-.685-1.082-1.2-1.789-1.579-1.256-.676-2.761-.938-4.131-.563-1.374.38-2.574 1.457-2.936 2.831"/><path fill="none" d="M-4.746 100.436c2.7 6.217 4.105 12.917 5.143 19.613 1.182 7.652 1.898 15.46.803 23.116-1.09 7.665-4.127 15.229-9.589 20.708-5.466 5.488-13.553 8.598-21.135 7.045-9.139-1.872-16.154-10.557-16.93-19.853-.558-6.692 2.015-13.785 7.337-17.881 5.322-4.096 13.401-4.602 18.736-.51 5.327 4.087 6.74 12.742 2.382 17.855-1.989 2.342-5.038 3.825-8.105 3.655-3.067-.17-6.042-2.111-7.176-4.969-.816-2.054-.55-4.672 1.139-6.094 1.692-1.417 4.811-.868 5.466 1.235"/><path fill="none" stroke="#3faf72" stroke-linecap="round" stroke-linejoin="round" d="M-4.746 100.436c2.7 6.217 4.105 12.917 5.143 19.613 1.182 7.652 1.898 15.46.803 23.116-1.09 7.665-4.127 15.229-9.589 20.708-5.466 5.488-13.553 8.598-21.135 7.045-9.139-1.872-16.154-10.557-16.93-19.853-.558-6.692 2.015-13.785 7.337-17.881 5.322-4.096 13.401-4.602 18.736-.51 5.327 4.087 6.74 12.742 2.382 17.855-1.989 2.342-5.038 3.825-8.105 3.655-3.067-.17-6.042-2.111-7.176-4.969-.816-2.054-.55-4.672 1.139-6.094 1.692-1.417 4.811-.868 5.466 1.235"/><path fill="none" d="M-9.763 87.061c2.312 5.384 7.438 11.124 12.677 13.75 5.24 2.627 11.63 3.054 17.013.733 5.383-2.316 9.545-7.49 10.238-13.305.31-2.604-.074-5.36-1.5-7.555-1.422-2.194-3.992-3.726-6.605-3.516-2.608.21-5.034 2.417-5.121 5.03-.04 1.238.454 2.525 1.448 3.258.995.742 2.495.794 3.438-.009"/><path fill="none" stroke="#3faf72" stroke-linecap="round" stroke-linejoin="round" d="M-9.763 87.061c2.312 5.384 7.438 11.124 12.677 13.75 5.24 2.627 11.63 3.054 17.013.733 5.383-2.316 9.545-7.49 10.238-13.305.31-2.604-.074-5.36-1.5-7.555-1.422-2.194-3.992-3.726-6.605-3.516-2.608.21-5.034 2.417-5.121 5.03-.04 1.238.454 2.525 1.448 3.258.995.742 2.495.794 3.438-.009"/><path fill="#191919" fill-opacity=".14" fill-rule="evenodd" d="M-27.783-2.723c1.823 1.474 2.752 3.769 3.555 5.985 1.649 4.585 3.075 9.283 3.533 14.125.018.2.022.406.04.606a44.544 44.544 0 0 0-6.553-8.192 246.406 246.406 0 0 0-2.678 10.679 28.654 28.654 0 0 1-.715-4.677c-.384-5.84 1.409-12.847 2.818-18.526Z"/><path fill="#88ad25" fill-rule="evenodd" d="M12.796 505.017c2.66-3.298 4.161-7.516 4.166-11.752.004-4.24-1.475-8.463-4.136-11.765-3.15 6.853-3.202 16.668-.03 23.517Z"/><path fill="#ff8831" fill-rule="evenodd" d="M-8.004 479.554c3.69-1.993 7.006-4.772 9.288-8.293 2.281-3.52 3.476-7.813 2.935-11.974-2.325 1.592-4.41 2.997-6.43 4.951-1.618 1.566-3.162 3.298-3.978 5.392-1.086 2.796-.558 7.21-1.815 9.924Z"/><path fill="#ffba31" fill-rule="evenodd" d="M-3.816 508.271c4.59 0 8.611-2.966 10.823-7.28-.881-.699-2.06-.834-3.176-.93-1.527-.13-3.062-.231-4.598-.231-1.575 0-3.14.11-4.69.406-3.153.615-6.093 2.002-9.003 3.38 2.792 2.282 4.816 3.643 8.336 4.402.781.17 1.553.253 2.308.253Z"/><path fill="#e21c54" fill-rule="evenodd" d="M-13.055 487.598c2.665 0 5.396-.741 8.018-1.91-2.151-2.6-5.266-4.188-8.345-5.558-2.313-1.02-4.677-1.972-7.172-2.343a16.158 16.158 0 0 0-6.722.41c2.246 3.15 4.227 5.405 7.498 7.49 2.112 1.344 4.393 1.911 6.723 1.911Z"/><path fill="#3faf72" fill-rule="evenodd" d="M-11.616 464.142c-.528-9.252-6.949-17.903-15.66-21.096 2.486 3.804 2.133 8.24 4.663 12 2.552 3.787 7.141 6.653 10.997 9.096Z"/><path fill="#ffba31" fill-rule="evenodd" d="M-6.669 445.166c.31-3.607.153-7.342-1.239-10.688-1.396-3.341-4.183-6.242-7.708-7.075.606 2.5.877 5.374 1.483 7.87.27 1.103.532 2.211.973 3.254 1.296 3.075 3.87 4.576 6.491 6.64Z"/><path fill="#fff" fill-opacity=".14" fill-rule="evenodd" d="M12.8 505.017c.14-.179.257-.362.393-.541.88-3.56.946-7.385.872-11.093-.078-3.774-.27-7.578-.816-11.312-.148-.187-.275-.388-.423-.571-3.15 6.853-3.202 16.677-.026 23.517ZM-7.572 478.31a109.653 109.653 0 0 0 11.87-17.967c-.022-.354-.035-.703-.079-1.056-2.325 1.592-4.41 2.997-6.43 4.951-1.618 1.566-3.162 3.298-3.978 5.392-.93 2.4-.676 5.994-1.383 8.68Zm-1.165 25.63c4.568 0 9.13-.642 13.51-1.929.786-.227 1.58-.519 2.186-1.047-.873-.672-2.024-.807-3.124-.903-1.535-.13-3.08-.235-4.624-.235-1.566 0-3.123.109-4.658.41-3.146.61-6.086 1.993-8.982 3.372a48.68 48.68 0 0 0 5.692.331Zm.659-18.71c.833 0 1.662-.049 2.487-.149-2.107-2.242-4.96-3.695-7.791-4.955-2.313-1.021-4.677-1.972-7.172-2.347a15.457 15.457 0 0 0-2.378-.18c-1.465 0-2.931.201-4.344.594.152.205.292.393.436.593 2.369.93 4.702 1.933 6.993 3.036 1.649.799 3.276 1.645 4.999 2.256a20.221 20.221 0 0 0 6.77 1.151Zm-3.533-21.088c-.524-9.07-6.7-17.54-15.138-20.887a20.9 20.9 0 0 1 3.311 3.573c2.273 3.089 3.883 6.618 5.868 9.911 1.43 2.378 3.08 4.616 4.885 6.723.363.23.725.462 1.074.68Zm4.968-19.277c.27-3.516.087-7.132-1.265-10.378-1.374-3.293-4.11-6.16-7.56-7.032 1.867 1.972 3.329 4.437 4.459 6.928 1.561 3.441 2.7 7.093 4.366 10.482Z"/><path fill="#191919" fill-opacity=".14" fill-rule="evenodd" d="M12.8 505.017a18.901 18.901 0 0 0 4.162-11.752c0-.537-.022-1.078-.066-1.606-.772 2.16-1.884 4.197-3.333 5.977-1.016-2.072-2.046-4.144-3.062-6.217-.28 4.764.476 9.667 2.299 13.598Zm-20.804-25.463c3.69-1.993 7.006-4.768 9.292-8.284a19.429 19.429 0 0 0 1.867-3.708 136.316 136.316 0 0 1-7.782 3.9c.017-1.61.1-3.215.209-4.825-.724.92-1.344 1.907-1.771 2.993-1.086 2.792-.554 7.21-1.815 9.924Zm5.492 28.626c4.04-.498 7.525-3.281 9.523-7.19-.881-.693-2.059-.833-3.176-.929-1.526-.13-3.07-.235-4.606-.235-.82 0-1.64.03-2.456.1a56.715 56.715 0 0 1 4.563 2.39c.17.1.358.219.423.41.087.236-.044.485-.174.699a19.694 19.694 0 0 1-4.097 4.754Zm-10.548-20.59c2.67 0 5.4-.747 8.023-1.916-2.151-2.6-5.266-4.187-8.345-5.553-1.24-.55-2.491-1.064-3.774-1.492a69.927 69.927 0 0 0 3.747 4.956 25.878 25.878 0 0 1-6.308.772c-.671 0-1.347-.026-2.02-.074.607.48 1.248.938 1.96 1.391 2.11 1.348 4.392 1.915 6.717 1.915Zm1.444-23.448c-.292-5.147-2.412-10.103-5.732-14.042.319 2.055.454 4.131.393 6.207a54.366 54.366 0 0 1-6.766-3.332c.3.71.654 1.396 1.108 2.072 2.552 3.786 7.141 6.652 10.997 9.095Zm4.947-18.967c.31-3.612.153-7.346-1.239-10.688a13.963 13.963 0 0 0-.999-1.91c.087 1.945-.07 3.908-.532 5.801-1.662-1.522-3.328-3.049-5-4.571.101.497.193.994.306 1.47.27 1.103.532 2.211.973 3.254 1.296 3.071 3.87 4.576 6.491 6.644Z"/><path fill="#88ad25" fill-rule="evenodd" d="M46.438 545.137c1.902 0 3.764-.668 5.562-1.34 2.91-1.094 5.906-2.298 8.009-4.584 2.905-3.145 3.56-7.687 4.079-11.931-6.64 1.344-15.116 4.755-18.178 17.837.179.013.353.018.528.018Z"/><path fill="#ffba31" fill-rule="evenodd" d="M42.359 522.108c3.416-4.493 4.092-10.718 2.504-16.145-1.584-5.426-5.226-10.08-9.575-13.684.453 5.252 1.256 12.306 1.71 17.563.126 1.44.248 2.887.628 4.275.837 3.066 2.779 5.5 4.733 7.991Z"/><path fill="#ff8831" fill-rule="evenodd" d="M12.015 532.041c3.852 0 7.708-1.108 10.927-3.223 1.505-.99 2.91-2.23 3.713-3.848 1.164-2.338.933-5.13 1.806-7.59-6.696.994-15.255 5.675-21.995 13.863a19.42 19.42 0 0 0 5.549.798Z"/><path fill="#fff" fill-opacity=".14" fill-rule="evenodd" d="M46.058 544.605c.393-.27.79-.533 1.178-.82 6.338-4.594 11.682-10.365 16.825-16.29.013-.073.018-.143.027-.217-6.548 1.334-14.872 4.685-18.03 17.327Zm-3.699-22.497c.21-.27.401-.545.589-.824a73.291 73.291 0 0 0-6.007-27.544 35.018 35.018 0 0 0-1.653-1.461c.453 5.252 1.256 12.306 1.71 17.563.126 1.44.248 2.887.628 4.275.837 3.066 2.779 5.5 4.733 7.991Zm-34.925 9.388c2.517-.707 4.978-1.601 7.333-2.722 5.248-2.5 9.981-6.151 13.497-10.753.066-.214.122-.436.197-.646-6.696 1-15.255 5.68-21.995 13.864.318.096.65.183.968.257Z"/><path fill="#191919" fill-opacity=".14" fill-rule="evenodd" d="M57.527 541.233c.903-.576 1.753-1.23 2.482-2.025 2.896-3.14 3.555-7.69 4.079-11.93-5.589 1.138-12.46 3.756-16.329 12.34a29.238 29.238 0 0 1 11.862-6.176 25.532 25.532 0 0 1-2.094 7.79Zm-15.164-19.116c3.12-4.11 3.948-9.654 2.862-14.71-.489 2.622-1.518 5.14-3.058 7.316-1.775-2.22-3.55-4.454-5.33-6.679.06.615.113 1.226.165 1.802.127 1.44.249 2.888.628 4.275.838 3.067 2.779 5.5 4.733 7.996Zm-21.192 7.73c.611-.314 1.2-.659 1.771-1.03 1.505-.994 2.91-2.237 3.713-3.847 1.164-2.334.929-5.126 1.806-7.586-4.42.654-9.645 2.927-14.636 6.74a32.487 32.487 0 0 1 8.725-1.226c.056 2.382-.44 4.755-1.379 6.949Z"/><path fill="#ffba31" fill-rule="evenodd" d="M174.022 528.434c2.617-8.817-.633-19.072-7.848-24.774-1.047 4.698-1.056 9.052-.332 13.811.384 2.465 1.012 4.947 2.321 7.08 1.304 2.133 3.416 3.346 5.859 3.883Z"/><path fill="#ff8831" fill-rule="evenodd" d="M164.076 548.867a16.6 16.6 0 0 0 1.047-.03c4.283-.24 8.471-1.933 11.725-4.721a19.895 19.895 0 0 0 6.452-10.87c-2.635 1.147-5.047.453-7.878.924-3.717.633-6.897 3.032-9.532 5.723-2.643 2.688-3.075 5.907-5.92 8.372 1.318.431 2.714.602 4.106.602Z"/><path fill="#e21c54" fill-rule="evenodd" d="M129.867 544.714c4.759-.34 9.16-3.076 12.162-6.784 3.01-3.712 4.741-8.314 5.688-12.995-3.87 1.435-7.076 2.665-10.086 5.488-3.69 3.472-4.798 10.173-7.764 14.29Z"/><path fill="#88ad25" fill-rule="evenodd" d="M127.432 524.708a10.63 10.63 0 0 0 .663-5.16c-.174-1.453-.654-2.858-1.265-4.188-2.43-5.265-7.07-9.466-12.55-11.364.545 3.29.336 4.764.886 8.057.349 2.06.702 4.149 1.627 6.02 2.015 4.044 6.469 4.89 10.64 6.635Z"/><path fill="#3faf72" fill-rule="evenodd" d="M83.264 547.972c5.108-.292 10.081-2.56 13.654-6.225 3.573-3.664 5.71-8.69 5.876-13.802-2.12 1.09-3.472 1.296-5.601 2.395-2.177 1.117-4.393 2.264-6.12 4-1.388 1.379-2.408 3.076-3.39 4.764-1.68 2.888-2.853 5.902-4.419 8.868Z"/><path fill="#e21c54" fill-rule="evenodd" d="M83.932 528.185c.684-4.301-.485-8.75-2.613-12.546-2.125-3.795-5.161-7.001-8.385-9.929-1.387-1.26-3.001-2.543-4.864-2.543h-.118c.65 4.253 1.287 9.423 2.893 13.414 1.627 3.979 4.323 7.674 8.144 9.645 1.492.768 3.294 1.61 4.943 1.959Z"/><path fill="#fff" fill-opacity=".14" fill-rule="evenodd" d="M174.022 528.425c.065-.205.104-.415.161-.62a182.614 182.614 0 0 0-8.336-22.496c-.707 4.083-.65 7.97-.005 12.162.384 2.465 1.012 4.947 2.321 7.08 1.304 2.129 3.425 3.342 5.859 3.874Zm-12.817 20.162c.227-.1.454-.2.668-.305a82.315 82.315 0 0 0 21.331-14.68c.03-.121.066-.243.092-.361-2.64 1.147-5.043.445-7.878.925-3.721.632-6.893 3.036-9.536 5.723-2.635 2.692-3.067 5.91-5.916 8.376.406.13.816.24 1.24.322Zm-31.335-3.869c.24-.013.472-.07.712-.096a72.458 72.458 0 0 0 5.793-6.177c3.555-4.297 6.657-9.047 10.395-13.152-3.45 1.287-6.377 2.543-9.13 5.13-3.7 3.472-4.807 10.173-7.77 14.295Zm-2.712-20.123a21.595 21.595 0 0 0-.89-1.837 165.06 165.06 0 0 0-11.495-18.561c-.166-.066-.323-.144-.493-.201.545 3.285.336 4.764.886 8.053.349 2.059.702 4.148 1.627 6.02 1.98 3.96 6.281 4.86 10.365 6.526ZM83.7 547.104a90.334 90.334 0 0 0 19.072-19.155c-2.102 1.087-3.459 1.292-5.57 2.387-2.181 1.116-4.393 2.264-6.125 3.995-1.383 1.379-2.404 3.076-3.39 4.768-1.522 2.613-2.634 5.318-3.987 8.005Zm.1-18.967a161.24 161.24 0 0 0-15.145-24.922 3.896 3.896 0 0 0-.554-.04h-.149c.65 4.254 1.287 9.415 2.901 13.398 1.628 3.978 4.323 7.677 8.145 9.645 1.452.75 3.193 1.557 4.803 1.919Z"/><path fill="#191919" fill-opacity=".14" fill-rule="evenodd" d="M174.022 528.434c1.413-4.738 1.103-9.881-.585-14.505a24.886 24.886 0 0 1-2.059 6.19c-2.01-3.093-4.018-6.186-6.033-9.283a40.348 40.348 0 0 0 .497 6.635c.376 2.465 1.012 4.947 2.321 7.08 1.304 2.129 3.416 3.346 5.859 3.883Zm-2.286 18.832a19.776 19.776 0 0 0 5.112-3.15 19.895 19.895 0 0 0 6.452-10.87c-2.635 1.147-5.038.444-7.878.924-3.717.628-6.897 3.032-9.536 5.723a11.48 11.48 0 0 0-1.008 1.191 86.335 86.335 0 0 1 11.988-1.858 45.187 45.187 0 0 1-5.13 8.04Zm-29.31-9.864c2.757-3.611 4.384-8 5.291-12.467-3.865 1.43-7.076 2.665-10.081 5.488-1.309 1.234-2.29 2.87-3.15 4.65 2.46-1.57 5-3.01 7.617-4.288.214-.105.48-.196.71-.196.18 0 .341.052.45.196.122.166.122.397.114.606a29.761 29.761 0 0 1-.951 6.011Zm-14.994-12.694a10.63 10.63 0 0 0 .663-5.16c-.174-1.453-.654-2.858-1.265-4.188a21.92 21.92 0 0 0-2.434-4c-.056 2.25-.654 4.48-1.775 6.43a80.99 80.99 0 0 1-7.551-6.382c.035.213.06.418.096.645.349 2.06.702 4.149 1.627 6.02 2.015 4.044 6.469 4.89 10.64 6.635Zm-30.427 16.943c3.52-3.664 5.632-8.641 5.794-13.71-2.125 1.095-3.477 1.3-5.602 2.395-2.176 1.116-4.388 2.264-6.116 3.995-1.239 1.24-2.18 2.731-3.075 4.245 3.376-1.98 7.084-3.39 10.945-4.07a28.261 28.261 0 0 1-1.946 7.145Zm-13.073-13.475c.684-4.301-.485-8.746-2.613-12.541-.877-1.566-1.924-3.032-3.063-4.424.419 2.696.72 5.418.868 8.149.022.336.01.742-.261.938a.577.577 0 0 1-.358.118c-.266 0-.558-.14-.798-.28a203.57 203.57 0 0 1-7.176-4.436c.104.297.2.589.314.873 1.627 3.978 4.323 7.677 8.144 9.645 1.492.772 3.294 1.614 4.943 1.958Z"/><path fill="#ff8831" fill-rule="evenodd" d="M49.164 403.162c2.609 0 5.095-.668 7.922-1.48 2.997-.859 5.61-2.987 7.058-5.744 1.448-2.762 1.706-6.125.707-9.074-.842-2.486-2.853-4.829-5.475-5.065 1.719-3.9.624-8.628-2.73-11.267-1.868-1.466-4.228-2.19-6.6-2.19-1.894 0-3.796.462-5.454 1.383-.501-2.875-3.742-4.777-6.726-4.777-.393 0-.777.03-1.152.096-3.25.576-5.832 3.254-7.08 6.312-1.243 3.054-1.348 6.448-1.165 9.737.153 2.783.498 5.588 1.562 8.153.995 2.408 2.578 4.528 4.362 6.43 2.984 3.176 6.648 5.832 10.858 6.962 1.366.367 2.652.524 3.913.524Z"/><path fill="#ffba31" fill-rule="evenodd" d="M45.16 399.45c3.498 0 6.997-1.336 9.666-4.01 5.344-5.34 5.344-13.998 0-19.333a13.628 13.628 0 0 0-9.666-4.005 13.63 13.63 0 0 0-9.672 4.005c-5.335 5.335-5.335 13.994 0 19.333a13.617 13.617 0 0 0 9.672 4.01Z"/><path fill="none" d="M46.084 380.779c4.463-6.884 5.017-16.132 1.414-23.5"/><path fill="none" stroke="#88ad25" stroke-linecap="round" stroke-linejoin="round" d="M46.084 380.779c4.463-6.884 5.017-16.132 1.414-23.5"/><path fill="none" d="M49.086 384.029a41.558 41.558 0 0 1 15.651-5.79c1.16-.178 2.382-.3 3.49.114.149-.152.293-.292.445-.436"/><path fill="none" stroke="#88ad25" stroke-linecap="round" stroke-linejoin="round" d="M49.086 384.029a41.558 41.558 0 0 1 15.651-5.79c1.16-.178 2.382-.3 3.49.114.149-.152.293-.292.445-.436"/><path fill="#ffba31" fill-rule="evenodd" d="M46.617 357.279a2.354 2.354 0 1 0-2.352-2.356 2.359 2.359 0 0 0 2.352 2.356Zm24.411 22.994c1.3 0 2.351-1.056 2.351-2.356a2.347 2.347 0 0 0-2.351-2.351 2.359 2.359 0 0 0-2.356 2.351 2.357 2.357 0 0 0 2.356 2.356Z"/><path fill="#e21c54" fill-rule="evenodd" d="M26.009 407.925c.074 0 .153-.004.231-.009 10.055-.767 20.115-1.53 30.17-2.298 2.779-.21 5.619-.445 8.144-1.623-4.454-3.08-7.756-6.627-11.961-10.042.86-2.112 1.81-4.315 1.941-6.596.135-2.277-.327-4.65-1.631-6.53-1.27-1.841-3.263-3.106-5.388-3.804a14.022 14.022 0 0 0-4.367-.694c-1.85 0-3.699.358-5.404 1.073-.223-.21-5.144-11.582-9.741-16.428a54.027 54.027 0 0 1-4.131 25.934c-1.846 4.297-4.31 8.781-3.407 13.37.602 3.036 2.512 7.647 5.544 7.647Z"/><path fill="#e21c54" fill-rule="evenodd" d="M21.734 404.139a95.363 95.363 0 0 0 15.992-26.759c-.366-.567-5.2-11.638-9.723-16.406a54.027 54.027 0 0 1-4.131 25.934c-1.846 4.297-4.32 8.781-3.407 13.37.23 1.17.658 2.57 1.269 3.86Zm4.271 3.786c.078 0 .157-.004.235-.009 10.055-.763 20.115-1.53 30.17-2.298 2.779-.219 5.619-.45 8.144-1.623-4.362-3.019-7.625-6.478-11.712-9.837A150.924 150.924 0 0 0 24.39 407.45a3.07 3.07 0 0 0 1.614.475Z"/><path fill="#ffba31" fill-rule="evenodd" d="M22.493 390.027a14.655 14.655 0 0 0 4.99-2.988c.873-.816 1.658-1.745 2.217-2.801 1.413-2.718 1.177-6.072-.01-8.882-.496-1.178-1.142-2.277-1.88-3.32-.601 5.113-1.91 10.143-3.938 14.876-.441 1.02-.917 2.063-1.379 3.115Zm14.505 17.065c6.281-.475 12.559-.955 18.84-1.44-1.457-2.15-3.982-3.55-6.595-3.834a11.38 11.38 0 0 0-1.165-.061c-2.705 0-5.388.999-7.665 2.495-1.239.82-2.364 1.793-3.415 2.84Zm-5.458-8.144c2.657-1.23 5.327-2.465 7.74-4.114 2.42-1.64 4.593-3.739 5.932-6.338.423-.834.768-1.741.759-2.67-.018-.934-.445-1.907-1.256-2.373a2.39 2.39 0 0 0-1.174-.293c-.458 0-.93.114-1.348.301-.803.363-1.448.965-2.072 1.584a32.805 32.805 0 0 0-3.69 4.436c-2.208 3.194-2.84 6.164-4.89 9.467Z"/><path fill="#e21c54" fill-rule="evenodd" d="M26.013 407.92c.079 0 .153-.004.232-.008 6.033-.458 12.07-.92 18.099-1.383a109.437 109.437 0 0 1-8.01-1.718 44.466 44.466 0 0 1 10.946-8.315l-18.998 4.223a88.777 88.777 0 0 1 5.959-15.207c-2.74 4.113-5.706 8.419-10.195 10.478.833-4.62 1.27-9.244 1.584-13.88a57.117 57.117 0 0 1-1.75 4.793c-1.85 4.297-4.318 8.777-3.411 13.366.602 3.04 2.513 7.652 5.544 7.652Z"/><path fill="#3faf72" fill-rule="evenodd" d="M26.28 409.378c1.483 0 2.896-.34 3.991-1.379a41.826 41.826 0 0 0-10.312-10.316c-.467 1.474-1.056 2.412-1.235 3.943-.227 1.92-.157 4.053 1.086 5.536 1 1.19 2.574 1.723 4.105 1.985.781.135 1.584.23 2.364.23Z"/><path fill="none" d="M19.893 407.899c-8.973 9.828-18.051 19.814-24.11 31.666-6.064 11.848-8.825 26-4.52 38.593 2.6 7.6 7.59 14.165 13.188 19.918 15.86 16.311 37.393 26.999 59.977 29.773 16.52 2.033 33.236-.044 49.822-1.405 13.209-1.077 26.479-1.692 39.696-.794 7.892.528 15.866 1.636 23.107 4.825 7.242 3.185 13.733 8.677 16.726 16.005 2.996 7.32 1.88 16.525-3.804 22.021-5.689 5.501-15.98 5.902-21.25 0-2.276-2.556-3.45-6.107-2.29-9.326 1.17-3.22 4.41-5.588 7.835-5.667 3.43-.083 6.801 2.172 7.988 5.374.514 1.396.615 3.045-.17 4.297-.424.685-1.082 1.2-1.789 1.58-1.256.676-2.761.937-4.131.562-1.374-.38-2.574-1.457-2.936-2.83"/><path fill="none" stroke="#3faf72" stroke-linecap="round" stroke-linejoin="round" d="M19.893 407.899c-8.973 9.828-18.051 19.814-24.11 31.666-6.064 11.848-8.825 26-4.52 38.593 2.6 7.6 7.59 14.165 13.188 19.918 15.86 16.311 37.393 26.999 59.977 29.773 16.52 2.033 33.236-.044 49.822-1.405 13.209-1.077 26.479-1.692 39.696-.794 7.892.528 15.866 1.636 23.107 4.825 7.242 3.185 13.733 8.677 16.726 16.005 2.996 7.32 1.88 16.525-3.804 22.021-5.689 5.501-15.98 5.902-21.25 0-2.276-2.556-3.45-6.107-2.29-9.326 1.17-3.22 4.41-5.588 7.835-5.667 3.43-.083 6.801 2.172 7.988 5.374.514 1.396.615 3.045-.17 4.297-.424.685-1.082 1.2-1.789 1.58-1.256.676-2.761.937-4.131.562-1.374-.38-2.574-1.457-2.936-2.83"/><path fill="none" d="M-4.745 440.856c2.7-6.216 4.105-12.917 5.143-19.613 1.182-7.651 1.898-15.46.803-23.115-1.09-7.665-4.127-15.23-9.589-20.708-5.466-5.488-13.553-8.598-21.135-7.045-9.139 1.871-16.154 10.556-16.93 19.852-.558 6.692 2.015 13.785 7.337 17.881 5.322 4.097 13.401 4.603 18.736.51 5.327-4.087 6.74-12.741 2.382-17.854-1.989-2.343-5.038-3.826-8.105-3.656-3.067.17-6.042 2.112-7.176 4.969-.816 2.055-.55 4.672 1.139 6.094 1.692 1.418 4.811.868 5.466-1.234"/><path fill="none" stroke="#3faf72" stroke-linecap="round" stroke-linejoin="round" d="M-4.745 440.856c2.7-6.216 4.105-12.917 5.143-19.613 1.182-7.651 1.898-15.46.803-23.115-1.09-7.665-4.127-15.23-9.589-20.708-5.466-5.488-13.553-8.598-21.135-7.045-9.139 1.871-16.154 10.556-16.93 19.852-.558 6.692 2.015 13.785 7.337 17.881 5.322 4.097 13.401 4.603 18.736.51 5.327-4.087 6.74-12.741 2.382-17.854-1.989-2.343-5.038-3.826-8.105-3.656-3.067.17-6.042 2.112-7.176 4.969-.816 2.055-.55 4.672 1.139 6.094 1.692 1.418 4.811.868 5.466-1.234"/><path fill="none" d="M-9.762 454.231c2.312-5.383 7.438-11.124 12.677-13.75 5.24-2.626 11.63-3.054 17.013-.733 5.383 2.317 9.545 7.49 10.238 13.305.31 2.604-.074 5.361-1.5 7.556-1.422 2.194-3.992 3.725-6.605 3.516-2.609-.21-5.034-2.417-5.121-5.03-.04-1.239.453-2.526 1.448-3.259.995-.741 2.495-.794 3.438.009"/><path fill="none" stroke="#3faf72" stroke-linecap="round" stroke-linejoin="round" d="M-9.762 454.231c2.312-5.383 7.438-11.124 12.677-13.75 5.24-2.626 11.63-3.054 17.013-.733 5.383 2.317 9.545 7.49 10.238 13.305.31 2.604-.074 5.361-1.5 7.556-1.422 2.194-3.992 3.725-6.605 3.516-2.609-.21-5.034-2.417-5.121-5.03-.04-1.239.453-2.526 1.448-3.259.995-.741 2.495-.794 3.438.009"/><path fill="#191919" fill-opacity=".14" fill-rule="evenodd" d="M-27.782 544.016c1.823-1.475 2.752-3.77 3.555-5.985 1.649-4.585 3.075-9.283 3.533-14.125.018-.201.022-.406.04-.607a44.544 44.544 0 0 1-6.553 8.193 246.427 246.427 0 0 1-2.678-10.68 28.653 28.653 0 0 0-.715 4.677c-.384 5.841 1.409 12.847 2.818 18.527Z"/><path fill="#88ad25" fill-rule="evenodd" d="M905.19 31.41c-2.661 3.297-4.162 7.516-4.166 11.752a18.874 18.874 0 0 0 4.135 11.765c3.15-6.854 3.202-16.669.03-23.517Z"/><path fill="#ff8831" fill-rule="evenodd" d="M925.99 56.872c-3.691 1.994-7.007 4.773-9.288 8.293-2.282 3.52-3.477 7.813-2.936 11.974 2.325-1.592 4.41-2.996 6.43-4.95 1.618-1.567 3.163-3.299 3.978-5.393 1.087-2.796.559-7.21 1.815-9.924Z"/><path fill="#ffba31" fill-rule="evenodd" d="M921.801 28.155c-4.589 0-8.61 2.967-10.822 7.28.88.699 2.058.834 3.175.93 1.527.13 3.063.231 4.598.231 1.575 0 3.14-.109 4.69-.405 3.154-.616 6.094-2.003 9.003-3.381-2.791-2.282-4.816-3.643-8.336-4.402-.78-.17-1.553-.253-2.308-.253Z"/><path fill="#e21c54" fill-rule="evenodd" d="M931.04 48.828c-2.665 0-5.395.742-8.017 1.91 2.15 2.6 5.265 4.189 8.345 5.558 2.312 1.021 4.676 1.972 7.171 2.343a16.158 16.158 0 0 0 6.722-.41c-2.246-3.15-4.226-5.405-7.498-7.49-2.111-1.344-4.393-1.91-6.722-1.91Z"/><path fill="#3faf72" fill-rule="evenodd" d="M929.601 72.284c.528 9.253 6.95 17.903 15.66 21.096-2.486-3.804-2.132-8.24-4.663-12-2.551-3.787-7.14-6.653-10.997-9.096Z"/><path fill="#ffba31" fill-rule="evenodd" d="M924.654 91.26c-.31 3.608-.152 7.342 1.24 10.688 1.395 3.341 4.183 6.242 7.707 7.075-.606-2.5-.876-5.374-1.483-7.87-.27-1.103-.532-2.21-.973-3.253-1.295-3.076-3.869-4.576-6.49-6.64Z"/><path fill="#fff" fill-opacity=".14" fill-rule="evenodd" d="M905.185 31.41c-.14.178-.257.362-.392.54-.881 3.56-.947 7.386-.873 11.094.079 3.773.27 7.577.816 11.311.148.188.275.388.423.572 3.15-6.854 3.202-16.677.026-23.517Zm20.372 26.705a109.652 109.652 0 0 0-11.87 17.969c.022.353.035.702.079 1.055 2.325-1.592 4.41-2.996 6.43-4.95 1.618-1.567 3.163-3.299 3.978-5.393.93-2.399.677-5.993 1.383-8.68Zm1.165-25.628c-4.567 0-9.13.641-13.51 1.928-.785.227-1.58.52-2.186 1.047.873.672 2.025.807 3.124.903 1.535.13 3.08.236 4.624.236 1.566 0 3.123-.11 4.659-.41 3.145-.611 6.085-1.994 8.982-3.372a48.68 48.68 0 0 0-5.693-.332Zm-.659 18.71c-.833 0-1.662.048-2.486.148 2.107 2.242 4.96 3.695 7.79 4.956 2.313 1.02 4.677 1.972 7.172 2.347.786.122 1.58.179 2.378.179 1.466 0 2.931-.201 4.345-.594a40.19 40.19 0 0 1-.436-.593 101.278 101.278 0 0 1-6.993-3.036c-1.65-.798-3.276-1.645-5-2.255a20.222 20.222 0 0 0-6.77-1.152Zm3.534 21.087c.523 9.07 6.7 17.541 15.137 20.887a20.898 20.898 0 0 1-3.311-3.573c-2.273-3.088-3.882-6.617-5.867-9.911-1.431-2.377-3.08-4.615-4.886-6.722-.362-.231-.724-.463-1.073-.68Zm-4.969 19.277c-.27 3.516-.087 7.133 1.265 10.378 1.374 3.294 4.11 6.16 7.56 7.032-1.867-1.972-3.328-4.436-4.458-6.927-1.562-3.442-2.7-7.093-4.367-10.483Z"/><path fill="#191919" fill-opacity=".14" fill-rule="evenodd" d="M905.185 31.41a18.901 18.901 0 0 0-4.161 11.752c0 .536.022 1.077.065 1.605.772-2.16 1.885-4.197 3.333-5.976 1.016 2.072 2.046 4.144 3.062 6.216.28-4.764-.475-9.667-2.299-13.597Zm20.805 25.462c-3.691 1.994-7.007 4.768-9.293 8.284a19.432 19.432 0 0 0-1.867 3.708 136.296 136.296 0 0 1 7.783-3.9c-.018 1.61-.1 3.215-.21 4.825.725-.92 1.344-1.906 1.771-2.993 1.087-2.791.554-7.21 1.815-9.924Zm-5.493-28.625c-4.04.497-7.525 3.28-9.523 7.189.881.694 2.06.833 3.176.93 1.527.13 3.07.235 4.606.235.82 0 1.64-.03 2.456-.1a56.701 56.701 0 0 1-4.563-2.391c-.17-.1-.357-.218-.423-.41-.087-.236.044-.484.175-.698a19.696 19.696 0 0 1 4.096-4.755Zm10.548 20.59c-2.67 0-5.4.746-8.022 1.915 2.15 2.6 5.265 4.188 8.345 5.553 1.239.55 2.49 1.065 3.773 1.492a69.935 69.935 0 0 0-3.747-4.956 25.88 25.88 0 0 1 6.308-.772c.672 0 1.348.027 2.02.074a23.48 23.48 0 0 0-1.959-1.391c-2.111-1.348-4.393-1.915-6.718-1.915Zm-1.444 23.447c.292 5.148 2.412 10.103 5.732 14.042a33.996 33.996 0 0 1-.392-6.207 54.36 54.36 0 0 1 6.765 3.333 12.204 12.204 0 0 0-1.108-2.072c-2.551-3.787-7.14-6.653-10.997-9.096Zm-4.947 18.967c-.31 3.612-.152 7.347 1.24 10.688.274.663.623 1.296.998 1.91-.087-1.945.07-3.908.532-5.801 1.662 1.522 3.329 3.05 5 4.572-.1-.498-.192-.995-.306-1.47-.27-1.104-.532-2.212-.973-3.255-1.295-3.07-3.869-4.576-6.49-6.644Z"/><path fill="#88ad25" fill-rule="evenodd" d="M871.548-8.71c-1.902 0-3.765.667-5.562 1.339-2.91 1.095-5.907 2.299-8.01 4.585-2.905 3.145-3.559 7.686-4.078 11.93 6.64-1.343 15.115-4.755 18.178-17.837a7.171 7.171 0 0 0-.528-.018Z"/><path fill="#ffba31" fill-rule="evenodd" d="M875.626 14.318c-3.415 4.493-4.091 10.718-2.504 16.145 1.584 5.427 5.227 10.081 9.576 13.684-.454-5.252-1.257-12.306-1.71-17.562-.127-1.44-.249-2.888-.628-4.275-.838-3.067-2.78-5.501-4.734-7.992Z"/><path fill="#ff8831" fill-rule="evenodd" d="M905.97 4.385c-3.851 0-7.708 1.108-10.927 3.224-1.505.99-2.91 2.229-3.712 3.847-1.165 2.339-.934 5.13-1.806 7.59 6.696-.994 15.255-5.675 21.994-13.863a19.42 19.42 0 0 0-5.548-.798Z"/><path fill="#fff" fill-opacity=".14" fill-rule="evenodd" d="M871.927-8.178c-.392.27-.79.532-1.178.82-6.338 4.593-11.682 10.365-16.825 16.289-.013.074-.017.144-.026.218 6.548-1.335 14.87-4.685 18.03-17.327Zm3.699 22.496c-.209.27-.4.545-.588.825a73.292 73.292 0 0 0 6.006 27.543c.537.506 1.087.99 1.654 1.461-.454-5.252-1.257-12.306-1.71-17.562-.127-1.44-.249-2.888-.628-4.275-.838-3.067-2.78-5.501-4.734-7.992Zm34.925-9.388c-2.517.707-4.977 1.601-7.333 2.722-5.248 2.5-9.98 6.151-13.497 10.754-.065.213-.122.436-.196.645 6.696-.999 15.255-5.68 21.994-13.863a16.49 16.49 0 0 0-.968-.258Z"/><path fill="#191919" fill-opacity=".14" fill-rule="evenodd" d="M860.459-4.806c-.903.576-1.754 1.23-2.482 2.024-2.897 3.14-3.556 7.69-4.08 11.93 5.589-1.138 12.46-3.755 16.329-12.34a29.238 29.238 0 0 1-11.861 6.177 25.53 25.53 0 0 1 2.094-7.791Zm15.163 19.116c-3.119 4.109-3.948 9.653-2.862 14.709.489-2.622 1.519-5.139 3.058-7.316 1.776 2.22 3.551 4.454 5.331 6.68-.06-.616-.113-1.227-.166-1.803-.126-1.44-.248-2.887-.628-4.275-.837-3.066-2.779-5.5-4.733-7.996Zm21.192-7.73c-.61.313-1.2.658-1.771 1.029-1.505.994-2.91 2.238-3.712 3.847-1.165 2.334-.93 5.126-1.806 7.586 4.419-.654 9.645-2.927 14.635-6.74a32.485 32.485 0 0 1-8.724 1.226c-.057-2.381.44-4.754 1.378-6.949Z"/><path fill="#ffba31" fill-rule="evenodd" d="M743.964 7.993c-2.618 8.816.632 19.072 7.847 24.773 1.047-4.698 1.056-9.052.332-13.81-.384-2.466-1.012-4.948-2.32-7.08-1.305-2.134-3.416-3.347-5.86-3.883Z"/><path fill="#ff8831" fill-rule="evenodd" d="M753.91-12.44c-.354 0-.703.008-1.047.03-4.284.24-8.472 1.933-11.726 4.72-3.254 2.797-5.562 6.675-6.452 10.871 2.635-1.147 5.047-.454 7.878-.925 3.717-.632 6.897-3.032 9.532-5.723 2.644-2.687 3.075-5.907 5.92-8.371-1.318-.432-2.714-.602-4.105-.602Z"/><path fill="#e21c54" fill-rule="evenodd" d="M788.119-8.287c-4.76.34-9.161 3.075-12.162 6.783-3.01 3.712-4.742 8.315-5.689 12.995 3.87-1.435 7.076-2.665 10.086-5.488 3.69-3.472 4.798-10.172 7.765-14.29Z"/><path fill="#88ad25" fill-rule="evenodd" d="M790.553 11.718a10.631 10.631 0 0 0-.663 5.16c.174 1.453.654 2.858 1.265 4.189 2.43 5.265 7.071 9.466 12.55 11.363-.545-3.289-.336-4.763-.885-8.057-.35-2.059-.703-4.148-1.627-6.02-2.016-4.044-6.47-4.89-10.64-6.635Z"/><path fill="#3faf72" fill-rule="evenodd" d="M834.721-11.546c-5.108.292-10.081 2.56-13.654 6.225-3.572 3.664-5.71 8.69-5.876 13.802 2.12-1.09 3.473-1.295 5.601-2.395 2.177-1.116 4.393-2.264 6.12-4 1.388-1.378 2.409-3.075 3.39-4.763 1.68-2.888 2.853-5.903 4.42-8.869Z"/><path fill="#e21c54" fill-rule="evenodd" d="M834.054 8.241c-.685 4.302.484 8.751 2.613 12.546 2.124 3.796 5.16 7.002 8.384 9.929 1.387 1.26 3.001 2.543 4.864 2.543h.118c-.65-4.253-1.287-9.422-2.892-13.414-1.627-3.978-4.323-7.673-8.145-9.645-1.492-.768-3.293-1.61-4.942-1.959Z"/><path fill="#fff" fill-opacity=".14" fill-rule="evenodd" d="M743.964 8.001c-.066.205-.105.415-.162.62a182.608 182.608 0 0 0 8.337 22.496c.706-4.083.65-7.97.004-12.162-.384-2.465-1.012-4.947-2.32-7.08-1.305-2.129-3.425-3.341-5.86-3.874Zm12.816-20.162c-.227.1-.454.2-.667.305a82.317 82.317 0 0 0-21.332 14.68c-.03.122-.065.244-.092.361 2.64-1.147 5.043-.444 7.879-.924 3.72-.633 6.892-3.037 9.536-5.724 2.635-2.691 3.066-5.91 5.915-8.375a10.78 10.78 0 0 0-1.239-.323Zm31.334 3.869c-.24.013-.47.07-.71.096a72.457 72.457 0 0 0-5.794 6.177c-3.555 4.297-6.657 9.048-10.395 13.153 3.45-1.287 6.378-2.544 9.13-5.13 3.7-3.473 4.807-10.173 7.77-14.296Zm2.714 20.124c.262.623.571 1.243.89 1.836a165.068 165.068 0 0 0 11.494 18.562c.166.065.323.144.493.2-.545-3.285-.336-4.763-.885-8.052-.35-2.06-.703-4.15-1.627-6.02-1.98-3.961-6.282-4.86-10.365-6.526Zm43.457-22.51a90.333 90.333 0 0 0-19.072 19.155c2.103-1.086 3.46-1.291 5.57-2.386 2.182-1.117 4.394-2.264 6.125-3.996 1.383-1.379 2.404-3.076 3.39-4.768 1.522-2.613 2.635-5.318 3.987-8.005Zm-.1 18.968a161.238 161.238 0 0 0 15.145 24.92 3.9 3.9 0 0 0 .554.04h.148c-.65-4.254-1.287-9.414-2.901-13.397-1.627-3.979-4.323-7.678-8.144-9.645-1.453-.75-3.194-1.558-4.803-1.92Z"/><path fill="#191919" fill-opacity=".14" fill-rule="evenodd" d="M743.964 7.993c-1.414 4.737-1.104 9.88.584 14.504a24.887 24.887 0 0 1 2.06-6.19c2.01 3.093 4.017 6.186 6.032 9.283a40.346 40.346 0 0 0-.497-6.635c-.375-2.465-1.012-4.947-2.32-7.08-1.305-2.129-3.416-3.346-5.86-3.882Zm2.286-18.833a19.776 19.776 0 0 0-5.113 3.15c-3.254 2.797-5.562 6.675-6.452 10.871 2.635-1.147 5.039-.445 7.878-.925 3.717-.628 6.897-3.032 9.536-5.723a11.49 11.49 0 0 0 1.008-1.191A86.346 86.346 0 0 1 741.12-2.8a45.188 45.188 0 0 1 5.13-8.04Zm29.31 9.864c-2.757 3.612-4.384 8-5.292 12.467 3.865-1.43 7.076-2.665 10.082-5.488 1.308-1.234 2.29-2.87 3.15-4.65-2.461 1.57-5 3.01-7.617 4.288-.214.105-.48.197-.711.197-.18 0-.34-.053-.45-.197-.122-.165-.122-.397-.113-.606a29.83 29.83 0 0 1 .95-6.011Zm14.993 12.694a10.631 10.631 0 0 0-.663 5.16c.174 1.453.654 2.858 1.265 4.189a21.921 21.921 0 0 0 2.434 4c.057-2.251.654-4.48 1.776-6.43a80.976 80.976 0 0 1 7.55 6.382c-.034-.214-.06-.419-.095-.646-.35-2.059-.703-4.148-1.627-6.02-2.016-4.044-6.47-4.89-10.64-6.635ZM820.98-5.225c-3.52 3.664-5.632 8.642-5.793 13.71 2.124-1.094 3.477-1.3 5.601-2.394 2.177-1.117 4.389-2.264 6.116-3.996 1.239-1.239 2.181-2.73 3.075-4.245-3.376 1.98-7.084 3.39-10.945 4.07.328-2.451.99-4.86 1.946-7.145ZM834.054 8.25c-.685 4.301.484 8.747 2.613 12.542.877 1.566 1.924 3.031 3.062 4.423a82.161 82.161 0 0 1-.868-8.149c-.022-.336-.009-.741.262-.938a.577.577 0 0 1 .357-.117c.267 0 .559.14.799.279a203.517 203.517 0 0 1 7.176 4.436c-.105-.296-.2-.589-.314-.872-1.627-3.979-4.323-7.678-8.145-9.645-1.492-.772-3.293-1.614-4.942-1.959Z"/><path fill="#ff8831" fill-rule="evenodd" d="M868.821 133.265c-2.608 0-5.095.667-7.922 1.479-2.997.859-5.61 2.988-7.058 5.745-1.448 2.761-1.706 6.124-.707 9.073.842 2.487 2.853 4.83 5.475 5.065-1.719 3.9-.624 8.629 2.73 11.268 1.868 1.465 4.228 2.19 6.601 2.19 1.893 0 3.795-.463 5.453-1.383.502 2.874 3.743 4.776 6.727 4.776.392 0 .776-.03 1.151-.096 3.25-.575 5.833-3.254 7.08-6.312 1.244-3.053 1.348-6.447 1.165-9.736-.153-2.784-.497-5.589-1.562-8.154-.994-2.408-2.578-4.528-4.362-6.43-2.984-3.175-6.648-5.832-10.858-6.962a14.926 14.926 0 0 0-3.913-.523Z"/><path fill="#ffba31" fill-rule="evenodd" d="M872.826 136.977a13.615 13.615 0 0 0-9.667 4.009c-5.344 5.34-5.344 13.999 0 19.334a13.628 13.628 0 0 0 9.667 4.004 13.63 13.63 0 0 0 9.671-4.004c5.335-5.335 5.335-13.995 0-19.334a13.617 13.617 0 0 0-9.671-4.009Z"/><path fill="none" d="M871.901 155.648c-4.463 6.883-5.017 16.131-1.413 23.5"/><path fill="none" stroke="#88ad25" stroke-linecap="round" stroke-linejoin="round" d="M871.901 155.648c-4.463 6.883-5.017 16.131-1.413 23.5"/><path fill="none" d="M868.9 152.398a41.558 41.558 0 0 1-15.652 5.789c-1.16.178-2.382.3-3.49-.114-.148.153-.292.292-.445.436"/><path fill="none" stroke="#88ad25" stroke-linecap="round" stroke-linejoin="round" d="M868.9 152.398a41.558 41.558 0 0 1-15.652 5.789c-1.16.178-2.382.3-3.49-.114-.148.153-.292.292-.445.436"/><path fill="#ffba31" fill-rule="evenodd" d="M871.369 179.147a2.354 2.354 0 1 0 2.351 2.356 2.359 2.359 0 0 0-2.351-2.356Zm-24.412-22.993a2.353 2.353 0 0 0-2.35 2.355 2.347 2.347 0 0 0 2.35 2.352 2.359 2.359 0 0 0 2.356-2.352 2.357 2.357 0 0 0-2.356-2.355Z"/><path fill="#e21c54" fill-rule="evenodd" d="M891.976 128.501a3.65 3.65 0 0 0-.23.009c-10.056.768-20.115 1.531-30.17 2.299-2.78.21-5.62.445-8.145 1.623 4.454 3.08 7.756 6.626 11.962 10.042-.86 2.11-1.81 4.314-1.942 6.595-.135 2.277.327 4.65 1.632 6.53 1.27 1.842 3.263 3.107 5.387 3.805a14.04 14.04 0 0 0 4.367.693c1.85 0 3.7-.357 5.405-1.073.222.21 5.143 11.582 9.74 16.429a54.027 54.027 0 0 1 4.132-25.934c1.845-4.297 4.31-8.782 3.407-13.37-.602-3.037-2.513-7.648-5.545-7.648Z"/><path fill="#e21c54" fill-rule="evenodd" d="M896.251 132.288a95.362 95.362 0 0 0-15.992 26.758c.367.567 5.2 11.639 9.724 16.407a54.027 54.027 0 0 1 4.13-25.934c1.846-4.297 4.32-8.782 3.408-13.37a17.106 17.106 0 0 0-1.27-3.861Zm-4.271-3.787a3.72 3.72 0 0 0-.235.009 62158.55 62158.55 0 0 0-30.17 2.299c-2.778.218-5.618.45-8.144 1.623 4.362 3.018 7.625 6.478 11.713 9.837a150.925 150.925 0 0 0 28.45-13.292 3.07 3.07 0 0 0-1.613-.476Z"/><path fill="#ffba31" fill-rule="evenodd" d="M895.492 146.4a14.655 14.655 0 0 0-4.99 2.988c-.873.816-1.658 1.745-2.216 2.8-1.414 2.718-1.178 6.073.009 8.882.497 1.178 1.143 2.277 1.88 3.32.602-5.113 1.91-10.143 3.939-14.876.44-1.02.916-2.063 1.378-3.114Zm-14.504-17.066c-6.282.476-12.56.956-18.841 1.44 1.457 2.15 3.983 3.55 6.596 3.834.388.04.776.061 1.164.061 2.705 0 5.388-.999 7.665-2.495 1.239-.82 2.364-1.793 3.416-2.84Zm5.457 8.145c-2.657 1.23-5.326 2.464-7.739 4.113-2.42 1.64-4.593 3.739-5.933 6.339-.423.833-.767 1.74-.759 2.67.018.933.445 1.906 1.257 2.373.358.2.763.292 1.173.292.458 0 .93-.114 1.348-.301.803-.362 1.448-.964 2.072-1.584a32.804 32.804 0 0 0 3.69-4.436c2.208-3.193 2.84-6.164 4.89-9.466Z"/><path fill="#e21c54" fill-rule="evenodd" d="M891.972 128.505c-.079 0-.153.005-.231.01-6.033.457-12.07.92-18.1 1.382 2.688.476 5.362 1.043 8.01 1.719a44.466 44.466 0 0 1-10.945 8.314l18.998-4.222a88.773 88.773 0 0 1-5.96 15.207c2.74-4.114 5.707-8.42 10.195-10.479-.833 4.62-1.27 9.244-1.583 13.881a57.094 57.094 0 0 1 1.75-4.794c1.849-4.297 4.318-8.777 3.41-13.366-.602-3.04-2.512-7.652-5.544-7.652Z"/><path fill="#3faf72" fill-rule="evenodd" d="M891.706 127.048c-1.483 0-2.897.34-3.992 1.379a41.827 41.827 0 0 0 10.313 10.317c.467-1.475 1.056-2.413 1.234-3.944.227-1.92.157-4.052-1.086-5.535-.999-1.191-2.574-1.724-4.105-1.985-.78-.136-1.583-.232-2.364-.232Z"/><path fill="none" d="M898.092 128.527c8.973-9.828 18.051-19.813 24.11-31.666 6.064-11.848 8.826-25.999 4.52-38.593-2.6-7.599-7.59-14.164-13.187-19.918-15.862-16.31-37.394-26.998-59.977-29.773-16.52-2.033-33.237.044-49.822 1.405-13.21 1.077-26.48 1.693-39.697.794-7.891-.528-15.866-1.636-23.107-4.825-7.242-3.184-13.733-8.676-16.725-16.005-2.997-7.32-1.88-16.524 3.804-22.021 5.688-5.5 15.979-5.902 21.248 0 2.278 2.556 3.451 6.107 2.29 9.327-1.168 3.219-4.41 5.588-7.834 5.666-3.429.083-6.8-2.172-7.987-5.374-.515-1.396-.615-3.045.17-4.297.423-.685 1.082-1.2 1.788-1.58 1.257-.675 2.762-.937 4.131-.562 1.375.38 2.574 1.457 2.936 2.831"/><path fill="none" stroke="#3faf72" stroke-linecap="round" stroke-linejoin="round" d="M898.092 128.527c8.973-9.828 18.051-19.813 24.11-31.666 6.064-11.848 8.826-25.999 4.52-38.593-2.6-7.599-7.59-14.164-13.187-19.918-15.862-16.31-37.394-26.998-59.977-29.773-16.52-2.033-33.237.044-49.822 1.405-13.21 1.077-26.48 1.693-39.697.794-7.891-.528-15.866-1.636-23.107-4.825-7.242-3.184-13.733-8.676-16.725-16.005-2.997-7.32-1.88-16.524 3.804-22.021 5.688-5.5 15.979-5.902 21.248 0 2.278 2.556 3.451 6.107 2.29 9.327-1.168 3.219-4.41 5.588-7.834 5.666-3.429.083-6.8-2.172-7.987-5.374-.515-1.396-.615-3.045.17-4.297.423-.685 1.082-1.2 1.788-1.58 1.257-.675 2.762-.937 4.131-.562 1.375.38 2.574 1.457 2.936 2.831"/><path fill="none" d="M922.73 95.57c-2.7 6.216-4.104 12.917-5.143 19.613-1.182 7.652-1.897 15.46-.802 23.116 1.09 7.664 4.126 15.229 9.588 20.708 5.466 5.487 13.554 8.598 21.135 7.045 9.14-1.872 16.154-10.557 16.93-19.853.559-6.692-2.015-13.785-7.337-17.881-5.322-4.096-13.4-4.602-18.736-.51-5.326 4.087-6.74 12.742-2.382 17.854 1.99 2.343 5.039 3.826 8.105 3.656 3.067-.17 6.042-2.111 7.176-4.969.816-2.054.55-4.672-1.138-6.094-1.693-1.418-4.812-.868-5.466 1.235"/><path fill="none" stroke="#3faf72" stroke-linecap="round" stroke-linejoin="round" d="M922.73 95.57c-2.7 6.216-4.104 12.917-5.143 19.613-1.182 7.652-1.897 15.46-.802 23.116 1.09 7.664 4.126 15.229 9.588 20.708 5.466 5.487 13.554 8.598 21.135 7.045 9.14-1.872 16.154-10.557 16.93-19.853.559-6.692-2.015-13.785-7.337-17.881-5.322-4.096-13.4-4.602-18.736-.51-5.326 4.087-6.74 12.742-2.382 17.854 1.99 2.343 5.039 3.826 8.105 3.656 3.067-.17 6.042-2.111 7.176-4.969.816-2.054.55-4.672-1.138-6.094-1.693-1.418-4.812-.868-5.466 1.235"/><path fill="none" d="M927.747 82.195c-2.312 5.383-7.438 11.124-12.677 13.75-5.239 2.626-11.63 3.054-17.013.733-5.383-2.316-9.544-7.49-10.238-13.305-.31-2.604.074-5.361 1.5-7.555 1.423-2.195 3.992-3.726 6.605-3.516 2.609.209 5.034 2.416 5.122 5.03.039 1.238-.454 2.525-1.449 3.258-.994.742-2.495.794-3.437-.009"/><path fill="none" stroke="#3faf72" stroke-linecap="round" stroke-linejoin="round" d="M927.747 82.195c-2.312 5.383-7.438 11.124-12.677 13.75-5.239 2.626-11.63 3.054-17.013.733-5.383-2.316-9.544-7.49-10.238-13.305-.31-2.604.074-5.361 1.5-7.555 1.423-2.195 3.992-3.726 6.605-3.516 2.609.209 5.034 2.416 5.122 5.03.039 1.238-.454 2.525-1.449 3.258-.994.742-2.495.794-3.437-.009"/><path fill="#191919" fill-opacity=".14" fill-rule="evenodd" d="M945.768-7.59c-1.824 1.475-2.753 3.77-3.555 5.986-1.65 4.584-3.076 9.283-3.534 14.125-.017.2-.022.405-.04.606a44.542 44.542 0 0 1 6.553-8.192 246.38 246.38 0 0 1 2.678 10.679c.376-1.566.611-3.154.716-4.677.384-5.84-1.41-12.847-2.818-18.526Z"/></svg>