<svg xmlns="http://www.w3.org/2000/svg" width="960" height="540"><g fill-rule="evenodd"><path fill="#302745" d="M0 0h960v540H0Z"/><path fill="#ffba31" d="M908.08 443.59c-3.86-9.563-1.692-20.828.864-30.538.832-3.146 2.88-9.485 5.927-11.111.593-.317 1.116-.455 1.576-.455 3.121 0 3.405 6.334 3.405 6.334 2.848-9.225-3.121-15.611-5.813-23.787-1.694-5.165 1.146-7.774 4.436-7.774 2.725 0 5.758 1.79 6.776 5.401-3.287-11.662-19.097-23.749-15.045-29.472 1.116-1.578 2.488-2.151 3.89-2.151 3.25 0 6.666 3.074 7.43 3.8-1.938-1.903-20.974-21.062-8.113-26.652 1.164-.505 2.262-.736 3.298-.736 9.812 0 13.971 20.733 14.76 25.237-.329-2.376-.766-8.865 4.304-8.865a7.52 7.52 0 0 1 1.6.186c8.139 1.752.694 28.296.692 28.303.002-.002 2.624-9.134 5.874-9.134.827 0 1.694.594 2.57 2.08 3.645 6.197-3.61 19.978-7.813 26.995 1.29-1.493 3.418-2.867 5.253-2.867 1.925 0 3.523 1.515 3.49 5.999-.072 9.636-21.921 19.836-21.921 19.838 1.604-.663 3.066-.957 4.313-.957 4.567 0 6.233 3.933 1.438 7.972-6.105 5.132-13.925 4.82-19.054 8.963-5.125 4.14-4.137 13.389-4.137 13.391Z"/><path fill="#ffba31" d="M907.333 441.486c-2.795-9.086-.759-19.426 1.611-28.434.827-3.149 2.88-9.485 5.927-11.116.59-.317 1.113-.455 1.576-.455 3.121 0 3.4 6.339 3.4 6.339 2.853-9.225-3.116-15.611-5.808-23.787-1.697-5.165 1.143-7.777 4.433-7.777 2.725 0 5.759 1.792 6.78 5.404-3.288-11.662-19.103-23.751-15.049-29.477 1.116-1.578 2.489-2.149 3.891-2.149 3.278 0 6.716 3.117 7.442 3.81-1.845-1.812-20.677-20.725-8.447-26.508 6.055 8.038 20.205 29.1 19.662 52.545-.674 28.899-26.473 41.109-25.418 61.605Z"/><path fill="#191919" fill-opacity=".14" d="M908.077 443.59c-3.01-7.462-2.35-15.965-.701-23.952.269.9.593 1.61.973 1.937a.417.417 0 0 0 .274.108c1.711 0 5.155-10.626 5.155-10.626l-.174 6.092s2.742-1.661 4.054-8.503c.345-1.82.038-4.34-.598-7.07 2.541.767 2.787 6.244 2.787 6.244 1.413-4.56.664-8.425-.776-12.158.885.865 1.696 1.468 2.337 1.619.093.02.181.033.264.033 2.737 0 .448-11.32.448-11.32 1.935 3.415 3.443 4.838 4.398 4.838 1.229 0 1.54-2.353.659-5.847-.292-1.14-1.147-2.76-2.353-4.637-1.066-2.978-2.868-5.974-4.871-8.87 2.833 2.509 5.391 4.386 6.718 4.386a1 1 0 0 0 .428-.085c3.177-1.496-6.028-18.016-6.028-18.016s6.942 7.487 7.852 7.487a.107.107 0 0 0 .06-.015c.604-.41 1.954-2.649-5.702-10.023a30.096 30.096 0 0 0-2.602-2.23c-2.146-2.201-7.205-7.71-9.915-13.217 4.13 4.323 9.179 9.194 11.185 9.194a.917.917 0 0 0 .168-.013c3.061-.48-1.762-10.712-2.727-12.695.885 1.777 5.142 10.071 7.606 10.071.24 0 .462-.08.666-.251 1.39-1.19.394-5.882-.651-9.777 2.676 6.037 4.044 13.037 4.46 15.41-.127-.908-.27-2.424-.112-3.957.432 3.471.68 6.19 1.023 6.583.08.088.17.13.271.13 1.134 0 3.469-5.255 3.469-5.255s-2.856 19.74-.57 20.833c.054.028.115.04.178.04 1.08 0 2.865-4.101 4.504-8.618-.915 5.386-2.164 9.848-2.167 9.85.003-.002 2.626-9.126 5.876-9.126.093 0 .189.008.284.023-3.47 5.32-9.3 17.674-8.935 19.473.045.222.141.322.274.322 1.257 0 5.982-8.978 5.982-8.978s-5.449 13.515-3.182 13.515c.063 0 .13-.01.206-.03 1.498-.42 5.153-6.925 8.209-12.972-1.586 6.2-5.442 13.298-8.086 17.72 1.292-1.496 3.419-2.873 5.258-2.873.377 0 .742.057 1.086.186-2.858 2.143-13.16 9.975-13.841 11.767-.1.267-.005.382.236.382 1.662 0 10.202-5.39 10.202-5.39s-12.56 11.297-14.168 12.832c-.638.609-.477 1.059.523 1.059 1.513 0 4.946-1.028 10.435-4.09 3.71-2.068 6.701-5.954 8.946-9.832-1.36 9.357-21.852 18.92-21.852 18.923 1.601-.66 3.059-.952 4.303-.952.679 0 1.294.085 1.837.248-4.627 1.307-10.34 3.474-11.647 4.773-.892.885-.266 1.139.754 1.139 1.395 0 3.53-.475 3.53-.475s-8.35 3.416-9.64 6.718c-.424 1.096 1.056 1.508 3.212 1.579-2.066.736-3.998 1.608-5.652 2.943-5.125 4.144-4.14 13.394-4.14 13.396Z"/><path fill="#191919" fill-opacity=".14" d="M919.385 364.893c-.538 0-1.33-.452-2.013-1.199-.907-.99-1.272-2.128-.822-2.54a.63.63 0 0 1 .432-.146c.54 0 1.333.452 2.016 1.203.905.988 1.275 2.127.82 2.534a.615.615 0 0 1-.433.148Zm-4.232-5.245c-.423 0-1.046-.407-1.556-1.063-.638-.825-.857-1.73-.48-2.026a.469.469 0 0 1 .291-.09c.423 0 1.043.41 1.554 1.068.638.821.857 1.729.48 2.02a.447.447 0 0 1-.29.09Zm4.77 31.941c-.545 0-1.304-.709-1.817-1.75-.59-1.203-.628-2.397-.08-2.664a.531.531 0 0 1 .24-.055c.549 0 1.305.709 1.818 1.747.59 1.204.631 2.4.08 2.67a.555.555 0 0 1-.24.052Zm-2.669-6.23c-.432 0-1.003-.607-1.35-1.474-.384-.97-.341-1.905.1-2.08a.4.4 0 0 1 .157-.03c.432 0 1 .607 1.342 1.48.384.967.347 1.902-.096 2.076a.448.448 0 0 1-.153.027Zm20.603-26.553c-.018 0-.038-.003-.058-.005-.467-.06-.734-.958-.59-1.999.143-.992.608-1.761 1.06-1.761.02 0 .038.002.058.005.47.065.734.957.588 1.998-.14.993-.603 1.762-1.058 1.762Zm.875-5.668h-.033c-.603-.038-1.03-1.154-.95-2.49.08-1.32.62-2.358 1.214-2.358h.033c.608.035 1.03 1.148.952 2.488-.083 1.314-.618 2.36-1.216 2.36Zm3.948 24.599a.38.38 0 0 1-.128-.02c-.452-.15-.55-1.076-.216-2.076.302-.897.85-1.546 1.287-1.546a.37.37 0 0 1 .128.02c.447.154.545 1.084.216 2.076-.299.9-.85 1.546-1.287 1.546Zm1.908-5.411a.536.536 0 0 1-.126-.015c-.588-.149-.801-1.322-.48-2.622.302-1.214.965-2.111 1.533-2.111.043 0 .083.005.124.015.588.15.804 1.327.482 2.627-.301 1.214-.962 2.106-1.533 2.106Zm-6.796 31.134a.502.502 0 0 1-.372-.133c-.34-.34-.005-1.207.741-1.95.543-.536 1.156-.855 1.576-.855a.51.51 0 0 1 .375.133c.334.34.002 1.206-.74 1.948-.545.538-1.16.857-1.58.857Zm4.187-3.959a.615.615 0 0 1-.412-.138c-.46-.397-.126-1.54.751-2.556.671-.78 1.463-1.26 2.006-1.26.166 0 .307.046.415.142.462.394.12 1.535-.752 2.556-.673.779-1.468 1.256-2.008 1.256Zm-21.447 25.479c-.33 0-.576-.095-.676-.289-.22-.422.359-1.156 1.291-1.636.506-.261 1.013-.397 1.403-.397.327 0 .575.093.673.284.222.425-.356 1.159-1.291 1.641-.503.262-1.008.397-1.4.397Zm5.2-2.528c-.345 0-.608-.098-.734-.304-.324-.515.342-1.508 1.48-2.215.686-.427 1.39-.656 1.91-.656.345 0 .609.101.737.31.32.515-.35 1.508-1.483 2.214-.686.425-1.39.65-1.91.65Zm-9.906-80.188c-.548 0-1.304-.71-1.822-1.749-.588-1.204-.626-2.398-.08-2.664a.534.534 0 0 1 .243-.055c.548 0 1.305.708 1.815 1.746.59 1.204.628 2.396.083 2.67a.545.545 0 0 1-.239.052Zm-2.671-6.23c-.433 0-1.003-.608-1.353-1.473-.384-.973-.341-1.908.1-2.081a.404.404 0 0 1 .154-.028c.435 0 1.003.606 1.35 1.478.384.968.344 1.898-.098 2.076a.395.395 0 0 1-.153.028Zm-2.748 79.694a.503.503 0 0 1-.135-.017c-.583-.159-.777-1.335-.435-2.63.322-1.2.995-2.08 1.56-2.08a.56.56 0 0 1 .131.015c.588.158.784 1.334.44 2.634-.322 1.199-.993 2.078-1.56 2.078Zm2.006-6.48a.4.4 0 0 1-.133-.022c-.448-.163-.533-1.088-.181-2.08.312-.89.867-1.524 1.302-1.524a.42.42 0 0 1 .138.023c.447.158.53 1.085.178 2.08-.316.885-.87 1.524-1.304 1.524Z"/><path fill="#3faf72" d="M907.142 440.26c-.027 0-.042-.231-.045-.666-.005-.219-.012-.483-.01-.8.02-.319.043-.68.065-1.083.129-1.618.516-3.933 1.466-6.567.927-2.637 2.41-5.56 4.265-8.506 1.845-2.95 4.031-5.946 6.185-8.945 2.154-2.99 4.26-6.012 5.924-9.008a40.169 40.169 0 0 0 2.142-4.436c.291-.731.573-1.443.85-2.126.246-.696.487-1.372.718-2.018.865-2.607 1.48-4.811 1.812-6.374.181-.782.322-1.393.387-1.815.08-.42.121-.646.121-.646l.13-.643c.089-.42.18-1.038.3-1.825.256-1.579.515-3.846.618-6.583a58.372 58.372 0 0 0-.437-9.34c-.204-1.698-.528-3.443-.89-5.207-.402-1.757-.837-3.539-1.382-5.288-2.091-7.038-5.394-13.663-8.083-18.476a199.357 199.357 0 0 0-3.368-5.768c-.415-.692-.742-1.235-.963-1.606-.221-.372-.327-.576-.31-.594h.003c.026 0 .171.181.418.52.254.35.626.865 1.08 1.534.903 1.34 2.164 3.272 3.59 5.652 2.835 4.756 6.293 11.36 8.532 18.461.584 1.762 1.049 3.562 1.483 5.336.398 1.79.75 3.562.98 5.29.498 3.457.639 6.727.574 9.522-.073 2.797-.307 5.12-.553 6.735-.116.807-.196 1.44-.29 1.873l-.122.656-.131.658c-.073.435-.224 1.056-.415 1.848-.357 1.596-1.008 3.843-1.923 6.482-.246.653-.5 1.334-.761 2.043l-.887 2.157a41.653 41.653 0 0 1-2.26 4.521c-1.747 3.041-3.918 6.057-6.125 9.023-2.207 2.969-4.434 5.904-6.321 8.79-1.893 2.877-3.42 5.72-4.406 8.284a27.53 27.53 0 0 0-1.68 6.411c-.05.402-.097.76-.13 1.066-.027.317-.048.578-.063.797-.037.43-.068.66-.088.66Z"/><path fill="#3faf72" d="M925.666 404.199c-.216-.008-.188-2.986-.565-5.904-.108-.726-.254-1.445-.37-2.124-.06-.337-.103-.663-.18-.972-.08-.3-.159-.589-.227-.853-.138-.53-.259-.97-.339-1.281-.08-.302-.13-.48-.13-.48s-.207-.7-.526-1.75c-.078-.261-.16-.55-.251-.85-.116-.29-.234-.602-.36-.922-.259-.633-.497-1.33-.802-2.003-1.198-2.692-2.767-5.228-2.586-5.35.003-.003.005-.003.008-.003.18 0 1.998 2.325 3.425 4.933.365.666.661 1.358.976 2.001.15.32.296.63.434.93.114.304.22.593.317.857.387 1.076.649 1.792.649 1.792s.042.184.108.51c.07.327.16.792.276 1.35.055.282.116.58.181.9.063.319.08.666.123 1.015.07.712.166 1.458.211 2.215.144 3.013-.22 5.989-.372 5.989Zm-16.113 24.504h-.005c-.083-.02-.03-.686.15-1.67.177-.984.506-2.271.85-3.548.354-1.27.711-2.541.978-3.486.254-.95.422-1.586.422-1.586s.196-.618.463-1.556c.27-.937.57-2.199.784-3.476.188-1.277.279-2.571.254-3.549-.018-.975-.076-1.636.03-1.656h.002c.08 0 .307.628.485 1.606.184.998.24 2.353.169 3.702a29.063 29.063 0 0 1-.53 3.665 47.18 47.18 0 0 1-.378 1.633l-.525 1.576c-.332.943-.792 2.184-1.257 3.419-.457 1.231-.92 2.46-1.246 3.39-.327.915-.548 1.536-.646 1.536Zm23.586-47.105c-.05 0-.196-.219-.418-.606a12.097 12.097 0 0 1-.857-1.73c-.658-1.46-1.297-3.49-1.985-5.473-.33-1-.72-1.968-1.06-2.88-.416-.873-.735-1.73-1.142-2.38-.186-.33-.357-.64-.513-.908-.146-.272-.319-.495-.442-.689-.249-.38-.395-.595-.395-.595l-.377-.616c-.241-.387-.608-.925-1.038-1.584-.427-.66-.985-1.382-1.545-2.191l-.928-1.194a22.45 22.45 0 0 0-.975-1.217c-.34-.4-.676-.801-1.01-1.194-.352-.382-.694-.751-1.028-1.116-.649-.738-1.335-1.35-1.88-1.917-1.147-1.086-1.926-1.8-1.865-1.88.002-.005.007-.005.015-.005.128 0 .992.563 2.189 1.493.606.515 1.357 1.083 2.068 1.782.362.344.737.696 1.119 1.063.357.374.726.764 1.096 1.148.377.38.726.785 1.065 1.184.342.4.679.792 1.003 1.174.61.792 1.214 1.506 1.677 2.159.467.651.864 1.189 1.128 1.576l.405.608.384.626c.118.206.282.432.43.731.15.297.32.631.508.996.404.719.694 1.616 1.08 2.548.307.955.654 1.97.928 2.994.58 2.04 1.07 4.086 1.568 5.574.219.76.468 1.365.619 1.797.15.435.218.697.18.72l-.004.002Zm-.909-9.637c-.094 0-.17-.784-.232-1.968-.01-.299-.028-.618-.043-.957l.023-1.069c.025-.741.035-1.538.085-2.327.139-1.578.26-3.16.458-4.336l.289-1.96s.188-.77.477-1.923c.262-1.161.742-2.672 1.217-4.18.246-.754.555-1.487.817-2.179.133-.346.269-.68.387-.995.15-.304.289-.596.42-.865.507-1.038.88-1.721.977-1.721.003 0 .005 0 .008.002.083.038-.136.8-.505 1.91-.093.277-.191.579-.3.893-.087.326-.185.668-.281 1.018-.19.708-.43 1.45-.616 2.204-.352 1.523-.734 3.026-.925 4.182l-.37 1.908-.379 1.91c-.266 1.141-.477 2.687-.736 4.23-.11.772-.184 1.546-.28 2.272-.047.365-.087.719-.127 1.048-.025.34-.053.654-.076.948-.098 1.168-.196 1.953-.289 1.955Zm-2.147 23.629c-.005 0-.008 0-.01-.002-.073-.058.394-.812 1.128-1.9.186-.27.39-.56.601-.872.204-.315.4-.661.616-1.01.42-.705.892-1.439 1.33-2.193.826-1.543 1.696-3.048 2.236-4.245l.95-1.96s.385-.784.958-1.958c.608-1.161 1.27-2.775 1.99-4.366 1.338-3.2 2.454-6.5 2.655-6.5 0 0 .002 0 .002.003.166.045-.636 3.481-1.774 6.832-.616 1.656-1.202 3.332-1.755 4.539l-.877 2.033s-.098.196-.286.535c-.189.342-.455.827-.774 1.41-.611 1.187-1.579 2.677-2.521 4.173-1.936 2.895-4.256 5.481-4.47 5.481Zm-9.71 17.848c-.01 0-.017-.002-.02-.007-.058-.073.631-.739 1.72-1.671 1.085-.935 2.586-2.124 4.096-3.288 1.508-1.159 3.014-2.32 4.145-3.192 1.116-.88 1.857-1.468 1.857-1.468s.191-.143.518-.392c.332-.254.812-.596 1.362-1.038a67.402 67.402 0 0 0 3.964-3.343 53.432 53.432 0 0 0 3.624-3.712c.897-1.025 1.493-1.75 1.611-1.75.005 0 .01.003.013.003.07.048-.4.885-1.22 2.069-.821 1.176-2.045 2.669-3.367 4.064a56.416 56.416 0 0 1-3.846 3.62c-.54.474-1.01.844-1.332 1.118l-.508.414-1.942 1.403a242.528 242.528 0 0 1-4.326 2.968c-1.578 1.068-3.152 2.134-4.335 2.933-1.109.76-1.873 1.27-2.014 1.27Zm-9.083 13.43-.01-.003c-.038-.025.002-.18.123-.45.123-.266.276-.67.573-1.073.518-.877 1.46-1.862 2.475-2.75 1.026-.876 2.172-1.59 3.042-2.103.88-.483 1.48-.787 1.48-.787s.156-.063.425-.168c.274-.106.658-.274 1.136-.435.937-.334 2.21-.739 3.498-1.05 2.061-.52 4.16-.8 4.927-.8.19 0 .301.018.306.053.03.186-2.516.79-4.969 1.651a44.795 44.795 0 0 0-3.31 1.287c-.45.184-.807.372-1.06.488-.254.12-.4.186-.4.186s-.588.256-1.46.663c-.857.428-1.996 1.023-3.042 1.762-1.03.747-2.018 1.574-2.639 2.315-.344.342-.555.679-.751.895-.173.2-.294.319-.344.319Z"/><path fill="#88ad25" d="M900.825 484.253c.3 0 .463-.021.467-.069.047-.381-5.984-1.586-11.728-3.699-2.82-1.187-5.684-2.229-7.724-3.292l-3.451-1.637s-1.376-.665-3.442-1.655c-2.092-.939-4.758-2.443-7.48-3.862-5.131-2.868-10.134-6.019-10.73-6.019-.025 0-.043.009-.051.022-.184.261 4.69 4.076 9.876 7.493 2.64 1.633 5.26 3.318 7.334 4.385a1033.97 1033.97 0 0 1 3.425 1.865l3.606 1.5c2.13.969 5.143 1.869 8.093 2.859 5.053 1.453 10.249 2.109 11.805 2.109Z"/><path fill="#ffba31" d="M854.01 469.172c.686 0 1.38-.103 2.066-.313 3.716-1.14 5.808-5.075 4.668-8.787a7.028 7.028 0 0 0-8.788-4.66 7.04 7.04 0 0 0-4.668 8.784 7.045 7.045 0 0 0 6.722 4.976Z"/><path fill="#191919" fill-opacity=".14" d="M854.01 469.172c.686 0 1.38-.103 2.066-.313 3.716-1.14 5.808-5.075 4.668-8.787a7.03 7.03 0 0 0-4.677-4.66c.493.596.879 1.29 1.123 2.07.99 3.254-.831 6.696-4.085 7.69a5.948 5.948 0 0 1-1.774.271 6.208 6.208 0 0 1-4.128-1.599c.034.116.051.236.085.352a7.045 7.045 0 0 0 6.722 4.976Z"/><path fill="#191919" fill-opacity=".14" d="M850.632 462.72a2.314 2.314 0 0 0 2.212-2.996 2.322 2.322 0 0 0-2.885-1.538 2.314 2.314 0 0 0-1.535 2.889 2.307 2.307 0 0 0 2.208 1.646Zm4.406-2.94a1.08 1.08 0 0 0 1.037-1.393 1.085 1.085 0 0 0-1.028-.759c-.103 0-.21.017-.317.052-.57.171-.892.78-.712 1.337.137.463.562.763 1.02.763Z"/><path fill="#e21c54" d="M910.852 516.61c2.58 0 .334-6.58-1.99-8.342 0 0-16.46-21.266-32.985-25.63-2.966-.784-5.504-1.123-7.656-1.123-9.833 0-11.646 7.03-9.962 10.562 3.327 7.004-4.475 12.388 2.933 18.951 3.857 3.412 10.639 4.295 17.922 4.295 7.827 0 16.237-1.02 22.204-1.02 3.232 0 5.748.3 7.069 1.222 1.093.763 1.894 1.084 2.465 1.084Z"/><path fill="#191919" fill-opacity=".14" d="M910.852 516.61c2.58 0 .334-6.58-1.99-8.342 0 0-11.77-15.205-25.402-22.535 3.558 3.84 6.55 7.664 6.302 9.413-.193 1.346-2.34 1.805-5.161 1.805-5.959 0-14.94-2.04-14.94-2.04s16.388 8.727 16.873 12.555c.334 2.71-2.61 4.038-7.789 4.038-2.148 0-4.685-.227-7.527-.686-6.053-.969-10.622-4.454-13.336-6.726-.085 2.242.57 4.51 3.31 6.936 3.857 3.412 10.639 4.295 17.922 4.295 7.827 0 16.237-1.02 22.204-1.02 3.232 0 5.748.3 7.069 1.222 1.093.763 1.894 1.084 2.465 1.084Z"/><path fill="#ffba31" d="M909.608 512.404c.047 0 .077-.009.086-.026.073-.171-1.273-.917-3.28-2.032-2.014-1.123-4.689-2.614-7.364-4.11-2.674-1.5-5.37-2.992-7.415-4.073l-3.43-1.77s-1.414-.622-3.566-1.509c-2.156-.866-5.062-1.955-8.059-2.79-3-.815-6.057-1.445-8.393-1.578a13.064 13.064 0 0 0-1.522-.081c-.501 0-.938.021-1.29.025-.681.026-1.067.078-1.067.163-.009.086.373.197 1.033.335.656.15 1.603.227 2.709.51 2.237.42 5.148 1.286 7.999 2.289 2.846 1.028 5.62 2.254 7.677 3.219 2.053.99 3.425 1.655 3.425 1.655s1.389.625 3.476 1.577c2.08.977 4.853 2.276 7.63 3.588 2.787 1.299 5.586 2.576 7.746 3.42 1.882.75 3.254 1.188 3.605 1.188Zm-33.363-22.93c1.367 0 2.409-.416 2.525-1.101.15-.88-1.304-1.86-3.245-2.195a7.414 7.414 0 0 0-1.273-.112c-1.364 0-2.401.416-2.525 1.102-.15.879 1.307 1.86 3.245 2.195a7.45 7.45 0 0 0 1.273.111Zm-9.71-1.384c1.282 0 2.281-.416 2.341-1.02.06-.704-1.127-1.385-2.67-1.53a5.8 5.8 0 0 0-.54-.022c-1.282 0-2.294.42-2.345 1.033-.065.694 1.123 1.376 2.662 1.513.188.017.373.026.553.026Z"/><path fill="#e21c54" d="M908.319 563.999c1.924 0 3.926-.682 6.155-2.86 9.79-9.563 3.27-41.026 7.922-46.744 2.177-2.684 1.234-3.657-.618-3.657-2.091 0-5.345 1.24-6.588 2.658 0 0-22.402 14.874-27.961 31.035-4.759 13.854 1.35 18.642 5.997 18.642.771 0 1.504-.133 2.143-.381a8.828 8.828 0 0 1 3.245-.613c3.472 0 6.477 1.92 9.705 1.92Z"/><path fill="#191919" fill-opacity=".14" d="M908.314 563.995c1.93 0 3.931-.678 6.16-2.855 9.79-9.564 3.27-41.027 7.922-46.741 2.177-2.683 1.234-3.66-.618-3.66-2.091 0-5.345 1.242-6.588 2.665-.013 0-16.023 10.631-24.326 23.688 3.832-3.065 7.608-5.632 9.499-5.632.124 0 .244.012.355.034 4.128.9-1.697 20.022-1.697 20.027 0-.005 9.898-15.71 13.747-15.908.064-.004.124-.004.184-.004 3.691 0 4.265 6.117 2.045 15.517-1.41 5.967-5.212 10.267-7.682 12.813.33.034.665.056 1 .056Z"/><path fill="#ffba31" d="M898.348 556.844c.086 0 .227-.373.403-1.011.201-.643.347-1.578.716-2.662.574-2.203 1.65-5.041 2.85-7.81 1.235-2.765 2.662-5.44 3.772-7.429 1.14-1.972 1.9-3.292 1.9-3.292l1.821-3.348c1.127-2.006 2.632-4.677 4.132-7.351 1.5-2.684 2.98-5.389 3.983-7.476 1.007-2.083 1.564-3.528 1.423-3.605-.009-.004-.013-.004-.017-.004-.193 0-1.025 1.264-2.247 3.137-1.264 1.92-2.953 4.48-4.638 7.043a366.123 366.123 0 0 0-4.595 7.099 3828.635 3828.635 0 0 0-2.019 3.292s-.729 1.367-1.757 3.442c-1.025 2.092-2.324 4.912-3.378 7.836-1.029 2.94-1.873 5.941-2.178 8.264-.223 1.14-.214 2.122-.261 2.8-.026.681 0 1.067.086 1.075h.004Zm-8.03.399c.66 0 1.363-1.102 1.603-2.555.253-1.517-.094-2.842-.784-2.953-.034-.004-.064-.009-.099-.009-.66 0-1.367 1.106-1.611 2.555-.25 1.522.102 2.846.793 2.958.03.004.064.004.098.004Zm1.308-8.324c.831 0 1.804-1.32 2.246-3.1.476-1.92.163-3.643-.708-3.862a.856.856 0 0 0-.18-.017c-.836 0-1.809 1.316-2.254 3.1-.472 1.915-.159 3.639.716 3.857.06.013.12.022.18.022Z"/><path fill="#e21c54" d="M931.214 495.776c1.624 0 2.391-.956.531-3.614-4.214-6.04 4.57-36.942-4.497-47.195-2.289-2.59-4.436-3.322-6.558-3.322-2.778 0-5.517 1.26-8.479 1.26a8.9 8.9 0 0 1-3.905-.87c-.75-.356-1.655-.553-2.615-.553-4.574 0-10.438 4.51-6.828 18.17 4.368 16.525 25.63 32.982 25.63 32.982 1.2 1.59 4.654 3.142 6.72 3.142Z"/><path fill="#191919" fill-opacity=".14" d="M931.214 495.776c1.624 0 2.391-.956.531-3.614-4.214-6.04 4.57-36.946-4.497-47.195-2.293-2.593-4.44-3.318-6.567-3.318-.124 0-.248 0-.372.004 2.284 2.718 5.756 7.288 6.734 13.34 1.5 9.34.553 15.342-2.945 15.342-.129 0-.266-.009-.403-.026-3.832-.48-12.564-16.872-12.564-16.872s4.424 19.5.24 20.1a1.763 1.763 0 0 1-.219.013c-1.843 0-5.512-2.898-9.203-6.314 7.339 13.631 22.543 25.398 22.543 25.398 1.2 1.59 4.655 3.142 6.722 3.142Z"/><path fill="#ffba31" d="M928.59 493.478c.004 0 .009 0 .013-.004.146-.065-.309-1.548-1.166-3.7-.845-2.156-2.126-4.955-3.42-7.741-1.308-2.782-2.607-5.556-3.584-7.635-.948-2.083-1.578-3.472-1.578-3.472s-.664-1.363-1.659-3.416c-.96-2.066-2.19-4.84-3.219-7.686-.999-2.85-1.865-5.757-2.276-7.994-.287-1.115-.369-2.058-.523-2.714-.133-.656-.245-1.037-.33-1.037-.086.008-.137.394-.163 1.072-.009.681-.086 1.658.06 2.812.128 2.336.759 5.396 1.565 8.397.848 3 1.933 5.903 2.799 8.059a139.663 139.663 0 0 0 1.508 3.562s.708 1.372 1.77 3.438a401.69 401.69 0 0 0 4.073 7.415c1.496 2.675 2.984 5.35 4.11 7.356 1.09 1.96 1.827 3.288 2.02 3.288Zm-24.117-30.924c.043 0 .086 0 .124-.009.887-.15 1.325-1.852.99-3.79-.317-1.855-1.226-3.257-2.07-3.257a.644.644 0 0 0-.124.013c-.888.15-1.325 1.847-1 3.79.327 1.847 1.235 3.253 2.08 3.253Zm-1.239-9.902h.051c.7-.06 1.145-1.36 1.004-2.894-.138-1.496-.785-2.666-1.466-2.666-.018 0-.035.004-.052.004-.699.06-1.144 1.359-1.003 2.894.137 1.491.789 2.662 1.466 2.662Z"/><path fill="#e21c54" d="M928.137 507.431c.575 0 1.385-.373 2.482-1.26 5.719-4.65 37.178 1.873 46.746-7.917 6.918-7.082-1.26-11.891 1.547-19.114 1.35-3.464-.682-9.86-9.323-9.86-2.43 0-5.384.507-8.934 1.724-16.169 5.56-31.034 27.961-31.034 27.961-2.16 1.9-3.905 8.466-1.484 8.466Z"/><path fill="#191919" fill-opacity=".14" d="M928.137 507.431c.575 0 1.385-.373 2.482-1.26 5.719-4.65 37.178 1.873 46.745-7.917 2.555-2.624 3.048-4.93 2.8-7.159-2.542 2.474-6.846 6.267-12.817 7.677-3.652.862-6.807 1.304-9.306 1.304-4.026 0-6.332-1.15-6.212-3.524.206-3.858 15.916-13.76 15.916-13.76s-10.429 3.18-16.246 3.18c-2.062 0-3.545-.398-3.78-1.478-.386-1.732 2.327-5.757 5.593-9.85-13.052 8.302-23.692 24.321-23.692 24.321-2.16 1.9-3.905 8.466-1.483 8.466Z"/><path fill="#ffba31" d="M929.149 503.149c.304 0 1.659-.544 3.536-1.453 2.092-.995 4.793-2.478 7.48-3.974 2.675-1.504 5.346-3 7.352-4.128 2.006-1.102 3.352-1.83 3.352-1.83s1.307-.759 3.283-1.895c1.985-1.11 4.668-2.538 7.429-3.772 2.773-1.205 5.607-2.28 7.814-2.86 1.085-.364 2.02-.51 2.662-.71.652-.18 1.016-.322 1.003-.408-.004-.064-.222-.094-.625-.094-.129 0-.28 0-.446.008-.669.047-1.66.039-2.795.262-2.328.304-5.324 1.149-8.26 2.177-2.932 1.055-5.753 2.362-7.836 3.378-2.08 1.033-3.45 1.758-3.45 1.758s-1.317.805-3.293 2.019a316.675 316.675 0 0 0-7.099 4.603 2147.85 2147.85 0 0 0-7.042 4.63c-1.93 1.256-3.215 2.105-3.13 2.267.009.013.03.022.065.022Zm31.181-25.279c.527 0 1.11-.068 1.71-.219 1.916-.471 3.292-1.56 3.082-2.426-.155-.596-1.012-.934-2.152-.934a7.4 7.4 0 0 0-1.71.218c-1.908.476-3.293 1.56-3.074 2.427.146.6 1.003.934 2.143.934Zm9.64-2.087c.3 0 .617-.026.943-.078 1.526-.257 2.666-1.024 2.542-1.71-.086-.54-.909-.87-1.985-.87-.304 0-.63.026-.964.081-1.522.249-2.662 1.016-2.547 1.706.09.54.922.87 2.01.87Z"/><path fill="#88ad25" d="M907.2 512.087c.06 0 .093-.013.106-.035.146-.257-5.358-3.219-11.33-5.135-3.004-.819-6.005-1.736-8.32-2.117l-3.832-.768s-1.547-.137-3.875-.356c-2.319-.265-5.435-.321-8.534-.432-.33 0-.66-.005-.99-.005-5.86 0-11.398.429-11.386.742.009.36 6.173.518 12.29 1.007 3.056.335 6.104.566 8.367.952 2.268.321 3.781.544 3.781.544l3.772.557c2.29.245 5.247.978 8.256 1.56 5.547 1.347 10.863 3.486 11.694 3.486Z"/><path fill="#ffba31" d="M855.759 511.11a7.003 7.003 0 0 0 4.44-1.582 7.023 7.023 0 0 0 1.012-9.894 7.03 7.03 0 0 0-9.897-1.011 7.034 7.034 0 0 0-1.008 9.893 7 7 0 0 0 5.453 2.593Z"/><path fill="#191919" fill-opacity=".14" d="M855.759 511.11a7.02 7.02 0 0 0 4.44-1.582 7.023 7.023 0 0 0 1.012-9.894 7.03 7.03 0 0 0-9.897-1.011c-.09.077-.176.158-.266.244a6.091 6.091 0 0 1 5.645 2.182 6.148 6.148 0 0 1-2.97 9.765c.66.197 1.346.295 2.036.295Z"/><path fill="#191919" fill-opacity=".14" d="M851.982 505.944c.51 0 1.029-.167 1.457-.515.995-.814 1.15-2.271.343-3.257a2.324 2.324 0 0 0-1.8-.858 2.3 2.3 0 0 0-1.462.523 2.315 2.315 0 0 0-.334 3.258 2.307 2.307 0 0 0 1.796.849Zm2.722 2.628a1.079 1.079 0 0 0 .832-1.758 1.074 1.074 0 0 0-.836-.394c-.24 0-.48.077-.682.24a1.08 1.08 0 0 0 .686 1.912Z"/><path fill="#88ad25" d="M900.576 484.896h.004c.292-.026-.308-6.246-2.04-12.272-.99-2.95-1.895-5.963-2.868-8.094-.896-2.16-1.491-3.605-1.491-3.605s-.75-1.371-1.865-3.42c-1.067-2.08-2.752-4.698-4.385-7.339-3.344-5.088-7.09-9.88-7.476-9.88-.009 0-.013 0-.017.004-.296.21 3 5.422 5.997 10.78 1.419 2.723 2.923 5.385 3.862 7.48.99 2.067 1.655 3.443 1.655 3.443s.655 1.38 1.637 3.442c1.067 2.04 2.105 4.908 3.292 7.733 2.105 5.723 3.31 11.728 3.695 11.728Z"/><path fill="#ffba31" d="M878.53 444.657a7.041 7.041 0 0 0 6.725-4.977 7.024 7.024 0 0 0-4.663-8.78 6.9 6.9 0 0 0-2.062-.312 7.034 7.034 0 0 0 0 14.069Z"/><path fill="#191919" fill-opacity=".14" d="M878.538 444.652a7.035 7.035 0 0 0 2.053-13.76 8.9 8.9 0 0 0-.35-.085c1.392 1.556 1.984 3.763 1.328 5.91a6.155 6.155 0 0 1-7.686 4.077 6.203 6.203 0 0 1-2.075-1.114 7.02 7.02 0 0 0 6.73 4.972Z"/><path fill="#191919" fill-opacity=".14" d="M876.802 436.55c.99 0 1.908-.638 2.212-1.637a2.31 2.31 0 0 0-2.216-2.992c-.986 0-1.908.639-2.216 1.642a2.32 2.32 0 0 0 2.22 2.987Zm-1.71 3.173a1.09 1.09 0 0 0 1.041-.763 1.068 1.068 0 0 0-.72-1.338.997.997 0 0 0-.313-.051 1.079 1.079 0 0 0-.308 2.109c.098.03.201.043.3.043Z"/><path fill="#88ad25" d="M928.436 490.915c.004 0 .008 0 .012-.005.348-.171-2.006-5.855-3.45-11.8-.583-3.01-1.312-5.968-1.56-8.257l-.558-3.772-.536-3.78c-.394-2.264-.617-5.32-.96-8.368-.488-6.117-.647-12.281-1.007-12.294-.322 0-.78 6.164-.737 12.38.12 3.099.167 6.207.433 8.53.218 2.328.36 3.88.36 3.88s.304 1.534.763 3.832c.381 2.314 1.303 5.31 2.121 8.32 1.887 5.89 4.797 11.334 5.119 11.334Z"/><path fill="#ffba31" d="M920.471 446.393a7.01 7.01 0 0 0 5.453-2.59c2.456-3.009 2.006-7.44-1.003-9.901a7.043 7.043 0 0 0-9.902 1.015c-2.452 3.014-2.002 7.446 1.011 9.898a6.999 6.999 0 0 0 4.441 1.578Z"/><path fill="#191919" fill-opacity=".14" d="M920.471 446.393a7.01 7.01 0 0 0 5.453-2.59 7.031 7.031 0 0 0 1.286-6.476 6.169 6.169 0 0 1-1.11 2.083 6.12 6.12 0 0 1-4.772 2.267 6.146 6.146 0 0 1-3.883-1.38c-1.736-1.419-2.478-3.58-2.182-5.645-.082.09-.167.167-.244.265-2.452 3.014-2.002 7.446 1.011 9.898a6.999 6.999 0 0 0 4.441 1.578Z"/><path fill="#191919" fill-opacity=".14" d="M920.02 437.9c.674 0 1.343-.29 1.806-.857a2.321 2.321 0 0 0-.335-3.253 2.34 2.34 0 0 0-1.466-.519 2.32 2.32 0 0 0-1.796.849 2.325 2.325 0 0 0 .334 3.266c.43.347.943.515 1.458.515Zm3.867 1.48a1.07 1.07 0 0 0 .686-1.903 1.068 1.068 0 0 0-.686-.245c-.308 0-.617.137-.831.394a1.079 1.079 0 0 0 .15 1.514c.201.162.441.24.681.24Z"/><path fill="#3faf72" d="M873.306 550.697a.704.704 0 0 0 .163-.017c2.872-.716 3.408-13.095 17.76-17.403 7.398-2.217 50.787 2.687 42.891-18.124 0 0-15.685-7.467-32.214-7.467-9.087 0-18.436 2.259-25.565 9.263-14.951 14.682-6.078 33.748-3.035 33.748Z"/><path fill="#191919" fill-opacity=".14" d="M874.562 549.776c2.182-3.07 4.283-12.787 16.667-16.5 7.398-2.216 50.787 2.688 42.891-18.123 0 0-15.685-7.467-32.214-7.467-7.514 0-15.208 1.547-21.677 6.04 5.363-1.698 10.6-2.195 14.9-2.195 6.079 0 10.275.994 10.275.994-22.723 3.588-27.627 19.256-27.627 19.256 5.166-7.3 18.493-11.398 26.277-11.398 3.566 0 5.971.861 5.898 2.666-.24 5.744-14.836 3.828-23.567 8.732-6.893 3.87-10.575 13.927-11.823 17.995Z"/><path fill="#ffba31" d="M872.564 549.789h.004c.223-.048-.321-2.251.073-5.522.382-3.257 1.882-7.441 4.223-11.128a41.678 41.678 0 0 1 3.84-5.122c1.385-1.5 2.744-2.838 4.008-3.854.618-.531 1.23-.943 1.745-1.35.544-.36 1.02-.652 1.415-.9.767-.523 1.264-.725 1.264-.725s.467-.252 1.286-.698c.416-.223.952-.412 1.543-.673.587-.283 1.29-.506 2.066-.75 1.518-.515 3.387-.883 5.406-1.196 1.933-.228 4.003-.399 6.095-.399.116 0 .227 0 .339.004.12 0 .244-.004.364-.004 4.3 0 8.6.442 11.857.699 2.233.193 3.978.295 4.9.295.458 0 .715-.025.72-.081.012-.176-2.182-.587-5.5-1.166-3.314-.557-7.759-1.29-12.303-1.487a38.064 38.064 0 0 0-2.421-.073 57.86 57.86 0 0 0-4.278.176c-2.14.231-4.15.552-5.822 1.05-.848.231-1.616.446-2.276.728-.664.262-1.26.46-1.719.682-.917.459-1.449.72-1.449.72s-.535.244-1.371.853c-.425.287-.943.63-1.522 1.05-.544.45-1.192.922-1.822 1.514-1.312 1.14-2.696 2.61-4.076 4.256a40.21 40.21 0 0 0-3.79 5.56c-2.263 3.986-3.588 8.496-3.682 11.947-.107 3.425.763 5.594.883 5.594Z"/><path fill="#191919" fill-opacity=".14" d="M871.26 533.25c.625 0 1.517-.741 2.16-1.869.767-1.328.904-2.7.296-3.043a.646.646 0 0 0-.326-.082c-.626 0-1.518.742-2.17 1.865-.766 1.337-.895 2.705-.29 3.044a.64.64 0 0 0 .33.085Zm4.23-7.321c.798 0 1.955-.849 2.868-2.173 1.115-1.625 1.423-3.357.682-3.863a.858.858 0 0 0-.489-.137c-.802 0-1.963.849-2.868 2.17-1.114 1.628-1.419 3.351-.677 3.861.137.095.3.142.484.142Z"/><path fill="#3faf72" d="M936.037 518.851c15.389 0 11.428-37.062 13.464-43.847 4.308-14.352 16.688-14.892 17.404-17.764.42-1.663-5.972-5.555-14.33-5.555-6.049 0-13.126 2.036-19.406 8.427-19.735 20.1-1.791 57.783-1.791 57.783 1.723.652 3.27.956 4.659.956Z"/><path fill="#191919" fill-opacity=".14" d="M936.037 518.851c15.389 0 11.428-37.062 13.464-43.847 3.712-12.38 13.43-14.485 16.49-16.666-4.063 1.243-14.115 4.93-17.982 11.822-4.908 8.732-2.992 23.328-8.736 23.572h-.081c-5.624 0-1.783-24.682 8.817-32.184 0 0-15.671 4.904-19.263 27.632-.005 0-2.894-12.23 1.204-25.171-14.373 20.695 1.428 53.886 1.428 53.886 1.723.652 3.27.956 4.659.956Z"/><path fill="#ffba31" d="M934.601 507.487h.004c.172-.021.077-2.268-.21-5.62-.261-3.343-.728-7.801-.694-12.22-.026-2.213.158-4.403.394-6.435.309-2.019.673-3.88 1.2-5.41.24-.767.463-1.474.746-2.057.257-.596.455-1.136.678-1.547.437-.82.694-1.286.694-1.286s.197-.498.72-1.265c.257-.386.545-.87.905-1.415.407-.514.818-1.131 1.35-1.744 1.016-1.26 2.349-2.624 3.858-4a40.023 40.023 0 0 1 5.114-3.845c3.69-2.344 7.874-3.849 11.132-4.222.934-.116 1.779-.15 2.516-.15 1.368 0 2.345.129 2.77.129.14 0 .222-.018.23-.056.048-.094-1.881-.896-4.997-.896-.193 0-.39.004-.592.009-3.446.094-7.96 1.418-11.947 3.677a40.732 40.732 0 0 0-5.56 3.794c-1.645 1.38-3.111 2.765-4.256 4.077-.587.63-1.059 1.277-1.513 1.821-.42.58-.759 1.102-1.055 1.522-.604.832-.848 1.376-.848 1.376l-.72 1.445c-.223.458-.42 1.054-.682 1.719-.283.66-.497 1.427-.733 2.272-.502 1.671-.814 3.686-1.05 5.825-.159 2.148-.245 4.437-.103 6.7.193 4.544.934 8.989 1.492 12.307.574 3.296.986 5.495 1.157 5.495Z"/><path fill="#191919" fill-opacity=".14" d="M937.104 463.218c.776 0 1.847-.381 2.876-1.089 1.62-1.114 2.538-2.615 2.028-3.348-.189-.274-.54-.402-.995-.402-.771 0-1.839.377-2.868 1.075-1.62 1.124-2.529 2.62-2.031 3.361.184.27.54.403.99.403Zm8.363-5.345c.591 0 1.372-.232 2.139-.673 1.337-.772 2.139-1.886 1.783-2.5-.141-.248-.467-.372-.9-.372-.587 0-1.372.231-2.14.668-1.336.776-2.138 1.89-1.782 2.49.141.262.471.387.9.387Z"/><path fill="#3faf72" d="M935.174 518.641c.716-12.204-10.412-29.067-17.948-38.76-6.914-8.894-29.868-21.119-37.743-21.119-.703 0-1.286.099-1.727.304-5.384 2.517 5.384 26.916 15.787 39.48 10.408 12.555 41.631 20.095 41.631 20.095Z"/><path fill="#191919" fill-opacity=".14" d="M935.174 518.641c.716-12.204-10.412-29.067-17.948-38.76-3.022-3.878-9.1-8.396-15.641-12.259 8.616 7.232 20.24 18.347 17.022 23.448-.515.814-1.33 1.174-2.358 1.174-7.596 0-27.07-19.474-27.07-19.474s24.044 27.267 17.944 30.855c-.39.232-.849.339-1.359.339-4.102 0-11.737-6.931-17.785-13.177 1.8 2.838 3.69 5.487 5.564 7.759 10.408 12.56 41.631 20.095 41.631 20.095Z"/><path fill="#ffba31" d="M932.036 515.838c.013 0 .018-.005.026-.009.124-.12-1.286-1.766-3.472-4.158-2.182-2.392-5.144-5.542-8.114-8.667-5.98-6.237-11.956-12.466-11.956-12.466s-6.224-5.975-12.452-11.942a672.795 672.795 0 0 0-8.66-8.102c-2.301-2.1-3.904-3.485-4.131-3.485a.033.033 0 0 0-.022.009c-.124.124 1.295 1.766 3.468 4.158 2.186 2.387 5.135 5.525 8.106 8.663a14011.2 14011.2 0 0 1 11.942 12.448s6.229 5.976 12.466 11.955c3.133 2.971 6.28 5.929 8.671 8.11 2.298 2.097 3.897 3.486 4.128 3.486Z"/><path fill="#191919" fill-opacity=".14" d="M899.32 474.938c.352 0 .63-.099.806-.309.583-.681-.163-2.267-1.659-3.553-1.041-.888-2.169-1.398-2.958-1.398-.347 0-.63.099-.81.309-.578.677.167 2.268 1.66 3.55 1.04.89 2.172 1.401 2.961 1.401Zm-7.746-6.211c.326 0 .588-.095.729-.296.407-.562-.261-1.753-1.513-2.666-.81-.588-1.655-.91-2.263-.91-.33 0-.588.095-.733.292-.416.566.261 1.758 1.513 2.671.806.583 1.654.909 2.267.909Z"/><path fill="#88ad25" d="M959.374 551.975c2.1 0 4.333-.952 6.674-3.198 15.479-14.849-26.23-26.864-26.23-26.864s7.746 30.062 19.556 30.062Z"/><path fill="#ffba31" d="M955.245 544.554c1.415 0 2.915-.643 4.488-2.151 10.4-9.971-17.626-18.043-17.626-18.043s5.2 20.194 13.138 20.194Z"/><path fill="#e21c54" d="M964.114 546.48c.03 0 .056-.01.069-.022.595-.596-10.871-13.031-10.871-13.031s-11.797-10.88-12.946-10.88c-.03 0-.055.009-.068.022-.596.595 10.858 13.018 10.858 13.018s11.81 10.892 12.958 10.892Z"/><path fill="#191919" fill-opacity=".14" d="M961.726 549.758c.605 0 1.055-.171 1.213-.522.31-.682-.668-1.784-2.186-2.465-.746-.326-1.483-.489-2.074-.489-.605 0-1.06.172-1.218.514-.3.682.677 1.792 2.2 2.465.74.335 1.474.497 2.065.497Zm-6.931-3.562c.154 0 .3-.034.433-.107.832-.463.673-2.34-.356-4.188-.874-1.564-2.092-2.606-2.958-2.606a.881.881 0 0 0-.437.107c-.831.472-.669 2.35.36 4.188.875 1.565 2.092 2.606 2.958 2.606Z"/><path fill="#88ad25" d="M932.736 560.565c.403 0 .827-.021 1.273-.064 17.322-1.685-3.22-30.28-3.22-30.28s-13.39 30.344 1.947 30.344Z"/><path fill="#ffba31" d="M932.324 553.312c.274 0 .557-.013.857-.043 11.638-1.127-2.164-20.344-2.164-20.344s-8.998 20.387 1.307 20.387Z"/><path fill="#e21c54" d="M933.983 558.088h.004c.677-.078-.386-13.76-.386-13.76s-2.143-13.456-2.833-13.456h-.005c-.677.086.386 13.747.386 13.747s2.143 13.469 2.834 13.469Z"/><path fill="#191919" fill-opacity=".14" d="M931.535 559.3a.537.537 0 0 0 .261-.064c.54-.282.468-1.474-.154-2.666-.54-1.011-1.307-1.693-1.852-1.693a.502.502 0 0 0-.253.06c-.54.279-.475 1.475.15 2.666.532 1.012 1.295 1.698 1.848 1.698Zm-2.97-5.932c.737 0 1.513-1.239 1.77-2.859.27-1.697-.129-3.172-.905-3.296a.65.65 0 0 0-.098-.009c-.738 0-1.518 1.239-1.775 2.86-.27 1.697.129 3.171.904 3.3a.83.83 0 0 0 .103.004Z"/><path fill="#88ad25" d="M971.337 522.958c3.79 0 6.658-1.81 7.163-6.944.635-6.593-3.592-8.634-9.079-8.634-8.937 0-21.21 5.419-21.21 5.419s14.146 10.159 23.126 10.159Z"/><path fill="#ffba31" d="M966.459 519.859c2.542 0 4.47-1.214 4.805-4.669.429-4.428-2.413-5.8-6.1-5.8-6.005 0-14.252 3.64-14.252 3.64s9.512 6.829 15.547 6.829Z"/><path fill="#e21c54" d="M974.034 516.223c1.221 0 2.031-.06 2.053-.222.077-.686-13.477-2.847-13.477-2.847s-7.845-.608-11.681-.608c-1.23 0-2.05.064-2.07.227-.078.681 13.464 2.837 13.464 2.837s7.874.613 11.71.613Z"/><path fill="#191919" fill-opacity=".14" d="M976.37 514.17c.416 0 .729-.12.857-.369.287-.535-.446-1.474-1.633-2.104-.652-.343-1.307-.519-1.813-.519-.416 0-.729.12-.858.36-.278.54.455 1.483 1.634 2.113.655.343 1.307.52 1.813.52Zm-8.903-1.74c.325 0 .673-.026 1.033-.082 1.697-.27 2.975-1.11 2.85-1.877-.098-.613-1.046-.99-2.28-.99-.322 0-.665.025-1.016.077-1.693.278-2.97 1.114-2.846 1.882.094.612 1.033.99 2.259.99Z"/><path fill="#88ad25" d="M935.698 453.264c.004 0 24.88-11.316 13.872-19.144-1.398-.994-2.662-1.427-3.807-1.427-7.887 0-10.065 20.571-10.065 20.571Z"/><path fill="#ffba31" d="M936.898 451.537c.004-.005 16.714-7.609 9.32-12.869-.94-.664-1.788-.956-2.556-.956-5.302 0-6.764 13.82-6.764 13.825Z"/><path fill="#e21c54" d="M935.968 452.827c.643 0 7.077-7.973 7.077-7.973s5.997-8.809 5.572-9.122a.063.063 0 0 0-.03-.008c-.642 0-7.085 7.981-7.085 7.981s-5.993 8.792-5.564 9.113c.004.009.017.009.03.009Z"/><path fill="#191919" fill-opacity=".14" d="M941.54 441.334c.549 0 1.273-.788 1.694-1.903.471-1.247.398-2.435-.163-2.645a.565.565 0 0 0-.189-.034c-.557 0-1.273.789-1.702 1.903-.463 1.248-.394 2.426.172 2.645.06.021.124.034.188.034Zm3.425-4.964c.403 0 .952-.18 1.483-.518.883-.557 1.394-1.333 1.14-1.732-.102-.159-.304-.231-.565-.231-.407 0-.956.18-1.488.514-.878.561-1.388 1.342-1.136 1.736.103.154.305.231.566.231Z"/><path fill="#88ad25" d="M874.551 456.83s-4.788-16.567-11.26-16.567c-1.205 0-2.465.57-3.768 1.93-8.286 8.658 15.028 14.638 15.028 14.638Z"/><path fill="#ffba31" d="M873.184 455.562s-3.22-11.137-7.566-11.137c-.81 0-1.654.382-2.525 1.295-5.576 5.817 10.091 9.842 10.091 9.842Z"/><path fill="#e21c54" d="M874.148 456.582c.018 0 .03-.004.04-.013.333-.334-6.08-7.27-6.08-7.27s-6.6-6.078-7.248-6.078c-.017 0-.03.004-.038.013-.335.326 6.086 7.27 6.086 7.27s6.593 6.078 7.24 6.078Z"/><path fill="#191919" fill-opacity=".14" d="M864.058 450.628c.338 0 .6-.099.711-.3.262-.472-.364-1.316-1.397-1.895-.583-.326-1.175-.497-1.625-.497-.343 0-.604.099-.716.3-.261.472.36 1.32 1.398 1.895.587.325 1.178.497 1.629.497Zm-3.58-3.61a.37.37 0 0 0 .155-.034c.385-.163.385-.99.012-1.834-.325-.742-.844-1.252-1.226-1.252a.361.361 0 0 0-.15.03c-.381.171-.385.999-.012 1.835.33.741.844 1.256 1.221 1.256Z"/><path fill="#88ad25" d="M856.076 534.926c7.047 0 14.643-16.679 14.643-16.679s-26.975 2.855-19.157 13.867c1.42 1.998 2.954 2.812 4.514 2.812Z"/><path fill="#ffba31" d="M859.15 530.653c4.732 0 9.837-11.206 9.837-11.206s-18.123 1.917-12.864 9.32c.952 1.337 1.98 1.886 3.027 1.886Z"/><path fill="#e21c54" d="M853.247 531.188c.844 0 9.058-5.598 9.058-5.598s8.273-6.678 7.96-7.107c-.009-.013-.03-.021-.06-.021-.849 0-9.05 5.59-9.05 5.59s-8.285 6.686-7.972 7.115c.013.013.034.021.064.021Z"/><path fill="#191919" fill-opacity=".14" d="M851.802 530.198c.424 0 1.037-.467 1.5-1.204.558-.87.686-1.788.288-2.045a.443.443 0 0 0-.236-.064c-.425 0-1.033.471-1.5 1.2-.558.879-.69 1.796-.292 2.049a.43.43 0 0 0 .24.064Zm3.536-4.106c.45 0 .99-.099 1.544-.309 1.247-.472 2.083-1.32 1.869-1.882-.12-.313-.54-.476-1.106-.476-.45 0-.99.103-1.544.313-1.247.476-2.079 1.316-1.86 1.882.116.313.536.472 1.097.472Z"/><path fill="#88ad25" d="M42.886 16.198c-.485.153-.948.317-1.388.49-11.965 4.735-20.264 13.912-8.482 17.596 0 0-18.916 10.306-14.549 19.73 2.06 4.445 5.03 4.855 7.596 4.046 2.872-.906 5.236-3.34 5.236-3.34s-15.777 31.121 3.048 35.457c1.487.341 2.768.312 3.894-.043 13.124-4.14 4.606-52.703 43.721-74.631 0 0-26.442-3.29-39.076.695Z"/><path fill="#191919" fill-opacity=".14" d="M41.499 16.688C29.533 21.423 21.234 30.6 33.016 34.284c0 0-18.915 10.306-14.549 19.73 2.059 4.443 5.026 4.85 7.586 4.043.916-.289 1.777-.731 2.528-1.2-2.427.58-5.125-.061-7.039-4.196-4.37-9.423 14.544-19.728 14.544-19.728-10.745-3.36-4.791-11.285 5.415-16.245Zm-7.13 36.682s-1.576 1.62-3.719 2.708c-2.767 6.036-12.766 30.307 3.698 34.1 1.48.338 2.758.309 3.88-.045a6.069 6.069 0 0 0 2.055-1.134c-.863.116-1.81.072-2.866-.172C18.592 84.49 34.37 53.37 34.37 53.37Z"/><path fill="#191919" fill-opacity=".14" d="M48.434 23.06c-.364.114-.713.236-1.045.367-9.048 3.576-15.326 10.518-6.413 13.307 0 0-14.304 7.793-11.002 14.918 1.558 3.363 3.801 3.673 5.742 3.06 2.17-.684 3.958-2.524 3.957-2.526 0 .002-11.924 23.537 2.307 26.82 1.125.255 2.095.232 2.943-.035.164-.052.328-.113.483-.185 4.208-14.641 7.062-39.925 27.138-56.782-6.627-.515-17.708-.964-24.11 1.055Z"/><path fill="#ffba31" d="m54.792 27.918-.097.03a3.078 3.078 0 0 0-1.89 3.924 3.085 3.085 0 0 0 3.937 1.879 3.087 3.087 0 0 0 1.89-3.924 3.081 3.081 0 0 0-3.84-1.91ZM44.77 39.592c-.048.016-.094.03-.142.048a4.62 4.62 0 0 0-2.841 5.891c.83 2.352 3.382 3.61 5.756 2.862.046-.015.094-.033.142-.048 2.416-.853 3.69-3.492 2.842-5.891-.829-2.356-3.382-3.61-5.757-2.862Zm-2.477 20.972-.113.038c-1.875.66-2.868 2.711-2.204 4.582.643 1.831 2.636 2.809 4.488 2.225.035-.011.069-.025.104-.036a3.595 3.595 0 0 0 2.204-4.582 3.6 3.6 0 0 0-4.48-2.227Z"/><path fill="#191919" fill-opacity=".14" d="M40.797 20.776c-1.987.627-3.37 1.85-3.096 2.76.274.933 2.166 1.188 4.231.566a2.25 2.25 0 0 0 .117-.034c1.99-.627 3.378-1.844 3.103-2.756-.283-.924-2.174-1.185-4.236-.57-.04.01-.078.021-.119.034Zm11.517-3.8c-2.17.684-3.646 1.925-3.417 2.987.26 1.212 2.654 1.724 5.333 1.144.344-.073.675-.16.993-.26 2.167-.683 3.634-1.924 3.405-2.989-.258-1.212-2.653-1.718-5.337-1.143-.337.074-.665.163-.977.261ZM31.803 67.632c-.859.271-1.489 1.905-1.45 3.865.05 2.147.873 3.856 1.85 3.837a.828.828 0 0 0 .233-.039c.853-.269 1.484-1.909 1.446-3.868-.044-2.15-.87-3.858-1.846-3.836a.924.924 0 0 0-.233.041Zm1.375 9.716a1.04 1.04 0 0 0-.195.085c-1.09.609-.886 3.038.442 5.427 1.265 2.245 3.076 3.663 4.194 3.31.067-.02.135-.048.198-.083 1.094-.604.887-3.035-.452-5.421-1.252-2.252-3.072-3.67-4.187-3.318Z"/><path fill="#e21c54" d="M80.473 24.81c-.42.133-.83.316-1.224.558-2.602 1.595-3.425 4.982-1.831 7.567 1.344 2.196 3.994 3.11 6.355 2.366.423-.133.838-.32 1.232-.562 2.603-1.59 3.425-4.973 1.832-7.565-1.35-2.194-4-3.109-6.364-2.363Z"/><path fill="#191919" fill-opacity=".14" d="M82.377 24.561c.489.356.921.809 1.256 1.352a4.81 4.81 0 0 1-2.667 7.103 4.86 4.86 0 0 1-3.685-.329c.046.083.087.164.137.248 1.344 2.196 3.994 3.11 6.355 2.366a5.53 5.53 0 0 0 1.232-.562c2.603-1.59 3.425-4.973 1.832-7.565a5.5 5.5 0 0 0-4.46-2.613Z"/><path fill="#ffba31" d="M78.674 27.683a1.812 1.812 0 0 0-.401.182 1.808 1.808 0 0 0-.609 2.49 1.817 1.817 0 0 0 3.099-1.896 1.811 1.811 0 0 0-2.09-.776Zm3.311-1.224a.846.846 0 0 0-.47 1.241.85.85 0 0 0 1.162.276c.4-.24.52-.762.283-1.156a.842.842 0 0 0-.975-.361ZM68.677 38.36a4.52 4.52 0 0 0-2.998 3.078 4.485 4.485 0 0 0 3.118 5.55 4.528 4.528 0 0 0 5.576-3.117 4.488 4.488 0 0 0-3.119-5.552 4.506 4.506 0 0 0-2.577.04Z"/><path fill="#191919" fill-opacity=".14" d="M68.677 38.36a4.52 4.52 0 0 0-2.998 3.078 4.485 4.485 0 0 0 3.118 5.55 4.503 4.503 0 0 0 2.577-.043 4.578 4.578 0 0 0 1.567-.86 3.873 3.873 0 0 1-1.515-.117 3.918 3.918 0 0 1-2.72-4.853c.372-1.326 1.39-2.29 2.621-2.678.051-.016.1-.031.152-.045-.077-.026-.149-.047-.225-.073a4.506 4.506 0 0 0-2.577.04Z"/><path fill="#191919" fill-opacity=".14" d="M71.695 40.016a1.488 1.488 0 0 0-.989 1.013 1.476 1.476 0 0 0 1.03 1.827 1.49 1.49 0 0 0 1.832-1.023 1.476 1.476 0 0 0-1.021-1.83 1.48 1.48 0 0 0-.852.013Zm-.386 3.72a.685.685 0 0 0-.457.468.696.696 0 0 0 .477.854.703.703 0 0 0 .854-.482.69.69 0 0 0-.874-.84Z"/><path fill="#ffba31" d="M900.086 387.545a6.634 6.634 0 0 0-6.249 4.418c-1.216 3.454.588 7.241 4.04 8.455a6.619 6.619 0 0 0 2.211.382 6.625 6.625 0 0 0 6.243-4.423 6.621 6.621 0 0 0-4.036-8.45 6.615 6.615 0 0 0-2.21-.382Z"/><path fill="#191919" fill-opacity=".14" d="M901.963 387.831c1.254 1.516 1.72 3.622 1.016 5.61a5.804 5.804 0 0 1-5.467 3.866 5.77 5.77 0 0 1-3.84-1.468 6.612 6.612 0 0 0 4.204 4.58 6.628 6.628 0 0 0 8.455-4.042 6.625 6.625 0 0 0-4.036-8.45c-.113-.038-.219-.06-.332-.096Z"/><path fill="#191919" fill-opacity=".14" d="M898.59 388.736c-.897 0-1.739.56-2.058 1.46a2.177 2.177 0 0 0 2.06 2.9c.9 0 1.74-.555 2.057-1.452a2.182 2.182 0 0 0-2.059-2.908Zm-1.772 5.251c-.417 0-.809.261-.955.676a1.014 1.014 0 0 0 .614 1.297 1.022 1.022 0 0 0 1.297-.623 1.012 1.012 0 0 0-.956-1.35Z"/><path fill="#88ad25" d="M895.385 367.294a4.847 4.847 0 0 0-4.564 3.232 4.833 4.833 0 0 0 2.95 6.17 4.835 4.835 0 0 0 1.614.28 4.84 4.84 0 0 0 0-9.682Z"/><path fill="#191919" fill-opacity=".14" d="M896.758 367.505a4.203 4.203 0 0 1 .739 4.094 4.236 4.236 0 0 1-5.401 2.584 4.224 4.224 0 0 1-1.398-.832 4.85 4.85 0 0 0 4.687 3.624 4.84 4.84 0 0 0 4.56-3.227 4.838 4.838 0 0 0-2.948-6.175c-.08-.028-.161-.046-.24-.068Z"/><path fill="#191919" fill-opacity=".14" d="M894.292 368.166a1.592 1.592 0 1 0-.003 3.184c.66 0 1.275-.407 1.509-1.058a1.596 1.596 0 0 0-1.506-2.126Zm-1.297 3.835a.741.741 0 0 0-.246 1.438c.08.028.163.04.244.04a.737.737 0 0 0 .246-1.435.693.693 0 0 0-.244-.043Z"/><path fill="#e21c54" d="M882.858 404.558a4.87 4.87 0 0 0-1.194.149 4.915 4.915 0 1 0 2.376 9.54 4.917 4.917 0 0 0-1.182-9.689Z"/><path fill="#191919" fill-opacity=".14" d="M884.535 404.855c.324.44.565.937.704 1.493a4.298 4.298 0 0 1-4.165 5.34 4.311 4.311 0 0 1-3.044-1.273c.02.085.03.165.05.248a4.92 4.92 0 0 0 5.96 3.584 4.917 4.917 0 0 0 .495-9.392Z"/><path fill="#191919" fill-opacity=".14" d="M880.554 406.521a1.621 1.621 0 1 0 .392 3.195 1.622 1.622 0 0 0-.392-3.195Zm4.141 1.849a.75.75 0 0 0-.731.93.757.757 0 0 0 .91.551.759.759 0 0 0 .55-.912.749.749 0 0 0-.729-.568Z"/></g></svg>