<svg xmlns="http://www.w3.org/2000/svg" width="960" height="540"><g fill-rule="evenodd"><path fill="#302745" d="M0 0h960v540H0Z"/><path fill="#ffba31" d="M19.523 316.57c-1.487 0-3.07.155-4.758.474-34.42 6.494-8.572 67.988-3.116 80.104-2.245-4.55-8.294-15.036-16.333-15.036-2.897 0-6.055 1.362-9.385 4.852-15.136 15.853 40.363 62.709 40.363 62.709S11.75 437.552 3.302 437.552c-3.739 0-6.28 2.375-5.842 9.23 1.22 18.899 37.424 38.2 56.969 47.282a25.427 25.427 0 0 0-6.44-.823c-9.355 0-18.573 5.243-7.992 20.58 7.334 10.635 27.17 13.248 44.883 13.248 17.11 0 32.246-2.435 32.246-2.435-20.907 4.324-23.063 21.624-2.162 23.78 1.7.178 3.377.26 5.024.26 17.453 0 31.997-9.022 46.861-9.022.96 0 1.926.035 2.891.118 17.3 1.434 28.834 23.064 28.834 23.064-5.746-26.553-27.127-47.887-47.075-65.269-6.185-5.403-19.147-15.515-28.176-15.515-.397 0-.788.017-1.167.059-13.691 1.44-2.162 20.178-2.162 20.178-19.859-15.883-16.292-38.627-22.53-60.428-2.631-9.2-7.993-12.915-13.402-12.915-9.384 0-18.898 11.19-14.526 24.325-10.09-30.273 6.493-80.002-10.806-86.496-1.83-.68-3.525-.989-5.09-.989-11.96 0-16.41 17.933-17.144 21.34 1.333-6.642 13.365-70.553-16.973-70.553Z"/><path fill="#ffba31" d="M19.523 316.588c-1.21 0-2.483.107-3.828.314-1.303 26.464-.989 93.297 34.871 143.583 44.214 61.986 118.499 50.434 146.51 96.667-7.347-23.934-27.07-43.455-45.565-59.587-6.19-5.397-19.16-15.515-28.182-15.515-.397 0-.782.017-1.155.059-13.691 1.44-2.163 20.178-2.163 20.178-19.858-15.883-16.292-38.627-22.53-60.428-2.63-9.2-7.992-12.915-13.395-12.915-9.39 0-18.91 11.19-14.538 24.325-10.084-30.273 6.493-79.997-10.8-86.496-1.831-.687-3.531-.995-5.095-.995-12.02 0-16.44 18.105-17.145 21.387 1.291-6.428 13.418-70.577-16.985-70.577Z"/><path fill="#bf1b64" d="M15.008 344.676s.042.35.136.971c-.083-.622-.136-.971-.136-.971Z"/><path fill="#191919" fill-opacity=".14" d="M39.144 340.552c-2.69 15.978-6.641 34.676-11.167 36.796a2.766 2.766 0 0 1-1.203.285c-6.677 0-10.86-26.541-11.636-31.98.759 5.599 4.195 33.645-3.163 33.645-.113 0-.225-.012-.338-.024-4.78-.527-9.562-12.228-13.033-22.258 3.092 17.11 10.462 34.385 13.063 40.173-1.055-2.162-2.998-5.681-5.61-8.792 4.2 8.2 7.677 14.491 7.506 15.86-.083.652-.581.918-1.357.918-3.833 0-14.378-6.546-14.378-6.552.005.006 35.433 38.798 32.068 44.563-.237.409-.693.598-1.327.598-3.478 0-12.394-5.729-21.565-12.37 9.965 10.38 19.29 18.265 19.29 18.265S11.768 437.58 3.325 437.58c-1.552 0-2.903.41-3.916 1.375 15.433 6.457 46.406 24.758 48.266 29.23.385.907-.018 1.292-.954 1.292-5.018 0-25.463-10.907-25.469-10.913.006.006 33.633 22.59 26.423 24.99-.255.088-.575.13-.954.13-5.26 0-21.559-8.182-36.12-16.257 12.624 11.174 31.523 20.93 43.828 26.642a25.472 25.472 0 0 0-6.446-.83c-4.585 0-9.141 1.262-11.34 4.36 9.391.445 43.42 2.276 47.556 5.179 4.804 3.365-30.161 4.526-30.161 4.526s44.095 6.043 49.853 7.008c5.77.96-.96 7.21-28.348 9.604-1.131.1-2.275.148-3.424.148-10.196 0-21.073-3.732-30.617-8.347 8.282 9.058 26.76 11.35 43.378 11.35 17.104 0 32.228-2.428 32.234-2.428-6.92 1.421-11.765 4.283-14.425 7.541 10.8-3.584 24.538-6.955 30.67-6.955.693 0 1.291.042 1.771.13 7.69 1.452-8.365 7.78-8.365 7.78s9.805-2.063 18.792-2.063c4.846 0 9.455.599 12.157 2.453 2.56 1.754-.06 4.84-4.657 8.182 4.627-1.197 9.183-2.056 13.769-2.056.965 0 1.93.035 2.897.118 17.305 1.446 28.833 23.064 28.833 23.064-4.467-20.718-18.472-38.26-33.887-53.23.735 2.352 1.096 4.378.74 5.657-.165.61-.663.877-1.41.877-5.693 0-25.972-15.77-25.972-15.776l9.384 13.027h-.1c-.972 0-9.142-.379-21.31-12.542-3.442-3.448-6.511-9.402-9.165-16.292-4.396 5.439 3.17 17.732 3.17 17.732-9.823-7.85-13.905-17.382-16.298-27.631-.646 3.181-1.517 5.7-2.696 6.973-.545.592-1.155.865-1.807.865-6.215 0-16.452-24.409-16.452-24.409.995 12.205-.847 17.436-3.661 17.436-2.613 0-6.055-4.514-8.833-12.151-1.055-2.927-1.588-7.714-1.73-13.579-2.097-8.08-2.59-17.27-2.506-26.54-2.767 10.835-5.954 19.425-9.219 19.935-.13.018-.26.03-.39.03-8.87 0-13.117-48.207-13.117-48.207s-4.272 27.998-6.191 27.998c-1.925 0-8.17-2.89-2.405-30.273a78.518 78.518 0 0 1 2.375-8.709c1.41-7.974 4.296-27.477 2.068-43.473Z"/><path fill="#bf1b64" d="M68.493 445.585c-.041.758-.041 1.535.006 2.322-.006-.758-.006-1.534-.006-2.322Z"/><path fill="#3faf72" d="M14.771 332.175c-.065 0-.118.61-.154 1.748a139.876 139.876 0 0 0-.077 4.94c0 4.26.107 10.339.527 17.638.86 14.55 3.087 34.065 8.71 52.845 1.344 4.704 2.98 9.325 4.662 13.84 1.789 4.472 3.625 8.85 5.681 12.968 4.046 8.264 8.555 15.598 12.844 21.594 4.29 5.99 8.247 10.711 11.162 13.863 1.44 1.588 2.57 2.85 3.394 3.655.818.812 1.25 1.25 1.25 1.25s.439.433 1.25 1.244c.812.836 2.068 1.973 3.656 3.413 3.128 2.95 7.873 6.872 13.768 11.28 1.505 1.06 3.063 2.18 4.68 3.33 1.659 1.083 3.365 2.215 5.125 3.376 3.548 2.305 7.476 4.497 11.617 6.51 8.288 4.041 17.495 7.412 26.695 10.611 9.2 3.2 18.396 6.31 26.773 9.805 8.388 3.466 15.912 7.394 21.86 11.535 5.972 4.088 10.332 8.335 13.147 11.487.699.8 1.32 1.51 1.86 2.133.515.64.954 1.19 1.31 1.63.692.864 1.095 1.314 1.166 1.314h.006c.053-.035-.249-.556-.877-1.528-.314-.48-.693-1.078-1.173-1.754-.51-.657-1.09-1.416-1.742-2.263-2.665-3.341-6.943-7.814-12.897-12.145-5.924-4.378-13.472-8.554-21.873-12.222-8.388-3.714-17.583-6.996-26.712-10.344-9.118-3.34-18.182-6.813-26.24-10.883-4.04-2.026-7.79-4.188-11.226-6.487a2063.096 2063.096 0 0 1-5-3.389c-1.576-1.149-3.099-2.257-4.562-3.329-5.735-4.396-10.332-8.294-13.371-11.209-1.54-1.428-2.755-2.56-3.525-3.377-.794-.8-1.22-1.232-1.22-1.232s-.427-.42-1.227-1.215c-.823-.776-1.931-1.99-3.37-3.53-2.886-3.051-6.802-7.625-11.073-13.43-4.266-5.807-8.774-12.946-12.856-20.997-2.068-4.017-3.94-8.3-5.765-12.672-1.724-4.425-3.412-8.946-4.81-13.56-5.854-18.443-8.448-37.763-9.71-52.23-.64-7.245-.966-13.3-1.197-17.548-.119-2.127-.213-3.785-.273-4.923-.082-1.143-.154-1.742-.213-1.742Z"/><path fill="#3faf72" d="M82.528 444.625c-.397 0-.954 7.892-.178 15.842.184 1.985.563 3.94.824 5.8.148.918.296 1.819.426 2.66a1018.063 1018.063 0 0 0 1.825 7.204s.172.468.504 1.28c.35.805.817 1.96 1.398 3.341.296.687.604 1.434.942 2.228.343.788.805 1.575 1.238 2.405.894 1.64 1.795 3.418 2.802 5.13 4.076 6.653 9.16 12.507 9.657 12.507.012 0 .018 0 .023-.006.457-.344-4.01-6.79-7.5-13.71-.847-1.74-1.587-3.524-2.346-5.171-.361-.83-.764-1.612-1.042-2.388-.273-.782-.534-1.522-.765-2.198-.486-1.362-.877-2.494-1.155-3.288-.284-.793-.427-1.238-.427-1.238l-1.445-4.597c-.225-.687-.456-1.434-.711-2.216-.19-.817-.38-1.665-.58-2.547-.374-1.772-.877-3.644-1.215-5.551-1.375-7.649-1.7-15.487-2.275-15.487Zm51.921 49.007c-.012 0-.018 0-.03.006-.201.077.243 1.8 1.321 4.241 1.067 2.441 2.957 5.474 5.107 8.306a75.114 75.114 0 0 0 6.57 7.198 137.43 137.43 0 0 0 3.241 3.004s1.398 1.06 3.49 2.66c2.103 1.564 4.946 3.578 7.778 5.575 2.832 2.014 5.646 4.017 7.743 5.557 1.926 1.41 3.276 2.4 3.614 2.4.03 0 .048-.013.065-.024.16-.16-.942-1.547-2.79-3.413-1.848-1.878-4.455-4.212-7.11-6.481a2810.234 2810.234 0 0 1-7.286-6.15 1528.515 1528.515 0 0 1-3.253-2.825s-1.35-1.055-3.323-2.702a87.556 87.556 0 0 1-6.849-6.41c-2.298-2.512-4.42-5.196-5.806-7.364-1.356-2.08-2.204-3.578-2.482-3.578ZM48.64 377.585c-.23 0-1.315 2.566-2.594 6.5-.557 2.02-1.35 4.354-1.86 6.937-.29 1.285-.575 2.612-.877 3.97-.22 1.356-.456 2.748-.682 4.128-.26 1.38-.426 2.779-.574 4.153-.154 1.375-.308 2.726-.456 4.04-.16 2.631-.41 5.09-.45 7.199-.048 2.103-.13 3.857-.13 5.089l.017 1.937s.041.7.095 1.932c.035.616.017 1.344.136 2.221.112.865.237 1.843.373 2.915.184 2.162.871 4.55 1.416 7.15.74 2.536 1.475 5.256 2.405 7.898 1.748 5.302 3.703 10.492 4.817 14.467.646 1.979 1.001 3.661 1.31 4.828.319 1.162.544 1.831.669 1.831h.005c.113-.012.119-.717.03-1.937-.089-1.22-.225-2.992-.681-5.042-.735-4.153-2.346-9.514-3.78-14.864-.764-2.66-1.35-5.344-1.949-7.838-.391-2.524-.96-4.858-1.03-6.866-.09-1.002-.173-1.92-.238-2.737-.083-.806-.03-1.558-.06-2.15-.005-1.198-.011-1.89-.011-1.89l-.083-1.879c-.047-1.214-.035-2.926-.077-5-.053-2.056.083-4.467.119-7.056.083-1.285.165-2.618.242-3.97.077-1.356.172-2.73.338-4.099.148-1.374.296-2.743.427-4.094.201-1.338.397-2.66.592-3.945.32-2.571.918-4.917 1.262-6.967.883-4.058 1.54-6.772 1.286-6.855l-.006-.006ZM-6.776 396.3c-.035 0-.065.006-.077.03-.124.201 1.47 1.534 3.922 3.418.61.468 1.274.966 1.973 1.505a194.51 194.51 0 0 1 2.127 1.801c1.463 1.256 3.08 2.518 4.597 3.893 3.016 2.796 6.079 5.51 8.205 7.749 2.175 2.174 3.626 3.613 3.626 3.613s1.457 1.44 3.655 3.596c2.264 2.098 5.007 5.143 7.85 8.123 1.386 1.528 2.69 3.11 3.975 4.55.64.728 1.25 1.433 1.843 2.091.55.693 1.072 1.345 1.546 1.95 1.866 2.316 3.223 3.85 3.501 3.85.012 0 .024 0 .03-.006.207-.13-.788-1.955-2.429-4.645-.403-.663-.847-1.392-1.321-2.156-.515-.735-1.066-1.505-1.623-2.299-1.15-1.57-2.34-3.294-3.626-4.94-2.63-3.224-5.237-6.494-7.405-8.757a5049.799 5049.799 0 0 0-3.531-3.863l-3.88-3.477c-2.276-2.139-5.582-4.716-8.84-7.305-1.653-1.268-3.395-2.417-5-3.543-.8-.55-1.588-1.084-2.322-1.587-.765-.445-1.505-.877-2.18-1.274-2.465-1.41-4.219-2.317-4.616-2.317Zm22.323 58.403c-.023 0-.041.006-.053.023-.302.344 6.535 6.648 13.97 12.264 3.797 2.69 7.541 5.48 10.533 7.299 2.956 1.872 4.917 3.128 4.917 3.128s.522.272 1.434.74c.9.462 2.204 1.126 3.768 1.92 3.075 1.676 7.393 3.495 11.665 5.367 7.968 3.223 16.262 5.368 17.66 5.368.125 0 .196-.018.202-.054.065-.237-2.068-1.185-5.273-2.47-.8-.308-1.676-.658-2.595-1.013-.912-.385-1.848-.847-2.837-1.286-1.961-.912-4.07-1.825-6.144-2.814-4.082-2.133-8.211-4.135-11.15-5.942l-4.976-2.867-4.977-2.844c-3.039-1.63-6.86-4.177-10.8-6.57-7.447-4.864-14.574-10.25-15.344-10.25Zm32.555 51.127c-.095 0-.154.018-.166.053-.083.208 2.174 1.339 5.71 2.708 3.532 1.35 8.402 2.796 13.348 3.868 4.953 1.031 9.965 1.801 13.733 2.198 1.884.249 3.454.356 4.556.474 1.102.095 1.73.16 1.73.16s2.518.071 6.297.184c2.743.053 6.138.077 9.71.077 1.357 0 2.737-.006 4.118-.012 5.006-.006 10.018-.012 13.78-.012h.877c3.264 0 5.397-.041 5.42-.267.024-.237-2.47-.67-6.22-1.12-3.762-.426-8.78-.793-13.792-1.101-5-.296-10.006-.605-13.75-.824-3.739-.266-6.227-.45-6.227-.45s-.628-.041-1.712-.089c-1.084-.065-2.642-.1-4.497-.255-3.726-.213-8.661-.716-13.578-1.41a145.103 145.103 0 0 1-13.39-2.725c-3.11-.823-5.331-1.457-5.947-1.457Zm100.565 20.433c-1.753 0-3.382.083-4.769.178-2.642.225-4.401.462-4.401.462s-.427.095-1.185.26c-.735.178-1.831.374-3.093.723-2.56.67-5.924 1.67-9.194 2.891-6.57 2.394-12.714 5.694-12.513 6.12.018.036.077.053.172.053 1.072 0 7.015-2.21 13.087-3.809 3.312-.9 6.63-1.623 9.141-2.091 1.238-.249 2.299-.373 3.028-.504.716-.112 1.137-.183 1.137-.183s1.67-.32 4.165-.717c2.31-.314 5.35-.664 8.454-.664.26 0 .521 0 .782.006 3.347.089 6.73.439 9.17 1.144 1.263.219 2.228.651 2.969.829.504.13.87.207 1.072.207.09 0 .148-.012.16-.047.071-.107-.278-.391-.924-.788-.658-.391-1.582-1.049-2.838-1.487-2.417-1.15-5.924-1.896-9.449-2.322a44.818 44.818 0 0 0-4.97-.261Z"/><path fill="#191919" fill-opacity=".14" d="M58.813 380.625c-1.232 0-2.346 2.138-2.518 4.846-.166 2.749.687 5.053 1.937 5.124a.289.289 0 0 0 .071.006c1.22 0 2.34-2.138 2.524-4.858.172-2.749-.693-5.041-1.943-5.118h-.071Zm-.83 15.077c-1.522 0-3.098 2.583-3.572 5.93-.51 3.502.367 6.517 1.961 6.742.065.012.13.018.195.018 1.523 0 3.093-2.583 3.585-5.936.497-3.496-.38-6.511-1.973-6.742-.065-.006-.13-.012-.196-.012Zm32.17 44.178a1.03 1.03 0 0 0-.231.03c-1.233.266-1.742 2.666-1.138 5.373.557 2.524 1.884 4.414 3.063 4.414.077 0 .154-.006.231-.024 1.22-.279 1.73-2.678 1.138-5.38-.563-2.517-1.896-4.413-3.063-4.413Zm3.483 14.704c-.06 0-.124 0-.184.012-1.581.22-2.47 3.247-1.978 6.736.468 3.36 2.038 5.948 3.578 5.948.06 0 .119-.006.184-.012 1.582-.219 2.458-3.24 1.978-6.742-.473-3.359-2.043-5.942-3.578-5.942ZM-8.79 400.572c-.38 0-.71.095-.977.302-1.268.983-.534 4.046 1.617 6.837 1.7 2.21 3.791 3.596 5.22 3.596.384 0 .716-.095.983-.302 1.262-.972.545-4.04-1.612-6.837-1.706-2.21-3.797-3.596-5.231-3.596Zm11.363 13.727c-.356 0-.658.1-.883.302-.924.835-.183 3.175 1.677 5.231 1.398 1.546 3.027 2.488 4.14 2.488.356 0 .659-.1.878-.302.936-.835.19-3.17-1.67-5.237-1.4-1.54-3.034-2.482-4.142-2.482Zm3.128 37.957c-.592 0-1.072.172-1.392.527-1.06 1.185.201 4.064 2.832 6.428 1.86 1.665 3.904 2.625 5.32 2.625.592 0 1.072-.166 1.386-.522 1.072-1.19-.201-4.064-2.832-6.422-1.86-1.67-3.898-2.636-5.314-2.636Zm13.626 11.446c-.557 0-.995.16-1.25.492-.758.995.397 3.163 2.595 4.846 1.457 1.107 2.998 1.724 4.088 1.724.557 0 .995-.16 1.25-.498.77-.99-.391-3.152-2.595-4.84-1.446-1.108-2.992-1.724-4.088-1.724Zm32.163 47.365c-1.937 0-3.388.563-3.667 1.594-.415 1.54 2.014 3.53 5.427 4.46 1.15.309 2.263.457 3.252.457 1.943 0 3.4-.569 3.68-1.594.42-1.546-2.015-3.543-5.421-4.46-1.162-.309-2.281-.457-3.27-.457Zm17.193 4.088c-1.849 0-3.259.557-3.43 1.487-.231 1.226 1.777 2.642 4.496 3.152.664.124 1.31.183 1.902.183 1.848 0 3.252-.569 3.424-1.499.237-1.22-1.771-2.63-4.496-3.145a10.317 10.317 0 0 0-1.896-.178Zm72.312 22.175c-.414 0-.84.023-1.28.077-2.73.331-4.834 1.593-4.685 2.837.124 1.043 1.8 1.742 3.975 1.742.403 0 .823-.024 1.256-.077 2.737-.326 4.834-1.594 4.692-2.844-.119-1.042-1.795-1.735-3.958-1.735Zm-16.937 1.155c-.19 0-.38 0-.575.006-3.537.142-6.345 1.546-6.28 3.163.06 1.511 2.678 2.649 5.942 2.649.184 0 .374-.006.57-.012 3.53-.154 6.338-1.558 6.279-3.158-.065-1.517-2.678-2.648-5.936-2.648Zm-97.93-212.157a1.02 1.02 0 0 0-.23.024c-1.227.272-1.73 2.677-1.138 5.379.562 2.518 1.895 4.402 3.068 4.402a.994.994 0 0 0 .226-.024c1.22-.272 1.735-2.666 1.137-5.373-.557-2.518-1.89-4.408-3.063-4.408Zm3.484 14.704a.963.963 0 0 0-.184.018c-1.582.213-2.47 3.235-1.985 6.73.468 3.365 2.038 5.954 3.579 5.954a.946.946 0 0 0 .183-.018c1.588-.225 2.47-3.234 1.985-6.736-.474-3.359-2.038-5.948-3.578-5.948Zm102.242 146.663c-.58 0-1.043.172-1.297.522-.753 1.007.444 3.151 2.677 4.798 1.452 1.06 2.98 1.647 4.07 1.647.581 0 1.037-.165 1.292-.515.746-1.007-.444-3.158-2.678-4.793-1.445-1.066-2.974-1.659-4.064-1.659Zm12.453 8.721c-.616 0-1.114.172-1.434.545-1.048 1.203.267 4.064 2.945 6.375 1.86 1.611 3.886 2.535 5.302 2.535.61 0 1.114-.172 1.428-.539 1.048-1.214-.273-4.064-2.939-6.38-1.86-1.612-3.892-2.536-5.302-2.536Z"/><path fill="#ffba31" d="M29.142 512.435a6.582 6.582 0 0 0-3.744-4.7 6.586 6.586 0 0 0-8.728 3.283 6.565 6.565 0 0 0-.458 4.021 6.593 6.593 0 0 0 3.745 4.702c3.32 1.505 7.224.027 8.732-3.285a6.57 6.57 0 0 0 .453-4.02Z"/><path fill="#191919" fill-opacity=".14" d="M29.139 512.44a6.576 6.576 0 0 0-3.75-4.704 6.58 6.58 0 0 0-8.723 3.283 6.56 6.56 0 0 0-.454 4.02 6.589 6.589 0 0 0 3.74 4.702c.106.049.21.08.318.12a5.807 5.807 0 0 1-.923-2.158 5.664 5.664 0 0 1 .391-3.484 5.772 5.772 0 0 1 7.637-2.882 5.686 5.686 0 0 1 1.802 1.293l-.038-.19Z"/><path fill="#191919" fill-opacity=".14" d="M26.009 516.663a2.178 2.178 0 0 0-1.229-1.549 2.172 2.172 0 0 0-2.874 1.077 2.19 2.19 0 0 0-.147 1.325 2.159 2.159 0 0 0 1.232 1.548 2.165 2.165 0 0 0 3.018-2.4Zm.961-3.677a.979.979 0 0 0-.568-.708 1.016 1.016 0 0 0-1.338.499 1.013 1.013 0 0 0 .511 1.336 1 1 0 0 0 1.328-.506c.09-.202.108-.42.067-.621Z"/><path fill="#ffba31" d="M53.955 331.656a6.599 6.599 0 0 0-5.81 3.46c-1.729 3.204-.536 7.209 2.667 8.933a6.597 6.597 0 0 0 8.937-2.667c1.728-3.2.531-7.2-2.664-8.933a6.553 6.553 0 0 0-3.13-.793Z"/><path fill="#191919" fill-opacity=".14" d="M56.777 332.312c.999 1.681 1.127 3.825.133 5.665a5.77 5.77 0 0 1-5.086 3.027 5.697 5.697 0 0 1-4.438-2.101 6.627 6.627 0 0 0 3.426 5.15c.999.54 2.075.798 3.134.798a6.59 6.59 0 0 0 5.802-3.46 6.599 6.599 0 0 0-2.663-8.933c-.107-.056-.21-.099-.308-.146Z"/><path fill="#191919" fill-opacity=".14" d="M52.986 332.655a2.165 2.165 0 0 0-1.034 4.074c.33.18.682.261 1.034.261a2.16 2.16 0 0 0 1.908-1.136 2.174 2.174 0 0 0-.879-2.942 2.18 2.18 0 0 0-1.03-.257Zm-2.371 4.897c-.356 0-.704.193-.884.532a.998.998 0 0 0 .88 1.484c.355 0 .707-.189.887-.528a1 1 0 0 0-.407-1.363.998.998 0 0 0-.476-.125Z"/><path fill="#88ad25" d="M102.672 427.16h-.142a4.823 4.823 0 0 0-4.683 4.945 4.819 4.819 0 0 0 4.807 4.683c.048 0 .095 0 .138-.004a4.806 4.806 0 0 0 4.678-4.945 4.808 4.808 0 0 0-4.798-4.678Z"/><path fill="#191919" fill-opacity=".14" d="M102.689 427.17h-.155a4.811 4.811 0 0 0-4.682 4.94 4.824 4.824 0 0 0 4.815 4.686c.043 0 .086 0 .129-.004.086-.004.159-.017.244-.021a4.202 4.202 0 0 1-2.148-3.542 4.203 4.203 0 0 1 4.095-4.327c.043-.004.082-.004.125-.004.51 0 1.003.098 1.466.27-.879-1.205-2.294-1.999-3.89-1.999Z"/><path fill="#191919" fill-opacity=".14" d="M104.524 432.212h-.043a1.588 1.588 0 0 0-1.548 1.621 1.59 1.59 0 0 0 1.587 1.548c.013 0 .03-.004.047-.004a1.59 1.59 0 0 0 1.544-1.63 1.587 1.587 0 0 0-1.587-1.535Zm.142-2.388h-.026a.734.734 0 0 0-.716.755.74.74 0 0 0 .733.716c.009 0 .017 0 .026-.005a.733.733 0 0 0-.017-1.466Z"/><path fill="#e21c54" d="M53.95 540.003c-2.947 0-5.52 2.179-5.923 5.18a5.965 5.965 0 0 0 5.116 6.724 5.975 5.975 0 0 0 6.728-5.116 5.98 5.98 0 0 0-5.111-6.736 6.531 6.531 0 0 0-.81-.052Z"/><path fill="#191919" fill-opacity=".14" d="M57.937 541.521c.163.635.219 1.312.12 2.003A5.226 5.226 0 0 1 52.17 548c-1.883-.25-3.384-1.493-4.087-3.126-.021.107-.043.201-.056.308a5.965 5.965 0 0 0 5.116 6.724 5.975 5.975 0 0 0 6.728-5.116 5.976 5.976 0 0 0-1.934-5.27Z"/><path fill="#191919" fill-opacity=".14" d="M51.942 541.474c-.969 0-1.813.72-1.942 1.698a1.973 1.973 0 0 0 1.947 2.243c.977 0 1.822-.72 1.95-1.711a1.96 1.96 0 0 0-1.68-2.213c-.094-.008-.185-.017-.275-.017Zm4.023 1.316a.916.916 0 0 0-.129 1.823c.043.004.082.004.124.004.45 0 .84-.334.91-.789a.915.915 0 0 0-.785-1.029c-.043-.009-.082-.009-.12-.009Z"/><path fill="#e21c54" d="M113.926 454.628c-2.946 0-5.52 2.178-5.922 5.18a5.965 5.965 0 0 0 5.115 6.724 5.975 5.975 0 0 0 6.728-5.116 5.98 5.98 0 0 0-5.11-6.737 6.531 6.531 0 0 0-.811-.051Z"/><path fill="#191919" fill-opacity=".14" d="M117.914 456.146a5.13 5.13 0 0 1 .12 2.002 5.226 5.226 0 0 1-5.888 4.477c-1.882-.248-3.383-1.492-4.087-3.126-.021.107-.042.202-.055.309a5.965 5.965 0 0 0 5.115 6.724 5.975 5.975 0 0 0 6.728-5.116 5.976 5.976 0 0 0-1.933-5.27Z"/><path fill="#191919" fill-opacity=".14" d="M111.919 456.099c-.97 0-1.814.72-1.943 1.698a1.973 1.973 0 0 0 1.947 2.242c.978 0 1.823-.72 1.951-1.71a1.96 1.96 0 0 0-1.68-2.213 2.918 2.918 0 0 0-.275-.017Zm4.022 1.316a.916.916 0 0 0-.129 1.822c.043.005.082.005.125.005.45 0 .84-.335.909-.79a.915.915 0 0 0-.785-1.028c-.043-.009-.081-.009-.12-.009Z"/><path fill="#e21c54" d="M76.436 366.704c-2.946 0-5.519 2.178-5.922 5.18a5.965 5.965 0 0 0 5.116 6.724 5.975 5.975 0 0 0 6.728-5.116 5.98 5.98 0 0 0-5.111-6.737 6.531 6.531 0 0 0-.81-.051Z"/><path fill="#191919" fill-opacity=".14" d="M80.424 368.222c.163.635.219 1.312.12 2.002a5.226 5.226 0 0 1-5.887 4.477c-1.883-.248-3.384-1.492-4.087-3.126-.022.107-.043.202-.056.309a5.965 5.965 0 0 0 5.116 6.724 5.975 5.975 0 0 0 6.728-5.116 5.976 5.976 0 0 0-1.934-5.27Z"/><path fill="#191919" fill-opacity=".14" d="M74.43 368.175c-.97 0-1.815.72-1.943 1.698a1.973 1.973 0 0 0 1.947 2.243c.977 0 1.822-.72 1.95-1.711a1.96 1.96 0 0 0-1.68-2.213 2.918 2.918 0 0 0-.275-.017Zm4.022 1.316a.916.916 0 0 0-.129 1.822.927.927 0 0 0 1.034-.784.915.915 0 0 0-.785-1.03c-.043-.008-.082-.008-.12-.008Z"/><path fill="#ffba31" d="M90.29 404.572a6.613 6.613 0 0 0-3.855 1.244 6.59 6.59 0 0 0-1.496 9.206 6.582 6.582 0 0 0 5.356 2.74 6.583 6.583 0 0 0 3.855-1.243c2.946-2.131 3.619-6.252 1.488-9.203a6.56 6.56 0 0 0-5.348-2.744Z"/><path fill="#191919" fill-opacity=".14" d="M90.286 404.568a6.6 6.6 0 0 0-3.85 1.243 6.6 6.6 0 0 0-1.497 9.203c.072.094.145.18.214.266-.163-1.947.656-3.933 2.358-5.155a5.722 5.722 0 0 1 3.358-1.089c1.793 0 3.56.832 4.691 2.397a5.8 5.8 0 0 1 .914 2.011 6.585 6.585 0 0 0-.836-6.132 6.573 6.573 0 0 0-5.352-2.744Z"/><path fill="#191919" fill-opacity=".14" d="M89.66 412.506a2.16 2.16 0 0 0-1.27.407 2.173 2.173 0 0 0-.492 3.032 2.177 2.177 0 0 0 3.031.493 2.174 2.174 0 0 0 .494-3.032 2.16 2.16 0 0 0-1.763-.9Zm3.761-1.166c-.201 0-.407.06-.587.183a1.008 1.008 0 1 0 1.183 1.634.996.996 0 0 0 .227-1.402 1.004 1.004 0 0 0-.823-.416Z"/><path fill="#88ad25" d="M76.446 394.851h-.142a4.823 4.823 0 0 0-4.682 4.944 4.819 4.819 0 0 0 4.807 4.683c.047 0 .094 0 .137-.004a4.806 4.806 0 0 0 4.678-4.944 4.808 4.808 0 0 0-4.798-4.679Z"/><path fill="#191919" fill-opacity=".14" d="M76.463 394.86h-.154a4.811 4.811 0 0 0-4.683 4.94 4.824 4.824 0 0 0 4.816 4.687c.042 0 .085 0 .128-.005.086-.004.159-.017.245-.021a4.202 4.202 0 0 1-2.149-3.542c-.073-2.329 1.767-4.262 4.095-4.327.043-.004.082-.004.125-.004.51 0 1.003.099 1.466.27-.879-1.205-2.294-1.998-3.889-1.998Z"/><path fill="#191919" fill-opacity=".14" d="M78.298 399.903h-.043a1.587 1.587 0 0 0-1.548 1.62 1.59 1.59 0 0 0 1.587 1.549c.013 0 .03-.005.047-.005a1.59 1.59 0 0 0 1.544-1.63 1.587 1.587 0 0 0-1.587-1.534Zm.142-2.389h-.026a.734.734 0 0 0-.716.755.74.74 0 0 0 .733.716c.009 0 .017 0 .026-.004a.733.733 0 0 0-.017-1.467Z"/><path fill="#88ad25" d="M74.89 344.86h-.142a4.823 4.823 0 0 0-4.683 4.945 4.819 4.819 0 0 0 4.807 4.682c.047 0 .095 0 .137-.004a4.806 4.806 0 0 0 4.679-4.944 4.808 4.808 0 0 0-4.799-4.679Z"/><path fill="#191919" fill-opacity=".14" d="M74.907 344.869h-.155a4.811 4.811 0 0 0-4.682 4.94 4.824 4.824 0 0 0 4.815 4.687c.043 0 .086 0 .129-.004.086-.005.158-.018.244-.022a4.202 4.202 0 0 1-2.148-3.542c-.073-2.328 1.767-4.262 4.095-4.327.043-.004.082-.004.124-.004.51 0 1.004.099 1.467.27-.88-1.205-2.294-1.998-3.89-1.998Z"/><path fill="#191919" fill-opacity=".14" d="M76.742 349.912h-.043a1.587 1.587 0 0 0-1.548 1.62 1.59 1.59 0 0 0 1.587 1.549c.013 0 .03-.004.047-.004a1.59 1.59 0 0 0 1.544-1.63 1.587 1.587 0 0 0-1.587-1.535Zm.141-2.389h-.025a.734.734 0 0 0-.716.755.74.74 0 0 0 .733.716c.008 0 .017 0 .026-.004a.733.733 0 0 0-.018-1.467Z"/><path fill="#88ad25" d="M50.127 299.704h-.142a4.823 4.823 0 0 0-4.682 4.944 4.819 4.819 0 0 0 4.807 4.683c.047 0 .094 0 .137-.004a4.806 4.806 0 0 0 4.678-4.944 4.808 4.808 0 0 0-4.798-4.679Z"/><path fill="#191919" fill-opacity=".14" d="M50.144 299.713h-.154a4.811 4.811 0 0 0-4.683 4.94 4.824 4.824 0 0 0 4.816 4.687c.043 0 .085 0 .128-.005.086-.004.159-.017.245-.021a4.202 4.202 0 0 1-2.149-3.542c-.073-2.328 1.767-4.262 4.096-4.327.042-.004.081-.004.124-.004.51 0 1.003.099 1.467.27-.88-1.205-2.295-1.998-3.89-1.998Z"/><path fill="#191919" fill-opacity=".14" d="M51.98 304.756h-.043c-.88.021-1.566.75-1.548 1.62a1.59 1.59 0 0 0 1.586 1.549c.013 0 .03-.005.047-.005a1.59 1.59 0 0 0 1.544-1.63 1.587 1.587 0 0 0-1.587-1.534Zm.141-2.389h-.026a.734.734 0 0 0-.716.755.74.74 0 0 0 .733.716c.009 0 .018 0 .026-.004a.733.733 0 0 0-.017-1.467Z"/><path fill="#88ad25" d="M20.089 485.426h-.142a4.823 4.823 0 0 0-4.682 4.944 4.819 4.819 0 0 0 4.807 4.683c.047 0 .094 0 .137-.004a4.806 4.806 0 0 0 4.678-4.945 4.808 4.808 0 0 0-4.798-4.678Z"/><path fill="#191919" fill-opacity=".14" d="M20.106 485.435h-.154a4.811 4.811 0 0 0-4.683 4.94 4.824 4.824 0 0 0 4.816 4.687c.042 0 .085 0 .128-.005.086-.004.159-.017.245-.021a4.202 4.202 0 0 1-2.149-3.542c-.073-2.329 1.767-4.263 4.096-4.327.042-.004.081-.004.124-.004.51 0 1.003.098 1.466.27-.879-1.205-2.294-1.998-3.889-1.998Z"/><path fill="#191919" fill-opacity=".14" d="M21.941 490.477H21.9c-.88.022-1.566.75-1.549 1.621a1.59 1.59 0 0 0 1.587 1.548c.013 0 .03-.004.047-.004a1.59 1.59 0 0 0 1.544-1.63 1.587 1.587 0 0 0-1.587-1.535Zm.142-2.388h-.026a.734.734 0 0 0-.716.755.74.74 0 0 0 .733.716c.009 0 .017 0 .026-.004a.733.733 0 0 0-.017-1.467Z"/><path fill="#88ad25" d="M35.669 523.887h-.142a4.823 4.823 0 0 0-4.682 4.944 4.819 4.819 0 0 0 4.807 4.683c.047 0 .094 0 .137-.005a4.806 4.806 0 0 0 4.678-4.944 4.808 4.808 0 0 0-4.798-4.678Z"/><path fill="#191919" fill-opacity=".14" d="M35.686 523.895h-.154a4.811 4.811 0 0 0-4.683 4.94 4.824 4.824 0 0 0 4.816 4.687c.043 0 .085 0 .128-.004.086-.004.159-.017.245-.022a4.202 4.202 0 0 1-2.149-3.542c-.073-2.328 1.767-4.262 4.096-4.326.042-.005.081-.005.124-.005.51 0 1.003.099 1.466.27-.879-1.205-2.294-1.998-3.889-1.998Z"/><path fill="#191919" fill-opacity=".14" d="M37.521 528.938h-.042c-.88.022-1.566.75-1.548 1.621a1.59 1.59 0 0 0 1.586 1.548c.013 0 .03-.004.047-.004a1.59 1.59 0 0 0 1.544-1.63 1.587 1.587 0 0 0-1.587-1.535Zm.142-2.388h-.026a.734.734 0 0 0-.716.754.74.74 0 0 0 .733.716c.009 0 .018 0 .026-.004a.733.733 0 0 0-.017-1.466Z"/><path fill="#ffba31" d="M1085.327 156.128c-139.782-38.41-268.81-111.917-373.13-212.552l-2.353 2.432c104.73 101.03 234.258 174.82 374.579 213.389l.904-3.269Z"/><path fill="#e21c54" d="M753.027-7.49c.22.449.28.874.172 1.27a2.587 2.587 0 0 1-.516 1.015 4.758 4.758 0 0 1-.649.655c-.197.166-.423.33-.687.512-.582.4-1.126.715-1.625.919 1.391-.066 2.578.146 3.577.613.397.179.685.384.878.602.087.099.152.2.197.302.144.341.212.678.216 1.002-.522.498-1.128.682-1.808.534-.694-.155-1.504-.63-2.455-1.432a7.617 7.617 0 0 1-.816-.762c-.044-.05-.084-.094-.114-.138.398 1.018.608 1.982.617 2.91.005.863-.165 1.5-.523 1.924a2.06 2.06 0 0 1-.96.621 3.022 3.022 0 0 1-.564-.385.795.795 0 0 1-.088-.09c-.14-.158-.253-.385-.325-.675a3.477 3.477 0 0 1-.072-1.219c.108-1.015.504-2.065 1.154-3.136-1.35 1.1-2.623 1.68-3.812 1.734-.452.039-.816-.063-1.084-.294a3.944 3.944 0 0 1-.417-.391 1.437 1.437 0 0 1-.152-.201c.064-.357.255-.73.568-1.096.302-.357.88-.603 1.707-.718.828-.123 1.827-.054 3.001.214l-.375-.234a7.09 7.09 0 0 1-1.376-1.203l-.053-.06c-.424-.498-.717-.938-.887-1.3-.324-.773-.258-1.477.211-2.115.572-.082 1.08.051 1.499.414.12.106.235.216.345.34.724.816 1.16 2.056 1.29 3.738.189-.734.443-1.385.782-1.94.338-.566.626-.99.868-1.275.625-.731 1.37-.958 2.276-.655Zm-31.684-28.974c.235.455.285.88.181 1.272-.113.4-.278.733-.52 1.019a5.311 5.311 0 0 1-.649.654 8.732 8.732 0 0 1-.691.507 8.265 8.265 0 0 1-1.622.925c1.387-.062 2.58.145 3.578.613.392.183.684.383.873.596.092.104.156.206.206.313.14.336.213.678.212 1.006-.523.498-1.129.682-1.813.52-.694-.155-1.504-.63-2.45-1.428a8.49 8.49 0 0 1-.847-.796l-.088-.099c.394 1.013.607 1.982.617 2.91.014.854-.16 1.495-.513 1.915a2.034 2.034 0 0 1-.971.63 3.167 3.167 0 0 1-.548-.389c-.036-.03-.072-.06-.103-.095a1.537 1.537 0 0 1-.32-.67c-.1-.354-.113-.767-.077-1.215.118-1.024.504-2.074 1.16-3.15-1.35 1.1-2.618 1.675-3.804 1.745-.451.029-.816-.073-1.088-.3a3.756 3.756 0 0 1-.408-.39 2.618 2.618 0 0 1-.157-.197c.06-.372.25-.726.568-1.096.303-.366.87-.604 1.703-.732.827-.114 1.83-.04 2.991.222l-.36-.237a6.831 6.831 0 0 1-1.372-1.198l-.057-.064c-.434-.5-.727-.93-.888-1.3-.324-.765-.267-1.479.216-2.11a1.815 1.815 0 0 1 1.499.413c.116.1.23.21.336.33.725.816 1.16 2.066 1.298 3.747.19-.733.44-1.389.773-1.94.334-.562.632-.994.873-1.27.626-.74 1.375-.963 2.262-.66Zm9.252 23.022c.667 1.301.836 2.54.522 3.702-.318 1.157-.822 2.144-1.5 2.957-.69.816-1.314 1.449-1.89 1.915a32.1 32.1 0 0 1-2.003 1.493c-1.679 1.188-3.251 2.077-4.708 2.679 4.042-.179 7.508.409 10.403 1.778 1.135.523 1.982 1.099 2.535 1.723.263.297.46.609.591.926.419.99.632 1.97.64 2.916-1.508 1.47-3.273 1.983-5.276 1.53-2.003-.444-4.39-1.83-7.141-4.165-1.089-.918-1.9-1.684-2.432-2.283-.1-.114-.197-.223-.28-.327 1.163 2.958 1.762 5.778 1.798 8.452.028 2.495-.474 4.373-1.513 5.595-.726.865-1.663 1.465-2.794 1.814a9.141 9.141 0 0 1-1.635-1.115 3.503 3.503 0 0 1-.27-.265c-.413-.465-.73-1.122-.955-1.974-.28-1.034-.35-2.2-.204-3.533.328-2.97 1.45-6.025 3.363-9.163-3.91 3.21-7.607 4.905-11.072 5.077-1.309.09-2.355-.203-3.136-.854a12.745 12.745 0 0 1-1.245-1.195 5.394 5.394 0 0 1-.428-.532c.2-1.062.747-2.13 1.645-3.192.898-1.052 2.552-1.75 4.959-2.097 2.401-.343 5.314-.13 8.722.632l-1.064-.692a20.006 20.006 0 0 1-4.009-3.494l-.158-.178c-1.253-1.463-2.124-2.715-2.594-3.793-.951-2.26-.749-4.306.61-6.156 1.655-.247 3.116.155 4.36 1.21.358.302.69.627 1.006.983 2.107 2.377 3.356 6 3.76 10.885.541-2.124 1.287-4.015 2.27-5.638.99-1.647 1.823-2.872 2.52-3.693 1.806-2.14 4.01-2.777 6.603-1.928Zm-8.154 41.92c.23.45.29.876.177 1.268-.114.41-.279.742-.516 1.014-.232.277-.447.503-.648.655a8.581 8.581 0 0 1-.687.512c-.573.41-1.122.72-1.621.924 1.387-.071 2.578.146 3.577.613.392.183.684.384.877.601.084.095.148.197.198.303.139.346.212.678.22 1.007-.54.506-1.137.672-1.826.523-.699-.15-1.504-.63-2.45-1.427a8.112 8.112 0 0 1-.826-.762c-.044-.05-.074-.094-.11-.133.4 1.008.599 1.981.623 2.906.004.863-.175 1.499-.523 1.923-.257.29-.57.505-.961.622a2.552 2.552 0 0 1-.563-.385.884.884 0 0 1-.093-.095c-.14-.159-.249-.38-.325-.676-.096-.348-.118-.762-.077-1.214.113-1.02.504-2.065 1.16-3.14-1.347 1.104-2.614 1.68-3.799 1.74-.457.033-.816-.064-1.084-.295a3.955 3.955 0 0 1-.417-.391 1.31 1.31 0 0 1-.147-.196c.059-.362.254-.73.567-1.096.298-.362.871-.613 1.698-.728.828-.123 1.826-.044 3.001.214l-.37-.229a6.879 6.879 0 0 1-1.376-1.203l-.053-.06c-.425-.498-.722-.933-.892-1.304-.32-.77-.258-1.469.216-2.11.568-.088 1.075.045 1.499.413.12.105.235.215.34.334.73.822 1.161 2.057 1.299 3.748.185-.738.44-1.389.773-1.95.339-.565.631-.984.868-1.265.626-.74 1.38-.957 2.271-.66Zm-33.03-26.62c.222.449.276.87.173 1.261-.104.411-.28.743-.516 1.014a4.339 4.339 0 0 1-.644.66 8.56 8.56 0 0 1-.691.507c-.583.41-1.122.72-1.626.929 1.391-.067 2.583.141 3.577.604.397.188.69.388.882.606.088.099.152.201.198.303.134.34.207.682.211 1.006-.522.498-1.128.673-1.816.514-.686-.144-1.51-.625-2.456-1.422a9.342 9.342 0 0 1-.842-.8l-.083-.095c.398 1.018.607 1.982.612 2.905.015.854-.165 1.5-.518 1.92-.252.293-.57.504-.966.625a3.066 3.066 0 0 1-.65-.475c-.141-.158-.25-.38-.32-.68a3.422 3.422 0 0 1-.074-1.209c.118-1.024.495-2.075 1.16-3.15-1.346 1.105-2.613 1.68-3.808 1.749-.442.03-.807-.072-1.084-.295a5.246 5.246 0 0 1-.42-.414 2.475 2.475 0 0 1-.149-.178c.074-.366.255-.73.572-1.1.304-.366.871-.604 1.713-.722.822-.12 1.821-.05 2.986.217l-.365-.242a6.762 6.762 0 0 1-1.371-1.198l-.053-.06c-.43-.494-.731-.934-.887-1.3-.324-.774-.263-1.473.211-2.115a1.788 1.788 0 0 1 1.494.418c.12.106.235.216.345.34.724.816 1.151 2.056 1.29 3.738a7.14 7.14 0 0 1 .776-1.936c.334-.562.623-.994.864-1.27.626-.74 1.38-.958 2.275-.656Zm76.739-7.693-50.02-42.782-50.338 59.212 31.49 11.61 19.083 31.178L766.15-5.835Z"/><path fill="#ef519e" d="m743.94-24.84-13.592-11.631c-2.99 1.236-6.658 2.754-10.725 4.441.73.096 1.41.263 1.997.547.392.183.68.378.87.591.091.104.156.206.205.312.144.342.213.679.221 1.007-.531.498-1.123.678-1.812.52-.699-.15-1.51-.626-2.45-1.427a8.032 8.032 0 0 1-.795-.747l-.048-.054a.132.132 0 0 0-.053.03c.368.973.566 1.894.578 2.786.009.858-.165 1.5-.519 1.918a2.04 2.04 0 0 1-.96.622 2.501 2.501 0 0 1-.559-.38.934.934 0 0 1-.098-.09c-.14-.159-.253-.386-.32-.68-.1-.353-.118-.762-.077-1.214.096-.81.404-1.65.84-2.504-7.629 3.164-16.286 6.745-24.18 10.02L670.509 5.044l38.496-15.667c-.322-1.66.02-3.21 1.071-4.637 1.656-.247 3.117.155 4.362 1.21.312.262.604.551.886.85l28.617-11.64ZM765.696-5.3c-2.197.904-6.163 2.555-11.124 4.61.003.033.03.063.027.1-.467.45-.994.625-1.598.55-.986.406-2 .827-3.034 1.257-.072.507-.228.92-.48 1.223-.257.29-.565.5-.962.622a2.689 2.689 0 0 1-.562-.385.565.565 0 0 1-.076-.075 1.324 1.324 0 0 1-.236-.427 77851.61 77851.61 0 0 1-26.14 10.822c-.252.993-.635 1.818-1.18 2.46-.722.862-1.667 1.47-2.79 1.81-.545-.276-1.085-.655-1.63-1.11a2.917 2.917 0 0 1-.243-.244 3.924 3.924 0 0 1-.286-.373 5946.657 5946.657 0 0 0-17.69 7.336l8.181 13.368 7.265-2.957c.005-.005.01-.01.002-.019.307-.361.88-.603 1.707-.727l.132-.001 1.653-.68a9.09 9.09 0 0 1-.583-.597c-.434-.5-.727-.93-.888-1.3-.319-.769-.267-1.478.216-2.11a1.788 1.788 0 0 1 1.494.418c.116.1.231.21.34.334.54.61.911 1.466 1.126 2.566l.711-.285c.08-.16.151-.329.24-.478.328-.557.626-.989.863-1.26.626-.741 1.38-.958 2.27-.66.168.328.215.64.197.948l21.092-8.575L765.696-5.3Z"/><path fill="#5fad73" d="M832.02 50.477c.27.414.38.838.32 1.237-.073.418-.202.771-.408 1.078a6.035 6.035 0 0 1-.577.724c-.18.177-.393.375-.63.576-.53.47-1.03.834-1.505 1.096 1.372-.218 2.582-.14 3.615.217.482.165.821.368 1.032.606.053.06.1.123.139.186.173.315.29.646.317.966-.47.548-1.05.79-1.745.716-.699-.07-1.565-.47-2.592-1.16-.473-.323-.818-.592-1.022-.792.505.968.818 1.91.923 2.826.104.845-.002 1.504-.306 1.969a1.99 1.99 0 0 1-.896.715 3.395 3.395 0 0 1-.586-.312 1.048 1.048 0 0 1-.187-.17 1.814 1.814 0 0 1-.313-.554 3.11 3.11 0 0 1-.2-1.203c0-1.026.268-2.111.82-3.255-1.255 1.21-2.451 1.934-3.63 2.121-.445.076-.816.017-1.1-.174a3.252 3.252 0 0 1-.598-.495l-.027-.03c.027-.369.173-.763.44-1.15.272-.392.81-.692 1.62-.896.813-.21 1.818-.243 3.005-.101l-.387-.187a7.458 7.458 0 0 1-1.565-1.107 8.315 8.315 0 0 1-.543-.562 4.574 4.574 0 0 1-.482-.634c-.41-.732-.414-1.445-.012-2.129a1.793 1.793 0 0 1 1.531.252c.24.16.457.355.659.583.663.748 1.131 1.845 1.405 3.3a7.257 7.257 0 0 1 .565-2.005c.28-.592.518-1.052.729-1.353.54-.797 1.27-1.11 2.191-.9ZM797.433 25.04c.275.42.381.839.319 1.247-.067.413-.201.771-.41 1.063-.207.316-.39.549-.58.734a8.564 8.564 0 0 1-.62.577c-.535.474-1.034.838-1.513 1.085 1.371-.208 2.585-.126 3.619.223.482.164.822.368 1.032.605a.88.88 0 0 1 .13.186c.187.32.289.646.33.972-.474.552-1.055.794-1.75.72-.702-.085-1.569-.475-2.587-1.164-.486-.33-.822-.598-1.021-.792.504.967.814 1.905.909 2.82.112.855.008 1.505-.302 1.974a1.97 1.97 0 0 1-.887.715 3.347 3.347 0 0 1-.59-.317.959.959 0 0 1-.182-.165 1.702 1.702 0 0 1-.318-.558 3.247 3.247 0 0 1-.2-1.203c.001-1.026.272-2.107.819-3.246-1.255 1.218-2.455 1.929-3.629 2.12-.445.068-.812.013-1.1-.182-.27-.185-.476-.348-.599-.486-.009-.01-.017-.03-.026-.04.027-.368.177-.748.444-1.145.268-.396.806-.687 1.62-.896.804-.21 1.814-.247 2.996-.101l-.382-.192a7.407 7.407 0 0 1-2.108-1.66 3.91 3.91 0 0 1-.477-.637c-.41-.733-.415-1.445-.027-2.135.567-.139 1.082-.056 1.546.257.234.164.457.356.658.584.659.742 1.127 1.84 1.405 3.3a7.167 7.167 0 0 1 .562-2.01c.275-.598.517-1.052.732-1.348.54-.798 1.267-1.106 2.187-.905Zm11.636 21.881c.794 1.225 1.106 2.424.912 3.622-.184 1.189-.579 2.22-1.175 3.103-.597.883-1.155 1.58-1.674 2.112a26.99 26.99 0 0 1-1.832 1.694c-1.534 1.36-3 2.412-4.39 3.158 3.989-.609 7.505-.393 10.536.652 1.392.473 2.388 1.057 3.003 1.75.158.179.292.36.402.555.516.94.834 1.878.927 2.83-1.33 1.63-3.032 2.326-5.071 2.1-2.04-.235-4.554-1.366-7.545-3.383-1.405-.956-2.39-1.719-2.973-2.316 1.48 2.826 2.365 5.56 2.684 8.214.3 2.483-.002 4.396-.907 5.73-.628.937-1.5 1.639-2.596 2.098a9.754 9.754 0 0 1-1.74-.934 2.695 2.695 0 0 1-.533-.473c-.356-.4-.666-.94-.93-1.617-.385-.993-.573-2.153-.582-3.49.001-2.99.791-6.148 2.37-9.475-3.56 3.606-7.045 5.689-10.476 6.228-1.288.222-2.366.055-3.213-.512-.825-.551-1.417-1.06-1.808-1.5l-.035-.04c.079-1.078.511-2.196 1.293-3.349.786-1.148 2.353-2.024 4.709-2.618 2.35-.59 5.268-.701 8.736-.291l-1.128-.574a19.879 19.879 0 0 1-4.536-3.221 27.075 27.075 0 0 1-1.612-1.648c-.584-.659-1.044-1.268-1.37-1.836-1.19-2.138-1.21-4.197-.06-6.181 1.624-.432 3.114-.188 4.479.733.689.468 1.32 1.031 1.909 1.694 1.918 2.164 3.282 5.368 4.1 9.603.295-2.172.844-4.126 1.655-5.854.799-1.742 1.51-3.054 2.108-3.946 1.569-2.32 3.688-3.19 6.363-2.618Zm-3.603 42.565c.27.424.375.842.318 1.247-.076.412-.2.77-.41 1.072-.212.31-.399.538-.579.725-.18.176-.384.384-.63.576-.53.47-1.025.838-1.5 1.09 1.368-.212 2.577-.135 3.61.222.483.165.826.373 1.033.606.052.06.1.123.138.187.183.315.29.645.322.97-.492.533-1.073.775-1.776.69-.694-.074-1.561-.464-2.583-1.158-.487-.32-.828-.584-1.03-.793.504.968.812 1.914.921 2.826.109.85 0 1.504-.305 1.969-.221.32-.517.564-.892.72a2.994 2.994 0 0 1-.59-.327.953.953 0 0 1-.187-.16 1.846 1.846 0 0 1-.314-.554 3.269 3.269 0 0 1-.195-1.198c-.003-1.031.268-2.112.815-3.26-1.219 1.249-2.419 1.95-3.602 2.141-.445.077-.812.022-1.091-.173a3.077 3.077 0 0 1-.608-.496l-.026-.03c.031-.363.181-.753.444-1.145.267-.396.806-.697 1.615-.901.818-.204 1.819-.242 3.01-.096l-.392-.192a7.615 7.615 0 0 1-1.564-1.106 11.25 11.25 0 0 1-.539-.558 4.658 4.658 0 0 1-.486-.638c-.41-.733-.415-1.446-.013-2.13.557-.14 1.077-.061 1.536.257.24.16.457.356.659.583.658.743 1.127 1.84 1.41 3.296.1-.735.287-1.422.565-2.005.27-.593.518-1.052.72-1.354.544-.801 1.28-1.1 2.196-.903ZM769.787 66.54c.27.424.38.839.314 1.252-.067.403-.196.766-.406 1.058a4.868 4.868 0 0 1-.578.734 8.836 8.836 0 0 1-.63.576c-.53.47-1.026.838-1.505 1.086 1.372-.208 2.582-.13 3.62.222.482.165.821.369 1.032.606.053.06.1.123.13.186.187.32.293.65.325.976-.491.533-1.087.769-1.776.69-.698-.08-1.574-.47-2.592-1.159-.482-.324-.822-.598-1.021-.792.509.963.818 1.91.922 2.825.103.855-.001 1.505-.31 1.964a1.94 1.94 0 0 1-.888.725 3.415 3.415 0 0 1-.594-.322.889.889 0 0 1-.174-.155 1.913 1.913 0 0 1-.322-.564 3.24 3.24 0 0 1-.2-1.193c.001-1.036.272-2.116.82-3.264-1.224 1.243-2.42 1.95-3.603 2.14-.44.073-.807.018-1.1-.173-.265-.19-.471-.352-.598-.495a.075.075 0 0 1-.022-.035c.027-.368.167-.749.444-1.145.258-.397.801-.692 1.615-.901.814-.2 1.814-.238 3.005-.091l-.386-.197a7.119 7.119 0 0 1-1.565-1.106 8.04 8.04 0 0 1-.534-.543 4.12 4.12 0 0 1-.49-.653c-.411-.733-.415-1.445-.018-2.125a1.81 1.81 0 0 1 1.54.252c.23.16.448.355.646.578.658.743 1.13 1.845 1.413 3.31.11-.743.287-1.422.57-2.01.276-.606.519-1.051.725-1.357.535-.793 1.265-1.096 2.191-.9Zm75.461-15.845-54.302-37.2L747.22 77.75l32.558 8.186 22.301 28.954 43.17-64.195Z"/><path fill="#ffba31" d="m821.14 34.186-14.756-10.12c-2.836 1.549-6.325 3.458-10.183 5.56.74.017 1.419.114 2.043.33.473.164.817.362 1.028.6.053.06.1.123.134.19.187.322.29.646.331.963-.47.558-1.051.8-1.754.724-.694-.084-1.566-.469-2.584-1.158-.432-.289-.723-.517-.918-.707-.024.003-.044.02-.058.025.47.928.767 1.832.864 2.71.112.855.008 1.504-.306 1.968a1.91 1.91 0 0 1-.882.72 3.42 3.42 0 0 1-.595-.32.994.994 0 0 1-.182-.167 1.67 1.67 0 0 1-.314-.553 3.245 3.245 0 0 1-.2-1.202c.007-.81.219-1.68.563-2.577-7.25 3.96-15.465 8.45-22.976 12.535l-19.073 28.009 36.6-19.671c-.498-1.62-.32-3.193.574-4.728 1.624-.423 3.11-.174 4.474.747.333.226.65.484.963.747l27.207-14.625Zm23.718 17.086c-2.089 1.135-5.86 3.196-10.575 5.767.003.033.029.072.036.1-.423.49-.943.722-1.534.724-.925.502-1.893 1.016-2.883 1.566-.012.514-.127.943-.338 1.264-.22.32-.521.559-.887.715a3.42 3.42 0 0 1-.6-.317 1.091 1.091 0 0 1-.155-.146 1.472 1.472 0 0 1-.206-.312c-7.72 4.21-16.71 9.12-24.827 13.55-.136 1.013-.441 1.876-.914 2.57-.633.932-1.5 1.639-2.6 2.093a9.975 9.975 0 0 1-1.735-.93 3.406 3.406 0 0 1-.52-.476.501.501 0 0 1-.061-.078c-8.21 4.475-14.723 8.04-16.817 9.179l9.561 12.42 6.912-3.715c.005-.004 0-.01.01-.018.268-.387.81-.692 1.62-.896a.388.388 0 0 1 .128-.025l1.58-.852a6.737 6.737 0 0 1-.653-.527 8.18 8.18 0 0 1-.54-.548 4.694 4.694 0 0 1-.49-.653c-.41-.732-.41-1.44-.012-2.129.556-.14 1.077-.061 1.536.257.234.154.448.345.645.568.474.535.848 1.256 1.127 2.158l.683-.366c.056-.156.109-.336.179-.486.27-.593.518-1.052.723-1.349.545-.802 1.271-1.11 2.187-.904.206.312.287.612.296.922l20.058-10.78 19.066-28.346Z"/><path fill="#ff8831" d="M915.801 100.927c.319.39.463.792.444 1.199a2.52 2.52 0 0 1-.287 1.103c-.17.327-.34.584-.497.776a11.1 11.1 0 0 1-.56.655c-.48.515-.941.933-1.391 1.243 1.348-.355 2.55-.404 3.623-.162.555.127.942.324 1.17.582a2.466 2.466 0 0 1 .492 1.023c-.397.6-.959.894-1.667.903-.703-.005-1.604-.303-2.698-.889-.518-.275-.888-.513-1.102-.685.61.909 1.01 1.819 1.21 2.712.189.831.158 1.504-.101 1.99a1.98 1.98 0 0 1-.808.814 2.744 2.744 0 0 1-.627-.258 1.125 1.125 0 0 1-.3-.238 2.001 2.001 0 0 1-.274-.42 3.364 3.364 0 0 1-.319-1.176c-.117-1.02.044-2.126.467-3.324-1.093 1.35-2.208 2.188-3.355 2.489-.435.129-.808.106-1.108-.062-.313-.164-.538-.318-.68-.458-.01-.37.093-.763.32-1.185.226-.413.735-.767 1.517-1.072.781-.285 1.778-.418 2.973-.407l-.408-.15a7.011 7.011 0 0 1-1.659-.944 6.227 6.227 0 0 1-.957-.85 2.292 2.292 0 0 1-.192-.236c-.488-.69-.563-1.394-.238-2.115a1.84 1.84 0 0 1 1.55.093c.373.201.713.475 1.024.826.588.663 1.066 1.61 1.434 2.824.026-.749.147-1.44.353-2.056.21-.62.403-1.1.577-1.423.454-.844 1.147-1.22 2.074-1.122Zm-37.053-21.684c.319.39.464.792.444 1.199-.016.42-.122.78-.287 1.103-.17.327-.34.584-.501.78-.153.198-.344.42-.555.652-.486.519-.942.932-1.392 1.242 1.348-.355 2.55-.404 3.624-.162.554.128.941.324 1.17.582.026.03.052.06.07.088.21.299.356.612.421.935-.397.6-.958.894-1.667.903-.703-.005-1.603-.303-2.698-.889-.518-.275-.888-.513-1.102-.685.606.913 1.006 1.814 1.21 2.712.19.832.158 1.505-.105 1.986a2.04 2.04 0 0 1-.808.814 2.745 2.745 0 0 1-.627-.258.993.993 0 0 1-.304-.244 2.088 2.088 0 0 1-.275-.42c-.168-.328-.271-.714-.323-1.172-.108-1.019.048-2.13.476-3.323-1.084 1.35-2.194 2.193-3.351 2.494-.435.129-.808.106-1.112-.057-.309-.169-.534-.323-.676-.463-.01-.37.093-.763.32-1.185.226-.413.735-.767 1.517-1.071.782-.286 1.779-.419 2.973-.408l-.408-.15a7.375 7.375 0 0 1-1.664-.94 6.659 6.659 0 0 1-.951-.854c-.07-.079-.14-.158-.192-.236-.489-.69-.564-1.393-.244-2.11a1.823 1.823 0 0 1 1.55.093c.373.2.713.474 1.024.826.589.663 1.071 1.606 1.439 2.819.026-.749.147-1.44.353-2.056.21-.62.404-1.1.573-1.418.458-.85 1.151-1.225 2.078-1.127Zm13.903 20.579c.922 1.128 1.352 2.303 1.28 3.498-.062 1.206-.347 2.272-.844 3.217-.501.93-.978 1.69-1.454 2.27-.452.577-1.005 1.2-1.64 1.87-1.385 1.52-2.738 2.728-4.038 3.615 3.915-1.03 7.426-1.18 10.546-.454 1.623.374 2.756.935 3.419 1.682.075.085.14.168.2.256a7.588 7.588 0 0 1 1.229 2.722c-1.183 1.738-2.787 2.612-4.848 2.592-2.052-.011-4.677-.867-7.856-2.577-1.503-.798-2.565-1.457-3.2-1.983 1.759 2.65 2.937 5.276 3.53 7.89.551 2.438.454 4.372-.302 5.794a5.742 5.742 0 0 1-2.358 2.357 8.845 8.845 0 0 1-1.825-.752 3.149 3.149 0 0 1-.858-.699 5.823 5.823 0 0 1-.813-1.225c-.486-.948-.798-2.087-.943-3.417-.3-2.971.143-6.193 1.369-9.668-3.163 3.963-6.407 6.388-9.757 7.288-1.268.365-2.352.3-3.251-.176-.909-.486-1.566-.929-1.992-1.339-.028-1.089.29-2.237.935-3.464.65-1.221 2.128-2.257 4.404-3.091 2.287-.842 5.17-1.24 8.665-1.209l-1.183-.446a20.462 20.462 0 0 1-4.842-2.728c-1.188-.892-2.118-1.721-2.798-2.489a8.603 8.603 0 0 1-.537-.665c-1.403-2.001-1.636-4.059-.695-6.14 1.569-.594 3.077-.508 4.53.273 1.082.57 2.07 1.366 2.97 2.381 1.72 1.941 3.116 4.683 4.183 8.22.076-2.19.42-4.184 1.031-5.999.62-1.814 1.18-3.186 1.688-4.14 1.325-2.475 3.345-3.558 6.055-3.264Zm.781 42.692c.318.398.464.791.443 1.207a2.6 2.6 0 0 1-.281 1.099c-.175.322-.34.584-.498.786-.161.196-.352.41-.558.636-.482.525-.943.942-1.392 1.243 1.352-.35 2.555-.4 3.628-.157.55.122.937.32 1.165.577a2.532 2.532 0 0 1 .5 1.033c-.41.584-.966.884-1.683.874-.698 0-1.595-.293-2.69-.88-.513-.27-.883-.507-1.092-.684.596.913 1.006 1.823 1.205 2.716.19.832.159 1.496-.1 1.991-.181.346-.45.61-.814.809a3.189 3.189 0 0 1-.622-.253 1.14 1.14 0 0 1-.299-.248 1.962 1.962 0 0 1-.275-.41 3.303 3.303 0 0 1-.328-1.177c-.103-1.024.053-2.135.476-3.323-1.089 1.355-2.208 2.187-3.356 2.498-.434.129-.808.106-1.112-.057-.309-.169-.534-.323-.675-.463-.015-.376.088-.768.32-1.185.226-.413.73-.772 1.512-1.067.776-.282 1.778-.418 2.968-.412l-.408-.151a6.937 6.937 0 0 1-1.664-.94 6.456 6.456 0 0 1-.948-.84 2.314 2.314 0 0 1-.191-.245c-.493-.686-.568-1.389-.249-2.106a1.817 1.817 0 0 1 1.556.09 3.63 3.63 0 0 1 1.015.815c.593.668 1.08 1.616 1.447 2.829a7.43 7.43 0 0 1 .348-2.05c.216-.625.405-1.11.578-1.424.454-.854 1.147-1.23 2.074-1.131Zm-37.882-19.119c.314.394.464.792.439 1.203a2.6 2.6 0 0 1-.282 1.099 4.53 4.53 0 0 1-.496.776c-.158.202-.354.42-.555.651-.481.515-.942.933-1.392 1.243 1.352-.35 2.55-.404 3.624-.162.554.127.941.324 1.17.581.026.03.048.055.069.089.216.304.353.607.426.94-.401.594-.958.894-1.66.889-.709 0-1.61-.298-2.708-.89a7.237 7.237 0 0 1-1.089-.679c.602.908.997 1.813 1.201 2.711.193.837.163 1.5-.105 1.986-.18.345-.45.61-.804.81a3.48 3.48 0 0 1-.631-.254 1.14 1.14 0 0 1-.3-.248 2.05 2.05 0 0 1-.279-.415 3.362 3.362 0 0 1-.318-1.177c-.108-1.019.052-2.125.47-3.318-1.083 1.35-2.203 2.192-3.355 2.498-.435.128-.808.106-1.103-.057-.318-.17-.543-.323-.685-.463-.01-.371.093-.763.32-1.185.226-.413.73-.772 1.512-1.067.777-.282 1.779-.418 2.969-.413l-.404-.146a6.815 6.815 0 0 1-1.663-.948c-.4-.3-.72-.573-.953-.835a2.382 2.382 0 0 1-.191-.246c-.494-.686-.564-1.384-.249-2.106a1.828 1.828 0 0 1 1.56.085c.364.2.703.473 1.01.82.593.668 1.076 1.611 1.448 2.829a7.4 7.4 0 0 1 .348-2.051c.216-.625.409-1.105.583-1.427.453-.845 1.142-1.226 2.073-1.123Zm73.444-23.606L871.12 68.445l-36.8 68.458 33.229 4.753 25.197 26.474 36.248-68.341Z"/><path fill="#e21c54" d="m903.3 85.88-15.735-8.511c-2.664 1.832-5.936 4.096-9.55 6.583.74-.063 1.427-.036 2.07.11.555.128.941.324 1.17.582.026.03.052.06.07.088.216.304.356.612.426.94-.402.594-.959.894-1.671.898-.703-.005-1.604-.303-2.698-.889a8.626 8.626 0 0 1-.995-.603c-.01.008-.039.016-.054.03.567.868.955 1.744 1.152 2.595.19.832.158 1.505-.105 1.986a2.04 2.04 0 0 1-.808.814 2.745 2.745 0 0 1-.627-.258.994.994 0 0 1-.304-.244 2.088 2.088 0 0 1-.275-.42c-.168-.328-.271-.714-.323-1.172-.078-.815.05-1.698.293-2.612-6.797 4.682-14.509 10.007-21.54 14.853l-16.024 29.833 34.357-23.378c-.662-1.554-.655-3.142.065-4.754 1.569-.594 3.077-.508 4.53.273.35.185.698.407 1.035.648l25.54-17.392Zm25.371 14.522c-1.951 1.35-5.491 3.781-9.917 6.838.017.039.039.063.046.101-.356.537-.842.817-1.45.87-.866.608-1.77 1.224-2.7 1.872.04.513-.028.945-.212 1.285-.18.346-.454.606-.804.81a3.478 3.478 0 0 1-.631-.254 1.052 1.052 0 0 1-.26-.212 1.696 1.696 0 0 1-.156-.207 31987.27 31987.27 0 0 0-23.272 16.071c-.038 1.015-.246 1.898-.642 2.647-.53 1-1.322 1.791-2.359 2.357a8.61 8.61 0 0 1-1.82-.747 2.822 2.822 0 0 1-.646-.489c-7.692 5.308-13.805 9.534-15.761 10.879l10.801 11.355 6.49-4.41c.005-.004-.004-.014.006-.023.226-.413.73-.772 1.508-1.062.047-.016.09-.018.124-.04l1.48-1.003c-.24-.14-.474-.296-.708-.46-.403-.314-.728-.601-.96-.864-.066-.074-.132-.148-.18-.221-.488-.69-.567-1.398-.243-2.11a1.79 1.79 0 0 1 1.55.093c.364.19.7.46 1.003.8.399.451.744 1.03 1.05 1.723l.64-.435c.042-.17.072-.347.128-.503.216-.624.404-1.11.578-1.423.454-.854 1.147-1.23 2.074-1.131.24.29.344.587.4.9l18.821-12.813 16.022-30.194Z"/><path fill="#805989" d="M1014.556 142.444c.268.302.417.62.448.973.04.415-.01.787-.134 1.136-.133.339-.253.622-.388.84-.121.222-.281.46-.465.712a8.952 8.952 0 0 1-1.201 1.428c1.278-.533 2.468-.757 3.563-.649.625.057 1.074.224 1.32.492.019.01.032.025.045.04.229.258.4.54.508.832-.325.651-.83 1.02-1.53 1.118-.699.089-1.635-.09-2.795-.52-.54-.201-.938-.37-1.178-.52.725.816 1.241 1.658 1.569 2.526.299.796.366 1.461.162 1.979a1.974 1.974 0 0 1-.693.914 2.66 2.66 0 0 1-.66-.175c-.165-.057-.326-.18-.48-.352a4.21 4.21 0 0 1-.178-.222 3.498 3.498 0 0 1-.482-1.121c-.244-.995-.233-2.119.015-3.355-.883 1.498-1.883 2.474-2.985 2.937-.404.182-.772.216-1.116.088-.325-.118-.571-.236-.733-.358-.067-.365-.01-.779.153-1.224.167-.44.62-.867 1.355-1.254.741-.392 1.704-.662 2.89-.82l-.42-.096a6.627 6.627 0 0 1-1.772-.702c-.581-.316-1.008-.627-1.281-.916l-.053-.06c-.527-.593-.688-1.264-.475-2.001.5-.284 1.022-.314 1.55-.127.582.218 1.117.601 1.613 1.16.478.54.919 1.247 1.312 2.119a7.238 7.238 0 0 1 .07-2.096c.131-.639.255-1.138.384-1.49.34-.904.967-1.354 1.912-1.395.058.055.106.11.15.159Zm-39.651-16.436c.268.302.417.62.448.974.036.41-.01.787-.134 1.135-.133.34-.253.623-.388.84a8.051 8.051 0 0 1-.47.707c-.405.59-.799 1.063-1.2 1.428 1.278-.532 2.477-.746 3.563-.648.63.061 1.074.224 1.325.497.013.014.031.025.044.04.229.257.4.54.5.822-.326.65-.826 1.024-1.53 1.117-.695.094-1.627-.079-2.787-.51-.545-.206-.947-.38-1.186-.53.724.817 1.245 1.664 1.568 2.527.299.796.367 1.46.167 1.983a2.038 2.038 0 0 1-.697.91 2.604 2.604 0 0 1-.656-.17 1.213 1.213 0 0 1-.484-.358c-.062-.07-.118-.143-.18-.222a3.496 3.496 0 0 1-.48-1.12c-.24-.99-.234-2.12.014-3.356-.873 1.508-1.88 2.489-2.971 2.953-.414.172-.781.206-1.12.082-.326-.118-.577-.24-.734-.358-.067-.365-.014-.783.153-1.223.163-.445.62-.868 1.355-1.255.737-.396 1.7-.666 2.89-.82l-.42-.095a6.628 6.628 0 0 1-1.772-.702c-.586-.321-1.012-.633-1.281-.916l-.053-.06c-.531-.599-.688-1.264-.48-2.007a1.826 1.826 0 0 1 1.555-.122c.578.213 1.112.597 1.609 1.156.478.54.918 1.246 1.311 2.118a7.362 7.362 0 0 1 .074-2.09c.128-.645.256-1.138.385-1.492.336-.907.967-1.352 1.908-1.399.057.055.106.11.154.164Zm16.886 18.827c.764.861 1.195 1.796 1.27 2.809.097 1.196-.03 2.3-.4 3.299-.373.995-.74 1.807-1.122 2.454a34.09 34.09 0 0 1-1.376 2.069c-1.17 1.692-2.34 3.065-3.51 4.13 3.73-1.548 7.194-2.17 10.392-1.884 1.837.167 3.117.633 3.848 1.417l.123.14c.667.752 1.158 1.545 1.468 2.394-.934 1.898-2.416 2.99-4.45 3.238-2.033.272-4.75-.22-8.134-1.473-1.581-.587-2.737-1.093-3.432-1.537 2.102 2.39 3.623 4.834 4.565 7.333.877 2.335 1.047 4.272.482 5.78-.396 1.06-1.068 1.947-2.02 2.658a8.736 8.736 0 0 1-1.902-.489c-.495-.18-.97-.536-1.427-1.051a6.802 6.802 0 0 1-.497-.63c-.613-.871-1.078-1.954-1.399-3.243-.71-2.916-.693-6.168.04-9.771-2.588 4.363-5.482 7.203-8.68 8.553-1.204.527-2.277.613-3.24.264-.964-.357-1.67-.705-2.155-1.052-.174-1.075-.023-2.261.463-3.568.467-1.298 1.788-2.522 3.937-3.658 2.15-1.146 4.954-1.943 8.412-2.382l-1.23-.29a20.25 20.25 0 0 1-5.165-2.035c-1.672-.949-2.917-1.835-3.725-2.675-.04-.045-.084-.085-.123-.13-1.563-1.762-2.032-3.707-1.405-5.863 1.473-.802 2.98-.928 4.516-.352 1.692.63 3.26 1.752 4.7 3.376 1.4 1.58 2.678 3.63 3.84 6.155-.226-2.179-.161-4.2.2-6.086.362-1.877.73-3.308 1.105-4.33.974-2.632 2.83-3.978 5.554-4.058.169.16.332.324.477.488Zm6.277 41.869c.26.292.404.605.435.95.032.414-.014.781-.134 1.135a6.53 6.53 0 0 1-.383.844 9.9 9.9 0 0 1-.47.708c-.41.594-.808 1.062-1.205 1.423 1.279-.533 2.473-.742 3.563-.64.634.057 1.08.22 1.326.488l.04.045c.223.252.394.534.503.817-.316.661-.812 1.03-1.52 1.118-.7.09-1.627-.079-2.797-.5-.54-.202-.938-.38-1.182-.526.724.817 1.246 1.654 1.569 2.517.303.801.367 1.461.167 1.984a1.981 1.981 0 0 1-.697.91 2.212 2.212 0 0 1-.651-.166c-.17-.062-.331-.184-.49-.363-.056-.064-.113-.138-.174-.216-.216-.304-.371-.679-.485-1.126-.245-.995-.234-2.119.018-3.35-.89 1.488-1.883 2.483-2.984 2.937-.409.177-.777.211-1.112.093-.325-.118-.58-.246-.741-.368-.068-.356-.005-.774.162-1.214.162-.445.619-.867 1.35-1.26.736-.396 1.7-.666 2.894-.814l-.425-.101c-.61-.14-1.2-.377-1.776-.707-.581-.316-1.003-.622-1.286-.911l-.035-.04c-.535-.604-.706-1.275-.492-2.022a1.826 1.826 0 0 1 1.554-.122c.577.213 1.112.597 1.604 1.151.483.545.923 1.251 1.325 2.124a6.885 6.885 0 0 1 .074-2.091c.119-.645.256-1.138.376-1.492.34-.903.968-1.362 1.907-1.39.067.056.12.115.172.175Zm-40.12-13.783c.26.292.4.61.43.954.036.42-.01.787-.133 1.136a5.689 5.689 0 0 1-.379.84c-.125.217-.29.46-.47.716a9.026 9.026 0 0 1-1.205 1.423c1.279-.532 2.468-.747 3.564-.648.634.057 1.083.224 1.325.487l.04.045c.232.262.398.54.503.827-.316.651-.826 1.024-1.52 1.118-.695.085-1.631-.084-2.796-.51-.546-.206-.939-.37-1.183-.526.725.817 1.241 1.659 1.569 2.527.299.796.367 1.461.162 1.978a1.974 1.974 0 0 1-.692.915 2.602 2.602 0 0 1-.656-.17 1.212 1.212 0 0 1-.485-.358 2.11 2.11 0 0 1-.169-.22c-.216-.305-.377-.675-.49-1.123-.24-.998-.234-2.118.023-3.354-.896 1.493-1.888 2.478-2.99 2.942-.408.177-.776.211-1.115.087-.325-.127-.576-.24-.738-.363-.063-.36-.005-.773.153-1.223.168-.44.62-.868 1.36-1.259.736-.387 1.7-.657 2.885-.816l-.416-.09a6.671 6.671 0 0 1-1.776-.707c-.581-.316-1.004-.623-1.286-.912a14.1 14.1 0 0 1-.035-.04c-.536-.603-.701-1.279-.488-2.025a1.82 1.82 0 0 1 1.545-.123c.582.218 1.117.601 1.613 1.16.483.546.923 1.252 1.326 2.115a7.058 7.058 0 0 1 .065-2.091c.127-.644.251-1.143.38-1.487.34-.903.967-1.362 1.912-1.394.057.055.115.11.167.17Zm69.377-33.54-61.604-23.173-27.139 72.831 33.564.185 28.567 22.805 26.612-72.647Z"/><path fill="#2498cb" d="m999.98 129.095-16.745-6.299c-2.386 2.187-5.321 4.86-8.56 7.83.721-.164 1.414-.23 2.067-.172.625.057 1.074.224 1.32.492.019.01.032.025.045.04.228.258.399.54.503.827-.325.651-.83 1.02-1.53 1.118-.698.089-1.63-.084-2.79-.515-.481-.183-.82-.326-1.06-.467l-.044.04c.674.8 1.184 1.594 1.486 2.423.308.797.37 1.466.166 1.984a2.029 2.029 0 0 1-.692.914 2.655 2.655 0 0 1-.66-.175c-.165-.057-.327-.18-.485-.357-.057-.065-.113-.139-.174-.217a3.498 3.498 0 0 1-.481-1.121c-.19-.804-.18-1.69-.062-2.634-6.1 5.568-13.014 11.883-19.318 17.659l-11.84 31.738 30.856-27.834c-.864-1.463-1.074-3.037-.579-4.722 1.473-.803 2.985-.923 4.516-.352.385.145.76.317 1.128.503l22.932-20.703Zm27.104 10.942c-1.75 1.597-4.92 4.504-8.892 8.123.017.03.043.06.06.088-.288.583-.74.921-1.32 1.065-.784.712-1.592 1.456-2.425 2.212.119.513.107.948-.032 1.31a1.985 1.985 0 0 1-.692.915 2.431 2.431 0 0 1-.66-.176c-.166-.047-.317-.188-.466-.356-6.488 5.929-14.047 12.843-20.871 19.08.094 1.013.011 1.917-.28 2.715-.397 1.059-1.069 1.947-2.021 2.658a8.442 8.442 0 0 1-1.907-.485c-.234-.084-.468-.239-.707-.399-6.9 6.312-12.39 11.32-14.131 12.927l12.25 9.778 5.829-5.256c.01-.008.005-.013.01-.018.167-.44.62-.867 1.355-1.254.035-.021.082-.037.126-.058l1.328-1.195c-.251-.114-.512-.228-.751-.369-.581-.316-1.004-.623-1.286-.912l-.031-.034c-.54-.61-.71-1.28-.492-2.022.5-.284 1.021-.313 1.55-.127.573.208 1.102.596 1.59 1.146.272.306.536.665.788 1.078l.575-.518c.015-.182.026-.35.06-.522.123-.649.255-1.138.38-1.496.34-.903.963-1.357 1.912-1.394.04.045.08.08.114.12.198.222.314.473.39.707l16.904-15.253 11.743-32.078Z"/></g></svg>