<svg xmlns="http://www.w3.org/2000/svg" width="960" height="540"><g fill-rule="evenodd"><path fill="#302745" d="M0 0h960v540H0Z"/><path fill="#e21c54" d="M49.098 57.902c-.016.092-.026.198-.038.294-1.283 9.475-6.52 17.843-12.063 25.316-3.996 5.38-9.156 15.345.62 17.898.483.128.96.185 1.424.185 2.015 0 3.835-1.1 5.3-2.54 3.74-3.662 6.436-9.836 6.718-15.066.46-8.852-1.024-17.351-1.96-26.087Z"/><path fill="#ffba31" d="M47.77 65.918c-.01.064-.019.131-.028.202-.89 6.452-4.476 12.155-8.276 17.258-2.735 3.666-6.273 10.457.406 12.19.327.084.647.122.957.122 1.385 0 2.633-.755 3.64-1.74 2.56-2.495 4.408-6.705 4.603-10.268.32-6.034-.671-11.817-1.301-17.764Z"/><path fill="#191919" fill-opacity=".14" d="M42.419 83.122c-.762 0-1.868.854-2.706 2.162-1.018 1.596-1.258 3.25-.538 3.714a.81.81 0 0 0 .438.118c.765 0 1.872-.85 2.71-2.162 1.017-1.59 1.257-3.253.53-3.714a.793.793 0 0 0-.434-.118Zm-4.69 8.285c-.601 0-1.442.742-2.034 1.852-.694 1.296-.778 2.604-.192 2.927a.616.616 0 0 0 .288.067c.601 0 1.449-.742 2.044-1.858.69-1.296.774-2.604.189-2.915a.608.608 0 0 0-.295-.073Z"/><path fill="#e21c54" d="M67.588 11.79C53.423 19.45 39.06 26.054 26.194 35.948c-7.607 5.857-14.126 16.346-15.767 25.79-.79 4.567-.266 9.407 3.432 12.6 3.27 2.818 6.302 3.995 9.079 3.995 9.139 0 15.537-12.75 18.585-21.666 5.515-16.129 12.696-32.728 25.665-44.522.125-.115.272-.237.4-.355Z"/><path fill="#ffba31" d="M56.875 22.125c-9.642 5.227-19.402 9.738-28.167 16.494-5.175 3.998-9.6 11.164-10.71 17.622-.534 3.123-.179 6.433 2.342 8.615 2.23 1.932 4.296 2.738 6.19 2.738 6.219 0 10.563-8.707 12.626-14.795 3.749-11.039 8.63-22.376 17.443-30.427l.276-.247Z"/><path fill="#191919" fill-opacity=".14" d="M35.292 47.438c-1.427 0-3.32 1.958-4.504 4.77-1.338 3.186-1.254 6.263.192 6.874.166.07.345.106.534.106 1.423 0 3.32-1.965 4.51-4.776 1.334-3.186 1.254-6.264-.189-6.865a1.376 1.376 0 0 0-.543-.109ZM27.928 63.28c-1.097 0-2.636 1.388-3.705 3.442-1.244 2.409-1.359 4.808-.271 5.37a1.1 1.1 0 0 0 .505.116c1.1 0 2.649-1.388 3.71-3.442 1.239-2.406 1.357-4.808.266-5.368a1.08 1.08 0 0 0-.505-.118Z"/><path fill="#88ad25" d="M944.783 528.122c-2.447-6.124-5.236-11.956-6.685-18.445-.862-3.834-.158-8.84 1.804-12.247.945-1.64 2.384-3.027 4.383-3.06.935-.014 1.73.097 2.399.313 4.755 1.538 3.245 8.38 1.667 12.499-2.492 6.518-4.586 13.614-3.606 20.726.012.073.022.145.038.214Zm-6.696-10.856-.121-.177c-4.29-5.758-10.757-9.354-17.107-12.246-4.581-2.086-11.583-6.76-6.088-11.986 1.452-1.376 3.443-1.397 5.27-.889.172.048.348.102.52.157 3.632 1.175 7.376 4.124 9.352 7.302 3.515 5.644 5.625 11.759 8.174 17.839Zm-5.342-19.191c.06-6.601-.302-13.053.817-19.61.66-3.872 3.209-8.236 6.321-10.645 1.435-1.108 3.197-1.83 4.975-1.254.077.025.156.053.234.084 7.062 2.765 2.353 9.733-1.093 13.401-4.786 5.081-9.418 10.855-11.206 17.805a5.868 5.868 0 0 0-.048.219Zm-1.199-15.798a3.903 3.903 0 0 0-.108-.187c-3.864-6.047-10.061-10.096-16.188-13.438-4.42-2.412-11.07-7.57-5.215-12.39 1.469-1.206 3.334-1.157 5.05-.602.09.03.18.058.271.09 3.701 1.32 7.485 4.673 9.313 8.147 3.101 5.884 4.77 12.137 6.877 18.38Zm-3.123-19.204c-.821-6.544-2.041-12.895-1.806-19.542.137-3.928 2.08-8.594 4.844-11.39 1.33-1.35 3.072-2.326 5.012-1.858.238.057.462.122.677.191 6.448 2.086 2.857 9.275.022 13.238-4.065 5.673-7.884 12.013-8.728 19.142-.012.07-.016.143-.021.219Zm-4.197-16.277c-.043-.055-.093-.115-.135-.173-4.637-5.475-11.317-8.66-17.834-11.157-4.704-1.798-11.98-6.024-6.819-11.583 1.362-1.463 3.35-1.608 5.203-1.219.452.097.906.219 1.363.367 3.439 1.112 6.946 3.642 8.956 6.47 3.857 5.413 6.343 11.39 9.266 17.295Zm-5.764-19.228c-1.892-6.32-4.152-12.375-5.022-18.971-.518-3.892.627-8.821 2.886-12.035 1.086-1.55 2.64-2.802 4.635-2.661.712.05 1.336.167 1.88.344 5.225 1.69 3.038 8.682 1.033 12.78-3.06 6.27-5.78 13.155-5.427 20.326.002.07.008.146.015.217Zm-40.186-15.154c-2.318-.75-3.874-2.497-3.307-6.016.321-1.974 1.893-3.198 3.657-3.902 3.438-1.376 8.124-1.44 11.726-.276.22.072.437.148.648.23 6.216 2.36 11.596 5.95 17.313 9.239l-.207-.067c-6.9-1.98-14.227-.922-21.03.62-2.605.592-6.188 1.017-8.8.172Zm-27.979-13.757c-1.603-.519-2.817-1.858-3.201-4.49-.283-1.981.85-3.62 2.32-4.817 3.046-2.484 7.878-3.98 11.794-3.746 6.637.393 12.848 2.206 19.282 3.636h-.215c-7.18.174-13.85 3.38-19.886 6.886-2.823 1.641-7.127 3.49-10.094 2.53Zm50.888 3.418c-5.084-4.205-10.325-7.985-14.709-12.99-2.593-2.95-4.378-7.684-4.285-11.613.046-1.89.644-3.797 2.378-4.784 1.751-.995 3.21-1.157 4.422-.765 3.346 1.082 4.794 6.398 5.289 10.061.935 6.916 2.501 14.15 6.77 19.918.044.055.089.12.135.173Zm-33.146-18.488c-6.158-2.37-12.332-4.296-18.076-7.646-3.392-1.975-6.588-5.894-7.75-9.65-.559-1.805-.6-3.802.734-5.29 1.842-2.053 3.66-2.453 5.333-1.911 2.924.946 5.413 4.766 6.829 7.638 3.083 6.261 6.863 12.623 12.748 16.74.056.04.116.084.182.119Z"/><path fill="#88ad25" d="m965.542 541.22-1.91-.763-1.88-.838a57.471 57.471 0 0 1-3.653-1.904 57.949 57.949 0 0 1-3.497-2.193 59.577 59.577 0 0 1-3.317-2.461 54.36 54.36 0 0 1-6.034-5.646 58.353 58.353 0 0 1-2.682-3.16 58.318 58.318 0 0 1-2.42-3.365 58.183 58.183 0 0 1-2.157-3.542 63.337 63.337 0 0 1-1.882-3.707l-.828-1.9-.755-1.941-.679-1.96-.6-1.991-.524-2.02-.435-2.034-.356-2.054-.27-2.068-.184-2.074-.094-2.088-.007-2.085.082-1.985c-1.602-13.424-3.539-26.84-7.023-39.87-.855-3.259-1.851-6.48-2.914-9.677a114.52 114.52 0 0 0-3.596-9.426c-1.34-3.087-2.796-6.12-4.447-9.05-1.65-2.922-3.413-5.788-5.39-8.502a83.434 83.434 0 0 0-6.388-7.774 90.53 90.53 0 0 0-7.34-6.888l-1.981-1.557-.492-.388c-.074-.054-.194-.153-.226-.172l-.263-.176-1.054-.708c-1.4-.975-2.833-1.833-4.262-2.714-2.91-1.689-5.87-3.306-8.945-4.703-3.059-1.417-6.178-2.716-9.358-3.836-1.252-.46-2.51-.895-3.777-1.304a122.713 122.713 0 0 0-5.888-1.737c-3.263-.895-6.58-1.566-9.913-2.17-3.338-.555-6.7-.983-10.08-1.249 3.385.157 6.773.428 10.133.914 3.358.51 6.708 1.096 10.009 1.91a113.67 113.67 0 0 1 8.456 2.352c.45.146.898.294 1.347.447 3.23 1.076 6.396 2.334 9.51 3.717 3.123 1.355 6.144 2.942 9.124 4.612 1.472.873 2.96 1.73 4.357 2.673l1.07.694.267.172c.144.093.185.136.283.207l.51.386 2.044 1.552a78.09 78.09 0 0 1 7.569 6.928 84.732 84.732 0 0 1 6.558 7.888c2.029 2.758 3.842 5.665 5.536 8.632 1.702 2.967 3.195 6.044 4.571 9.167a113.846 113.846 0 0 1 3.705 9.544 129.748 129.748 0 0 1 2.934 9.793c3.447 13.196 5.308 26.7 6.845 40.175l.007.063-.006.078-.104 2.018-.024 2.026.057 2.024.146 2.023.225 2.017.317 2.004.387 1.992.476 1.975.552 1.952.632 1.935.707 1.908.783 1.878a58.351 58.351 0 0 0 1.78 3.663 58.248 58.248 0 0 0 2.056 3.513 60.365 60.365 0 0 0 2.323 3.352 58.707 58.707 0 0 0 2.556 3.183 53.555 53.555 0 0 0 5.803 5.745 59.023 59.023 0 0 0 3.218 2.528 59.11 59.11 0 0 0 3.41 2.278l1.767 1.044 1.806.976 1.841.907 1.876.836Z"/><path fill="#ffba31" d="M944.083 523.719c-1.573-3.93-3.358-7.674-4.287-11.837-.553-2.46-.106-5.676 1.159-7.855.608-1.053 1.526-1.947 2.81-1.965.599-.01 1.11.061 1.54.2 3.052.987 2.08 5.38 1.073 8.02-1.604 4.181-2.95 8.74-2.32 13.3.011.044.018.09.025.137Z"/><path fill="#e21c54" d="M944.262 526.593c-.032-.01-.125-.211-.27-.562-.147-.373-.375-.896-.575-1.551-.45-1.293-.868-3.073-1.214-4.868-.336-1.794-.519-3.616-.625-4.985-.095-1.36-.124-2.278-.124-2.278s.004-.914.053-2.286c.071-1.37.208-3.191.519-4.997.323-1.801.74-3.586 1.238-4.868.202-.652.46-1.165.625-1.53.163-.359.27-.556.29-.55.064.024-.285.866-.658 2.163-.407 1.3-.747 3.077-.995 4.859-.25 1.787-.33 3.593-.37 4.945l.007 2.256s.007.9.066 2.253c.063 1.348.2 3.152.468 4.941.273 1.782.614 3.561.982 4.87.341 1.307.649 2.165.588 2.19l-.005-.002Z"/><path fill="#191919" fill-opacity=".14" d="m944.055 508.029-.02-.006c-.605-.22-.697-1.478-.207-2.807.48-1.31 1.353-2.202 1.955-2.008l.02.007c.597.218.69 1.481.201 2.805-.482 1.311-1.347 2.204-1.95 2.009Zm2.178-6.818c-.47-.152-.61-1.119-.316-2.169.3-1.064.933-1.82 1.416-1.685l.013.004c.472.152.615 1.117.315 2.173-.294 1.061-.936 1.82-1.41 1.682a1.78 1.78 0 0 0-.018-.005Z"/><path fill="#ffba31" d="M935.499 513.637c-.031-.04-.06-.075-.085-.113-2.75-3.695-6.9-6.001-10.976-7.86-2.932-1.338-7.43-4.335-3.904-7.688.931-.885 2.21-.899 3.386-.568.112.03.222.064.332.1 2.323.75 4.73 2.638 6 4.682 2.255 3.62 3.61 7.546 5.247 11.447Z"/><path fill="#e21c54" d="M937.381 515.815c-.074-.024-.46-.827-1.12-1.97-.65-1.193-1.66-2.697-2.712-4.16a52.101 52.101 0 0 0-3.13-3.855c-.909-1.005-1.536-1.65-1.536-1.65s-.635-.646-1.577-1.608c-.977-.936-2.296-2.171-3.725-3.271-1.437-1.094-2.927-2.125-4.12-2.759-1.18-.669-2.017-1.022-1.99-1.088.003-.01.067.005.18.042.1.032.24.083.415.148.375.146.915.334 1.521.652 1.251.567 2.801 1.549 4.293 2.602 1.492 1.065 2.865 2.27 3.873 3.198 1 .942 1.642 1.593 1.642 1.593s.62.673 1.515 1.713a48.493 48.493 0 0 1 3.048 3.99c1.013 1.52 1.964 3.082 2.546 4.319.322.606.524 1.143.68 1.513.148.369.224.578.202.593l-.005-.002Z"/><path fill="#191919" fill-opacity=".14" d="M922.364 502.629a5.786 5.786 0 0 1-.646-.256c-1.281-.61-2.099-1.57-1.826-2.141.228-.484 1.137-.554 2.17-.22.213.07.428.155.644.256 1.282.605 2.096 1.56 1.821 2.145-.228.483-1.132.55-2.163.216Zm-5.612-3.374a4.204 4.204 0 0 1-.769-.345c-.962-.549-1.54-1.346-1.288-1.783.18-.317.749-.353 1.418-.137.247.08.508.195.77.343.958.55 1.539 1.347 1.29 1.78-.182.319-.752.358-1.421.142Z"/><path fill="#ffba31" d="M933.77 493.73c.038-4.23-.192-8.37.526-12.577.424-2.487 2.056-5.291 4.054-6.827.92-.71 2.046-1.181 3.187-.812.052.017.106.037.158.057 4.536 1.77 1.508 6.245-.706 8.596-3.07 3.262-6.038 6.966-7.185 11.423-.013.048-.023.097-.035.14Z"/><path fill="#e21c54" d="M932.847 496.461c-.027-.009-.042-.234-.04-.631.006-.395-.007-.97.058-1.65.071-1.362.359-3.172.727-4.96.37-1.789.888-3.544 1.31-4.85.428-1.297.753-2.157.753-2.157s.35-.844.915-2.093c.585-1.24 1.402-2.879 2.378-4.428.98-1.543 2.047-3.035 2.99-4.03.437-.534.868-.913 1.159-1.18.284-.272.455-.41.478-.403l.002.001c.048.049-.591.694-1.432 1.758-.864 1.042-1.855 2.553-2.765 4.112-.911 1.557-1.666 3.2-2.218 4.436l-.848 2.084s-.341.842-.798 2.11c-.447 1.278-1.008 2.997-1.442 4.755-.42 1.748-.782 3.526-.939 4.872-.178 1.343-.228 2.257-.288 2.254Z"/><path fill="#191919" fill-opacity=".14" d="M939.89 479.31a.565.565 0 0 1-.211-.12c-.472-.435-.083-1.63.878-2.672.83-.912 1.823-1.404 2.372-1.227.08.026.152.069.212.121.473.432.082 1.632-.879 2.673-.83.91-1.82 1.404-2.371 1.225Zm4.558-5.508a.408.408 0 0 1-.134-.071c-.393-.304-.16-1.26.52-2.136.614-.783 1.377-1.231 1.814-1.09.05.016.095.04.135.071.393.31.161 1.266-.524 2.137-.608.783-1.379 1.229-1.811 1.089Z"/><path fill="#ffba31" d="m929.225 478.47-.078-.12c-2.475-3.879-6.45-6.478-10.383-8.622-2.83-1.547-7.102-4.858-3.344-7.948.94-.78 2.152-.741 3.258-.384.052.017.107.035.159.055 2.369.846 4.794 2.996 5.97 5.227 1.99 3.773 3.063 7.783 4.418 11.791Z"/><path fill="#e21c54" d="M930.947 480.778c-.073-.023-.401-.858-.976-2.048-.564-1.233-1.465-2.808-2.407-4.346a52.292 52.292 0 0 0-2.85-4.066 65.392 65.392 0 0 0-1.412-1.751s-.586-.689-1.458-1.719c-.907-1.008-2.136-2.335-3.482-3.529-1.35-1.198-2.764-2.328-3.91-3.05-1.128-.75-1.937-1.159-1.908-1.224.002-.005.025 0 .068.014.09.029.265.102.512.215.36.175.89.398 1.472.763 1.206.655 2.68 1.742 4.09 2.902 1.412 1.17 2.699 2.473 3.638 3.466.931 1.01 1.522 1.709 1.522 1.709s.572.712 1.39 1.815c.806 1.108 1.843 2.619 2.752 4.2.906 1.585 1.74 3.212 2.23 4.49.278.626.447 1.171.575 1.552.123.38.182.597.156.608h-.002Z"/><path fill="#191919" fill-opacity=".14" d="M917.237 466.669c-.307-.1-.63-.237-.951-.419-1.24-.698-1.983-1.717-1.668-2.272.232-.41.981-.457 1.855-.175.307.1.629.24.95.418 1.23.696 1.98 1.708 1.66 2.27-.23.413-.974.46-1.846.178Zm-5.466-3.808a3.912 3.912 0 0 1-.96-.478c-.918-.617-1.434-1.452-1.153-1.868.175-.27.642-.297 1.2-.117.304.098.637.261.964.48.921.615 1.44 1.45 1.159 1.867-.178.268-.65.297-1.21.116Z"/><path fill="#ffba31" d="M928.859 458.63c-.527-4.196-1.305-8.272-1.156-12.535.09-2.517 1.334-5.516 3.105-7.308.856-.862 1.972-1.497 3.217-1.194.153.039.3.08.44.126 4.138 1.338 1.826 5.951.011 8.492-2.608 3.637-5.06 7.704-5.602 12.28-.007.044-.009.093-.015.138Z"/><path fill="#e21c54" d="M928.308 461.458c-.03-.01-.068-.232-.122-.613-.045-.396-.138-.961-.16-1.647-.113-1.363-.068-3.191.053-5.014.13-1.82.41-3.63.655-4.983.25-1.34.458-2.236.458-2.236s.234-.884.629-2.2c.414-1.305 1.005-3.037 1.763-4.7.77-1.658 1.625-3.285 2.425-4.4.366-.577.744-1.012.995-1.32.245-.306.397-.467.42-.46.06.042-.494.765-1.182 1.93-.722 1.149-1.501 2.78-2.194 4.446-.694 1.668-1.223 3.395-1.604 4.693l-.565 2.181s-.222.875-.51 2.2a54.695 54.695 0 0 0-.796 4.898c-.181 1.79-.3 3.6-.276 4.956-.002 1.354.076 2.265.014 2.27l-.003-.001Z"/><path fill="#191919" fill-opacity=".14" d="M932.926 443.506a.465.465 0 0 1-.144-.075c-.53-.364-.303-1.604.508-2.765.737-1.066 1.71-1.693 2.271-1.51.053.016.1.04.145.07.522.366.293 1.604-.514 2.77-.74 1.057-1.709 1.69-2.266 1.51Zm3.797-6.066a.347.347 0 0 1-.082-.038c-.43-.247-.327-1.231.231-2.179.526-.903 1.269-1.457 1.716-1.313.027.01.054.02.08.035.43.255.33 1.24-.229 2.19-.525.898-1.271 1.449-1.716 1.305Z"/><path fill="#ffba31" d="M921.416 443.338c-.031-.04-.064-.076-.093-.113-2.968-3.514-7.255-5.56-11.443-7.164-3.01-1.15-7.683-3.862-4.372-7.428.87-.94 2.15-1.034 3.342-.78.284.058.573.138.86.23 2.208.715 4.461 2.337 5.755 4.152 2.48 3.475 4.07 7.306 5.951 11.103Z"/><path fill="#e21c54" d="M923.428 445.39c-.08-.025-.514-.806-1.238-1.895-.72-1.152-1.823-2.593-2.962-3.985a52.553 52.553 0 0 0-3.365-3.651 58.873 58.873 0 0 0-1.64-1.551l-1.671-1.51c-1.03-.876-2.427-2.023-3.924-3.032-1.496-1.005-3.051-1.935-4.281-2.499-1.218-.593-2.075-.895-2.053-.962.008-.02.224.04.607.152.152.05.333.105.533.17.302.098.652.219 1.025.387 1.284.49 2.892 1.371 4.442 2.333 1.557.97 3.002 2.089 4.067 2.95a70.885 70.885 0 0 1 1.737 1.488s.664.631 1.621 1.614c.945.993 2.175 2.35 3.289 3.795 1.102 1.452 2.15 2.952 2.807 4.155.358.582.595 1.103.774 1.464.17.359.26.567.24.58-.003 0-.005-.002-.008-.003Z"/><path fill="#191919" fill-opacity=".14" d="M907.302 433.073a5.733 5.733 0 0 1-.343-.125c-1.317-.528-2.19-1.434-1.954-2.028.218-.539 1.282-.639 2.459-.258.115.037.231.077.35.127 1.316.52 2.19 1.426 1.954 2.028-.216.54-1.28.64-2.466.256Zm-5.716-2.994a4.123 4.123 0 0 1-.565-.232c-.99-.489-1.618-1.25-1.396-1.696.178-.365.856-.413 1.635-.16.185.059.375.137.566.229.991.483 1.614 1.245 1.396 1.696-.178.362-.86.414-1.636.163Z"/><path fill="#ffba31" d="M918.157 423.113c-1.217-4.049-2.66-7.939-3.22-12.17-.329-2.495.4-5.66 1.85-7.719.701-.992 1.69-1.8 2.976-1.705.458.033.862.108 1.214.222 3.344 1.082 1.94 5.568.657 8.193-1.967 4.026-3.713 8.441-3.488 13.041l.01.138Z"/><path fill="#e21c54" d="M918.081 426c-.03-.01-.108-.22-.223-.589-.114-.381-.292-.924-.43-1.595-.34-1.33-.597-3.137-.779-4.953a48.143 48.143 0 0 1-.182-5.025c.023-1.366.082-2.282.082-2.282s.083-.911.256-2.273c.192-1.354.487-3.162.96-4.931.48-1.763 1.055-3.5 1.661-4.735.26-.633.567-1.121.76-1.47.194-.343.318-.532.338-.525h.003c.06.034-.362.838-.851 2.103-.516 1.254-1.016 2.993-1.423 4.746-.409 1.76-.644 3.552-.805 4.895l-.193 2.242s-.076.9-.138 2.253c-.05 1.35-.08 3.16.03 4.964.115 1.8.3 3.6.55 4.934.223 1.339.449 2.22.387 2.239-.002-.001-.003.001-.003.001Z"/><path fill="#191919" fill-opacity=".14" d="M919.565 407.505a.613.613 0 0 1-.065-.024c-.578-.275-.564-1.537.042-2.814.584-1.234 1.5-2.034 2.081-1.845.022.007.045.014.063.026.58.273.56 1.533-.043 2.81-.586 1.232-1.497 2.035-2.078 1.847Zm2.766-6.606a7.827 7.827 0 0 0-.02-.007c-.471-.174-.527-1.16-.138-2.193.39-1.019 1.072-1.709 1.541-1.557l.02.006c.468.182.53 1.165.137 2.196-.39 1.017-1.078 1.704-1.54 1.555Z"/><path fill="#ffba31" d="M884.778 410.837c-1.486-.48-2.483-1.603-2.12-3.86.203-1.268 1.214-2.055 2.347-2.505 2.202-.88 5.206-.923 7.517-.176.142.046.28.094.416.146 3.993 1.515 7.445 3.815 11.111 5.928a2.552 2.552 0 0 0-.135-.04c-4.422-1.271-9.123-.59-13.493.399-1.669.376-3.967.65-5.643.108Z"/><path fill="#e21c54" d="M878.703 406.839a.02.02 0 0 1-.011-.01c-.006-.023.208-.097.587-.212.385-.107.932-.289 1.608-.399 1.34-.311 3.164-.469 4.99-.529 1.831-.056 3.657.066 5.02.192 1.368.14 2.271.271 2.271.271s.9.16 2.244.448c1.233.274 2.845.68 4.446 1.198l.397.128c1.723.593 3.427 1.26 4.64 1.896.624.287 1.109.587 1.456.785.344.208.533.33.52.35-.002.01-.029.008-.074-.007-.23-.074-.967-.44-2.013-.88-.984-.437-2.267-.896-3.616-1.333a78.372 78.372 0 0 0-1.061-.335 51.6 51.6 0 0 0-4.827-1.164c-1.328-.253-2.224-.382-2.224-.382s-.89-.129-2.228-.327c-1.346-.154-3.141-.335-4.943-.341-1.806-.005-3.619.082-4.953.299-1.27.174-2.122.386-2.23.352Z"/><path fill="#191919" fill-opacity=".14" d="M878.128 410.388c-.362-.117-.598-.307-.63-.549-.069-.496.768-1.012 1.867-1.158.565-.077 1.09-.037 1.477.089.358.115.594.305.624.543.069.497-.766 1.022-1.863 1.166-.568.073-1.093.033-1.475-.09Zm6.067-.647c-.375-.121-.628-.322-.686-.583-.129-.627.883-1.375 2.264-1.67.8-.172 1.551-.156 2.066.01.377.123.628.326.683.592.135.623-.874 1.372-2.259 1.669-.805.17-1.554.148-2.068-.018Z"/><path fill="#ffba31" d="M856.657 395.302c-1.028-.333-1.807-1.192-2.05-2.88-.185-1.27.544-2.322 1.49-3.095 1.95-1.587 5.046-2.553 7.565-2.4 4.258.252 8.24 1.414 12.373 2.336h-.144c-4.602.106-8.884 2.162-12.754 4.413-1.812 1.055-4.574 2.242-6.48 1.626Z"/><path fill="#e21c54" d="M850.782 393.467c-.003 0-.003 0-.005-.002-.01-.022.17-.151.498-.38.338-.218.802-.553 1.412-.86 1.189-.698 2.879-1.395 4.605-1.998 1.731-.602 3.507-1.026 4.851-1.317a67.224 67.224 0 0 1 2.242-.416s.908-.12 2.277-.249a49.397 49.397 0 0 1 5.02-.183c1.824.055 3.646.178 4.993.424.677.083 1.233.23 1.626.313.228.055.393.097.493.13.073.023.109.04.105.05-.014.061-.904-.097-2.255-.225-1.346-.154-3.158-.2-4.965-.19a53.163 53.163 0 0 0-4.953.328c-1.34.16-2.23.302-2.23.302l-2.229.355c-1.326.255-3.094.621-4.819 1.15-1.724.538-3.424 1.163-4.638 1.769-1.188.56-1.95 1.024-2.028 1Z"/><path fill="#191919" fill-opacity=".14" d="M850.887 396.972c-.168-.055-.29-.146-.348-.273-.217-.456.433-1.2 1.434-1.669.715-.334 1.423-.433 1.845-.297.167.054.29.144.35.274.212.452-.428 1.202-1.43 1.667-.721.335-1.43.434-1.851.298Zm5.574-2.435a.663.663 0 0 1-.39-.288c-.315-.56.432-1.582 1.657-2.273.93-.524 1.868-.72 2.41-.544a.671.671 0 0 1 .393.295c.316.557-.424 1.576-1.655 2.267-.931.527-1.876.718-2.415.543Z"/><path fill="#ffba31" d="M898.457 398.544c-3.261-2.693-6.617-5.128-9.436-8.338-1.66-1.894-2.808-4.928-2.745-7.445.03-1.218.409-2.44 1.524-3.072 1.125-.64 2.062-.745 2.838-.494 2.148.695 3.077 4.107 3.394 6.455.6 4.438 1.601 9.079 4.34 12.779l.085.115Z"/><path fill="#e21c54" d="M899.98 400.982c-.052-.017-.225-.15-.497-.365-.3-.257-.757-.61-1.242-1.089-1.017-.916-2.238-2.277-3.397-3.69-1.154-1.412-2.192-2.92-2.942-4.074-.734-1.15-1.2-1.944-1.2-1.944s-.43-.801-1.048-2.03c-.59-1.236-1.349-2.9-1.939-4.633-.578-1.734-1.067-3.498-1.25-4.862-.132-.672-.153-1.247-.184-1.646-.027-.395-.03-.625-.01-.627l.005.002c.07.023.168.923.458 2.217.265 1.333.819 3.057 1.457 4.742.635 1.687 1.43 3.313 2.045 4.518.65 1.181 1.085 1.976 1.085 1.976s.435.786 1.135 1.948a52.765 52.765 0 0 0 2.78 4.11c1.094 1.43 2.249 2.833 3.197 3.799.93.988 1.604 1.6 1.564 1.648a.032.032 0 0 1-.017 0Z"/><path fill="#191919" fill-opacity=".14" d="M890.629 384.768c-.55-.178-1.085-1.132-1.26-2.342-.213-1.396.141-2.608.77-2.703a.6.6 0 0 1 .26.026c.549.178 1.087 1.133 1.267 2.341.205 1.397-.14 2.606-.772 2.703a.572.572 0 0 1-.265-.025Zm-1.302-7.029c-.427-.138-.88-.834-1.084-1.73-.246-1.083-.05-2.044.436-2.16a.457.457 0 0 1 .247.014c.43.14.879.839 1.086 1.742.246 1.073.044 2.039-.436 2.149a.467.467 0 0 1-.249-.015Z"/><path fill="#ffba31" d="M864.331 381.105c-3.947-1.52-7.907-2.76-11.594-4.907-2.18-1.265-4.23-3.782-4.974-6.188-.358-1.162-.388-2.443.47-3.401 1.18-1.318 2.348-1.575 3.421-1.227 1.878.607 3.477 3.06 4.384 4.904 1.975 4.016 4.4 8.103 8.176 10.74.038.026.082.053.117.079Z"/><path fill="#e21c54" d="M866.353 382.882a6.823 6.823 0 0 1-.39-.14c-.373-.146-.915-.33-1.526-.632-1.257-.55-2.844-1.452-4.393-2.42a46.484 46.484 0 0 1-4.083-2.932c-1.062-.853-1.755-1.458-1.755-1.458s-.665-.621-1.64-1.593c-.955-.985-2.2-2.32-3.312-3.78-1.1-1.46-2.125-2.98-2.723-4.211-.346-.595-.546-1.134-.7-1.501-.158-.366-.226-.583-.208-.589h.009c.08.026.457.838 1.13 1.955.679 1.177 1.747 2.634 2.889 4.033 1.136 1.399 2.411 2.686 3.372 3.631.995.915 1.657 1.53 1.657 1.53s.663.608 1.698 1.487a52 52 0 0 0 3.94 3.015c1.495 1.008 3.033 1.969 4.237 2.587 1.197.641 2.037 1.004 2.009 1.064-.007.011-.081-.004-.211-.046Z"/><path fill="#191919" fill-opacity=".14" d="M852.258 370.484c-.542-.175-1.197-.845-1.667-1.772-.644-1.26-.697-2.52-.123-2.81.15-.078.33-.08.524-.017.542.175 1.199.848 1.669 1.775.639 1.258.7 2.52.128 2.809-.154.077-.337.078-.531.015Zm-3.434-6.244c-.42-.136-.939-.605-1.339-1.261-.578-.943-.696-1.925-.27-2.184.128-.08.294-.081.479-.022.422.137.94.602 1.342 1.26.572.94.69 1.922.265 2.182-.128.08-.293.084-.477.025Z"/><path fill="#ffba31" d="M716.064 343.49c1.475 0 2.96.51 4.168 1.55 2.693 2.304 14.958 21.256 14.958 21.256s-20.606-9.22-23.299-11.525c-2.692-2.3-3.001-6.35-.707-9.043a6.437 6.437 0 0 1 4.88-2.239Zm84.476 92.9c.004 0 41.877 23.018 47.15 28.338 5.292 5.334 5.231 13.923-.093 19.206a13.53 13.53 0 0 1-9.545 3.924 13.505 13.505 0 0 1-9.647-4.032c-5.283-5.33-27.865-47.436-27.865-47.436Zm-2.88.95s18.156 47.24 18.784 55.15c.642 7.915-5.273 14.832-13.188 15.464a15.78 15.78 0 0 1-1.147.047c-7.428 0-13.727-5.709-14.312-13.24-.628-7.919 9.863-57.42 9.863-57.42Zm-6.332 1.733s-10.284 50.298-14.064 57.398c-2.618 4.931-7.661 7.732-12.879 7.732-2.313 0-4.664-.553-6.851-1.714-7.1-3.794-9.793-12.617-6-19.721 3.785-7.114 39.794-43.695 39.794-43.695Zm67.602-16.278c.304 0 .571.009.805.028 7.92.618 13.825 7.544 13.193 15.45-.6 7.53-6.87 13.248-14.293 13.248-.389 0-.778-.018-1.17-.046-7.91-.633-55.15-18.799-55.15-18.799s46.626-9.881 56.615-9.881Zm-4.341-37.958a14.58 14.58 0 0 1 12.874 7.728c3.784 7.113 1.1 15.941-6.018 19.725-7.1 3.78-57.388 14.064-57.388 14.064s36.571-36.01 43.685-39.793a14.517 14.517 0 0 1 6.847-1.724Zm-7.114-38.613c2.8 0 5.63.83 8.097 2.557 6.388 4.482 7.943 13.277 3.452 19.665-4.468 6.383-43.386 37.32-43.386 37.32s15.788-47.136 20.27-53.524a14.087 14.087 0 0 1 11.567-6.018Zm-35.461-19.908c5.591 0 10.457 4.116 11.225 9.807.839 6.2-5.23 45.61-5.23 45.61s-16.373-36.356-17.216-42.562c-.848-6.2 3.498-11.9 9.69-12.752.514-.07 1.025-.103 1.53-.103Zm-41.091-6.996c2.745 0 5.498.992 7.676 3.006 4.594 4.238 25.022 38.491 25.022 38.491s-35.78-17.6-40.378-21.838c-4.608-4.243-4.894-11.408-.66-16.007a11.342 11.342 0 0 1 8.34-3.653Zm-33.016 11.09c.857 0 1.723.116 2.585.364 4.96 1.424 32.665 19.084 32.665 19.084s-2.604.024-6.458.024c-9.83 0-27.79-.145-31.35-1.166-4.959-1.42-7.82-6.59-6.401-11.544a9.339 9.339 0 0 1 8.959-6.763Zm33.831 119.257s-30.937 38.913-37.32 43.385a13.973 13.973 0 0 1-8.084 2.566 14.13 14.13 0 0 1-11.581-6.018c-4.468-6.392-2.922-15.196 3.46-19.664 6.389-4.482 53.525-20.27 53.525-20.27Zm-68.14-14.954c.51 0 1.025.033 1.545.108 6.205.843 42.56 17.216 42.56 17.216s-34.496 5.31-44.012 5.31c-.66 0-1.194-.023-1.597-.08-6.21-.838-10.542-6.551-9.703-12.756.777-5.676 5.634-9.798 11.207-9.798Zm-6.978-41.095a11.29 11.29 0 0 1 8.331 3.653c4.238 4.6 21.838 40.379 21.838 40.379s-34.253-20.424-38.492-25.023c-4.247-4.599-3.957-11.76.647-16.007a11.285 11.285 0 0 1 7.676-3.002Zm9.099-31.003c4.06 0 7.798 2.665 8.968 6.763 1.42 4.955 1.143 37.808 1.143 37.808s-17.66-27.706-19.084-32.666c-1.428-4.95 1.447-10.116 6.397-11.544a9.266 9.266 0 0 1 2.576-.36Z"/><path fill="#191919" fill-opacity=".14" d="M715.577 344.824c.604 0 1.457.342 2.262.946 1.213.927 1.855 2.13 1.438 2.679-.14.187-.389.271-.693.271-.609 0-1.461-.341-2.262-.955-1.213-.923-1.855-2.117-1.438-2.67.14-.182.389-.271.693-.271Zm5.718 5.011c.478 0 1.171.323 1.803.88.88.792 1.316 1.77.946 2.173-.103.118-.262.17-.459.17-.477 0-1.17-.32-1.798-.881-.88-.792-1.307-1.77-.955-2.173.107-.113.267-.169.463-.169Zm110.168 107.7c1.012 0 2.487.749 3.803 2.023 1.807 1.751 2.632 3.845 1.84 4.664-.215.225-.534.328-.913.328-1.016 0-2.496-.745-3.812-2.014-1.803-1.76-2.632-3.854-1.84-4.669.22-.225.538-.332.922-.332Zm10.181 9.403c1.298 0 3.213 1.124 4.843 2.97 2.145 2.42 2.988 5.156 1.892 6.125-.263.234-.61.342-1.017.342-1.301 0-3.212-1.124-4.842-2.969-2.136-2.412-2.978-5.156-1.878-6.13.258-.23.6-.338 1.002-.338Zm-34.285 8.276c1.175 0 2.308 2.013 2.566 4.59.272 2.664-.492 4.907-1.695 5.043-.033 0-.066.005-.099.005-1.17 0-2.309-2.023-2.566-4.6-.272-2.664.492-4.917 1.69-5.034.033-.004.07-.004.104-.004Zm1.671 14.508c1.532 0 2.838 2.735 2.913 6.135.07 3.41-1.11 6.215-2.664 6.243h-.033c-1.54 0-2.829-2.73-2.908-6.126-.08-3.414 1.114-6.205 2.669-6.252h.023Zm-30.68-13.145a1.1 1.1 0 0 1 .493.112c1.105.557.997 2.97-.23 5.38-1.049 2.085-2.59 3.49-3.695 3.49-.183 0-.347-.038-.501-.112-1.091-.553-.988-2.965.23-5.377 1.058-2.089 2.603-3.493 3.704-3.493Zm-6.7 13.267c.28 0 .538.066.762.201 1.335.815.965 3.883-.833 6.847-1.503 2.464-3.513 4.084-4.922 4.084-.286 0-.543-.066-.773-.206-1.344-.815-.97-3.873.829-6.838 1.499-2.468 3.522-4.088 4.936-4.088Zm72.533-49.309c.337 0 .688.014 1.044.051 2.655.272 4.711 1.466 4.59 2.66-.113 1.045-1.804 1.761-3.977 1.761-.341 0-.693-.019-1.053-.056-2.665-.267-4.716-1.461-4.594-2.67.103-1.04 1.807-1.746 3.99-1.746Zm16.438.824c.107 0 .22 0 .327.005 3.42.08 6.164 1.386 6.126 2.94-.037 1.509-2.665 2.665-5.943 2.665h-.3c-3.418-.075-6.163-1.405-6.125-2.94.033-1.5 2.655-2.67 5.915-2.67Zm3.189-41.259c.913 0 1.61.267 1.943.81.815 1.349-.922 3.887-3.887 5.685-1.77 1.078-3.573 1.644-4.912 1.644-.904 0-1.602-.257-1.925-.8-.824-1.35.918-3.902 3.878-5.7 1.765-1.068 3.563-1.64 4.903-1.64Zm-15.169 8.584c.871 0 1.527.253 1.784.759.544 1.091-.95 2.978-3.381 4.196-1.293.656-2.58.993-3.587.993-.871 0-1.532-.253-1.79-.764-.547-1.086.96-2.973 3.377-4.191 1.293-.656 2.59-.993 3.597-.993Zm8.355-52.147c.28 0 .534.065.754.201 1.297.8.908 3.765-.857 6.617-1.466 2.37-3.428 3.92-4.791 3.92-.276 0-.53-.065-.75-.196-1.297-.81-.908-3.775.858-6.618 1.465-2.37 3.423-3.924 4.786-3.924Zm-9.418 14.082c.262 0 .496.066.684.206.955.712.487 2.993-1.077 5.105-1.232 1.695-2.782 2.768-3.85 2.768-.262 0-.501-.066-.693-.206-.95-.698-.473-2.988 1.072-5.105 1.246-1.695 2.805-2.768 3.864-2.768Zm-31.27-40.72c1.143 0 2.412 1.887 2.894 4.383.516 2.65-.032 4.983-1.231 5.208a.94.94 0 0 1-.197.023c-1.157 0-2.426-1.882-2.904-4.388-.515-2.641.038-4.973 1.237-5.208a.949.949 0 0 1 .201-.018Zm1.972 13.483c.918 0 1.836 1.568 2.06 3.6.244 2.09-.337 3.874-1.288 3.982-.032.004-.06.004-.088.004-.909 0-1.822-1.569-2.056-3.596-.244-2.094.337-3.873 1.283-3.986.028 0 .06-.004.089-.004Zm-47.984-21.735c1.072 0 2.604.66 4.027 1.831 2.084 1.71 3.138 3.864 2.36 4.805-.248.3-.646.44-1.147.44-1.072 0-2.604-.66-4.018-1.826-2.084-1.72-3.147-3.86-2.37-4.805.248-.3.647-.445 1.148-.445Zm9.816 9.221c.843 0 2.074.614 3.166 1.677 1.522 1.451 2.215 3.198 1.55 3.887-.183.187-.445.276-.768.276-.843 0-2.07-.618-3.17-1.677-1.523-1.46-2.211-3.208-1.551-3.887.183-.187.45-.276.773-.276Zm-44.13 2.131a8.24 8.24 0 0 1 1.789.206c2.164.492 3.742 1.686 3.522 2.665-.16.693-1.18 1.1-2.525 1.1a8.03 8.03 0 0 1-1.793-.215c-2.169-.483-3.742-1.672-3.522-2.656.16-.702 1.18-1.1 2.529-1.1Zm9.984 3.278a6.06 6.06 0 0 1 1.752.286c1.662.515 2.81 1.54 2.585 2.3-.145.458-.796.711-1.662.711-.53 0-1.138-.094-1.766-.286-1.648-.515-2.81-1.55-2.571-2.29.145-.468.791-.72 1.662-.72Zm-2.739 139.906c.552 0 .993.155 1.236.487.703.965-.44 2.997-2.562 4.552-1.372 1.012-2.819 1.564-3.859 1.564-.557 0-.997-.159-1.245-.496-.698-.95.45-2.993 2.561-4.547 1.382-1.007 2.83-1.56 3.869-1.56Zm-12.031 8.435c.866 0 1.531.248 1.85.763.8 1.292-.862 3.78-3.724 5.54-1.718 1.063-3.47 1.625-4.772 1.625-.857 0-1.522-.248-1.84-.763-.806-1.297.866-3.775 3.723-5.545 1.705-1.063 3.46-1.62 4.763-1.62Zm-32.019-35.911c.599 0 1.25.06 1.92.192 2.65.506 4.603 1.896 4.374 3.1-.173.89-1.527 1.424-3.302 1.424-.6 0-1.246-.061-1.915-.192-2.642-.51-4.6-1.897-4.365-3.096.178-.894 1.517-1.428 3.288-1.428Zm13.239 2.177c.3 0 .609.02.927.052 2.089.244 3.695 1.204 3.592 2.145-.089.805-1.39 1.344-3.058 1.344a7.94 7.94 0 0 1-.922-.056c-2.098-.24-3.7-1.204-3.597-2.15.094-.8 1.39-1.335 3.058-1.335Zm-23.566-47.96c1.091 0 2.684 1.002 4.018 2.622 1.71 2.07 2.333 4.389 1.391 5.166-.206.173-.477.258-.791.258-1.087 0-2.684-1.003-4.018-2.618-1.705-2.084-2.333-4.398-1.387-5.175.211-.174.478-.253.787-.253Zm8.978 10.195c.847 0 2.093.67 3.175 1.798 1.461 1.508 2.084 3.279 1.4 3.939-.178.173-.426.253-.72.253-.849 0-2.085-.674-3.167-1.794-1.466-1.517-2.084-3.287-1.4-3.948.173-.168.421-.248.712-.248Zm2.43-45.661c.942 0 2.01 1.508 2.478 3.545.492 2.154.093 4.093-.895 4.318a.855.855 0 0 1-.187.023c-.937 0-2.018-1.512-2.477-3.545-.483-2.163-.094-4.098.894-4.318a.856.856 0 0 1 .187-.023Zm2.909 10.842c.716 0 1.62 1.095 2.093 2.603.51 1.658.323 3.194-.426 3.428a.713.713 0 0 1-.197.029c-.73 0-1.63-1.092-2.103-2.604-.51-1.658-.313-3.19.436-3.424a.577.577 0 0 1 .197-.032Z"/><path fill="#ff8831" d="M722.007 347.063c3.939 5.048 11.718 16.976 13 18.948l-.074.178c-2.332-1.059-20.536-9.259-23.042-11.418-.487-.417-.866-.9-1.198-1.414 4.027 1.864 11.642 6.097 13.58 6.097.235 0 .39-.06.441-.196.632-1.668-9.235-10.013-9.235-10.018 0 .005 8.757 6.435 10.734 6.435.206 0 .337-.07.379-.225.183-.707-2.018-4.397-4.585-8.387Zm79.165 89.669c4.36 2.407 30.726 17.023 41.98 24.577-8.336-4.566-16.063-8.467-18.119-8.467-.117 0-.215.014-.295.038-3.419 1.147 14.79 22.53 14.79 22.53s-17.656-18.067-22.063-18.067a1.11 1.11 0 0 0-.468.093c-2.576 1.204 9.469 19.487 14.569 28.699-1.129-.614-2.215-1.34-3.161-2.309-4.936-4.983-25.022-42.14-27.594-46.926l.361-.168Zm-3.639 1.213.403.107c1.878 4.923 13.235 34.76 17.173 48.57-3.826-9.928-7.629-18.798-9.137-19.407a.66.66 0 0 0-.243-.047c-3.297 0-3.185 28.38-3.185 28.38s-2.098-28.89-5.947-29.93a.548.548 0 0 0-.15-.019c-2.848 0-5.536 22.437-7.667 33.19-.491-1.27-.87-2.604-.983-4.028-.595-7.4 8.547-51.192 9.736-56.816Zm-6.641 1.583.281.309c-1.077 5.23-7.675 36.936-11.839 50.883 2.14-10.57 3.737-20.218 2.777-21.566a.612.612 0 0 0-.524-.267c-3.545 0-17.88 22.61-17.88 22.61s13.988-25.842 11.267-28.839a.631.631 0 0 0-.482-.192c-3.274 0-16.944 16.588-24.32 24.287.276-1.358.679-2.707 1.363-3.985 3.536-6.655 35.264-39.086 39.357-43.24Zm68.043-16.733c.3 0 .571.009.8.028 1.434.112 2.759.491 4.028.983-10.935 2.164-33.958 4.908-33.171 7.816 1.04 3.85 29.94 5.948 29.94 5.948h-.333c-3.255 0-29.33.103-28.01 3.419.618 1.517 9.479 5.31 19.407 9.146-13.81-3.943-43.647-15.295-48.57-17.178l-.107-.398c5.451-1.152 46.7-9.764 56.016-9.764Zm-7.208-37.597c-8.172 7.825-26.352 22.746-24.086 24.802.267.244.712.351 1.302.351 6.07 0 27.528-11.619 27.528-11.619s-25.476 16.148-22.343 18.4c.276.197.899.286 1.807.286 3.527 0 11.353-1.363 19.768-3.067-13.956 4.173-45.656 10.771-50.892 11.848l-.31-.285c4.16-4.089 36.586-35.818 43.24-39.353 1.28-.689 2.628-1.091 3.986-1.363Zm-12.977-35.873c-3.62 10.335-12.766 31.199-9.914 31.976a.993.993 0 0 0 .267.033c4.2 0 19.688-22.404 19.688-22.409 0 .005-14.92 25.12-11.226 25.692a.77.77 0 0 0 .108.01c1.798 0 9.277-5.522 17.304-11.872-10.218 9.722-34.702 29.321-38.753 32.553l-.389-.113c1.798-5.357 15.886-46.982 20.072-52.953.81-1.152 1.794-2.089 2.843-2.917Zm-37.878-13.427c3.4 7.825 9.11 24.296 11.38 24.296a.43.43 0 0 0 .202-.051c2.791-1.452-.431-24.053-.431-24.053s4.552 21.332 7.11 21.332a.47.47 0 0 0 .27-.09c1.064-.716 2.502-8.176 3.794-16.47-.726 11.291-4.468 36.178-5.095 40.285l-.29.145c-1.855-4.135-16.237-36.318-17.015-42.12-.159-1.12-.089-2.202.075-3.274Zm-19.28-9.882c6.631 9.16 19.594 30.722 21.73 34.29l-.132.3c-4.065-2.004-35.648-17.66-39.947-21.627-.834-.763-1.475-1.653-2.023-2.575 7.043 3.582 20.367 11.633 23.664 11.633.37 0 .613-.099.707-.319 1.222-2.899-15.656-18.269-15.656-18.269s15.216 12.05 18.592 12.05c.333 0 .553-.117.628-.38.36-1.231-3.288-7.9-7.563-15.103Zm-37.532 6.369c8.276 4.295 25.795 15.375 28.676 17.211l.023.262c-.89.005-3.208.024-6.294.024-9.877 0-27.584-.15-31.115-1.166-.895-.258-1.691-.67-2.44-1.148 4.05.024 10.532.412 15.436.412 3.858 0 6.739-.243 6.687-1.1-.168-2.58-18.278-7.652-18.278-7.652s11 2.28 16.026 2.28c1.564 0 2.547-.22 2.444-.796-.197-1.044-5.348-4.603-11.165-8.327Zm27.107 117.479.112.388c-3.231 4.051-22.83 28.535-32.553 38.754 6.491-8.196 12.106-15.825 11.863-17.412-.061-.408-.426-.59-1.021-.59-4.791 0-24.671 11.815-24.671 11.815s23.416-16.185 22.385-19.96c-.107-.374-.557-.543-1.283-.543-4.805 0-21.72 7.32-30.703 10.462.83-1.049 1.766-2.032 2.927-2.842 5.971-4.196 47.586-18.274 52.944-20.072Zm-67.321-15.132c.426 0 .857.028 1.297.09 5.802.781 37.99 15.163 42.12 17.018l-.144.286c-4.108.632-28.985 4.374-40.276 5.1 8.285-1.293 15.745-2.73 16.461-3.794 1.682-2.487-21.243-7.38-21.243-7.38s11.01 1.568 18.157 1.568c3.091 0 5.46-.295 5.896-1.138 1.096-2.112-16.175-8.083-24.24-11.581a12.589 12.589 0 0 1 1.972-.169Zm-1.471-39.484c.923.548 1.813 1.19 2.576 2.023 3.967 4.295 19.623 35.883 21.627 39.948l-.3.131c-3.568-2.136-25.13-15.099-34.29-21.74 6.875 4.089 13.263 7.597 14.902 7.597a.63.63 0 0 0 .201-.024c2.885-.852-11.67-19.22-11.67-19.22s14.312 15.717 17.913 15.717a.914.914 0 0 0 .346-.06c2.192-.933-7.32-16.537-11.305-24.372Zm11.165-28.31c.478.75.894 1.54 1.147 2.44 1.335 4.632 1.171 33.677 1.143 37.41l-.262-.024c-1.836-2.88-12.917-20.4-17.206-28.675 3.718 5.816 7.277 10.968 8.317 11.165.028.004.056.009.084.009 2.267 0-1.564-18.48-1.564-18.48s5.072 18.11 7.653 18.274h.023c1.925 0 .702-14.911.665-22.119Z"/><path fill="#88ad25" d="M783.146 371.63c.132.038-.374 1.668-.35 4.197.041 2.533.542 5.877 1.193 9.207.323 1.667.642 3.34.942 4.908.342 1.536.632 2.988.936 4.21.693 2.44 1.148 4.06 1.148 4.06s.51 1.607 1.274 4.028a129.766 129.766 0 0 0 3.39 8.655c.698 1.54 1.415 3.081 2.075 4.528.721 1.424 1.381 2.75 1.943 3.878 1.204 2.253 1.981 3.775 1.897 3.826h-.005c-.093 0-1.006-1.424-2.332-3.573-.627-1.115-1.363-2.407-2.14-3.808-.735-1.419-1.503-2.945-2.28-4.463-1.462-3.081-2.783-6.247-3.677-8.65a705.036 705.036 0 0 1-1.386-4.046l-1.073-4.144c-.276-1.265-.534-2.745-.833-4.323-.253-1.569-.516-3.25-.787-4.931-.543-3.358-.909-6.786-.801-9.362.14-1.297.201-2.37.478-3.086.201-.712.342-1.11.388-1.11Z"/><path fill="#ffba31" d="M782.631 362.747a7.75 7.75 0 0 1 3.54.852 7.815 7.815 0 0 1 3.41 10.504 7.815 7.815 0 0 1-10.504 3.414c-3.845-1.967-5.372-6.668-3.405-10.509a7.801 7.801 0 0 1 6.96-4.261Z"/><path fill="#ff8831" d="M787.394 364.386c2.913 2.252 3.925 6.322 2.187 9.717a7.815 7.815 0 0 1-10.504 3.414 7.804 7.804 0 0 1-3.405-10.509 7.294 7.294 0 0 1 .96-1.442c-1.274 2.992-.056 6.486 2.876 7.99a6.215 6.215 0 0 0 2.833.678 6.22 6.22 0 0 0 5.554-3.4c1.1-2.144.806-4.608-.501-6.448Z"/><path fill="#191919" fill-opacity=".14" d="M781.11 364.227c.299 0 .599.065.884.21a1.962 1.962 0 0 1 .843 2.632 1.943 1.943 0 0 1-2.622.843 1.946 1.946 0 0 1 .894-3.685Zm4.79.936c.169 0 .342.042.506.122.543.28.768.955.492 1.499a1.125 1.125 0 0 1-1.508.491 1.107 1.107 0 0 1-.483-1.498c.192-.39.586-.614.993-.614Z"/><path fill="#88ad25" d="M750.26 418.683c1.514 0 3.11.06 4.703.164 1.7.103 3.395.206 4.978.304 1.606.15 3.11.262 4.379.422 2.538.398 4.243.66 4.243.66l4.159.997c2.472.67 5.75 1.668 8.963 2.834 1.578.623 3.18 1.255 4.66 1.836 1.452.65 2.824 1.245 4 1.775 2.294 1.114 3.807 1.892 3.77 1.98-.005.005-.01.005-.024.005-.206 0-1.742-.604-3.953-1.517-1.19-.468-2.58-.998-4.055-1.569-1.504-.52-3.105-1.087-4.702-1.644a123.307 123.307 0 0 0-8.954-2.533c-2.478-.525-4.126-.886-4.126-.886s-1.663-.3-4.14-.754c-1.255-.192-2.717-.332-4.285-.529-1.593-.15-3.288-.3-4.979-.463-2.42-.235-4.842-.394-6.95-.394-.828 0-1.61.024-2.327.08-2.29.206-3.803.773-4.093.773-.028 0-.047-.005-.052-.02-.018-.037.37-.21 1.068-.482.688-.35 1.752-.515 3.02-.772 1.364-.188 2.975-.267 4.698-.267Z"/><path fill="#ffba31" d="M740.347 411.981a7.82 7.82 0 0 1 6.594 3.61 7.816 7.816 0 0 1-2.389 10.786 7.77 7.77 0 0 1-4.187 1.223 7.787 7.787 0 0 1-6.589-3.611c-2.337-3.639-1.264-8.458 2.384-10.78a7.776 7.776 0 0 1 4.187-1.228Z"/><path fill="#ff8831" d="M740.351 411.981c2.576 0 5.1 1.274 6.59 3.61a7.816 7.816 0 0 1-2.389 10.786 7.755 7.755 0 0 1-4.182 1.223 7.82 7.82 0 0 1-5.7-2.464 6.37 6.37 0 0 0 3.162.848c1.133 0 2.28-.31 3.306-.965a6.236 6.236 0 0 0 1.901-8.612 6.169 6.169 0 0 0-5.226-2.866c-1.02 0-2.051.248-2.997.768a7.175 7.175 0 0 1 1.344-1.1 7.74 7.74 0 0 1 4.191-1.228Z"/><path fill="#191919" fill-opacity=".14" d="M735.85 416.74c.642 0 1.27.322 1.645.903a1.942 1.942 0 0 1-.595 2.693c-.328.21-.693.314-1.054.314a1.946 1.946 0 0 1-1.64-.9 1.958 1.958 0 0 1 1.645-3.01Zm.558 5.605c.37 0 .735.183.946.525a1.1 1.1 0 0 1-.346 1.531 1.09 1.09 0 0 1-.6.178 1.09 1.09 0 0 1-.932-.515 1.113 1.113 0 0 1 .932-1.719Z"/><path fill="#88ad25" d="M743.217 381.26c.14 0 .52.055 1.1.168.764.084 1.743.524 2.956.988 2.346 1.077 5.222 2.97 7.976 4.988 1.362 1.007 2.735 2.004 4.018 2.94 1.269.994 2.473 1.897 3.465 2.717 1.911 1.71 3.204 2.838 3.204 2.838s1.18 1.241 2.964 3.09a113.873 113.873 0 0 1 6.023 7.227c.997 1.372 1.995 2.758 2.936 4.056l2.403 3.639c1.33 2.187 2.187 3.662 2.107 3.713h-.005c-.098 0-1.086-1.367-2.52-3.428-.753-1.025-1.634-2.215-2.58-3.498l-3.058-3.925c-2.159-2.613-4.416-5.137-6.172-6.954l-3.002-2.979s-1.232-1.152-3.086-2.87c-.946-.834-2.108-1.752-3.316-2.759-1.255-.983-2.604-2.023-3.939-3.081-2.665-2.09-5.423-4.06-7.647-5.26-2.234-1.17-3.916-1.46-3.887-1.597 0-.009.018-.014.06-.014Z"/><path fill="#ffba31" d="M742.417 372.506h.028c4.322.005 7.797 3.513 7.793 7.826-.01 4.3-3.494 7.793-7.803 7.793h-.028c-4.304-.01-7.797-3.517-7.783-7.83 0-4.295 3.493-7.789 7.793-7.789Z"/><path fill="#ff8831" d="M742.445 372.506a7.797 7.797 0 0 1 7.793 7.826c-.01 4.3-3.494 7.793-7.803 7.793h-.028c-3.807-.01-6.968-2.759-7.643-6.383 1.035 2.009 3.096 3.39 5.503 3.395h.014a6.244 6.244 0 0 0 6.243-6.229c.01-3.292-2.562-5.97-5.793-6.205a8.176 8.176 0 0 1 1.714-.197Z"/><path fill="#191919" fill-opacity=".14" d="M739.232 375.007c1.077.005 1.958.88 1.944 1.958a1.939 1.939 0 0 1-1.93 1.943h-.014a1.953 1.953 0 0 1-1.953-1.957 1.953 1.953 0 0 1 1.953-1.944Zm-2.098 5.156a1.113 1.113 0 1 1 0 2.23h-.014a1.122 1.122 0 0 1-1.11-1.115 1.128 1.128 0 0 1 1.124-1.115Z"/><path fill="#e21c54" d="M713.985 347.995c.552 0 10.48 8.219 10.48 8.219s9.868 8.94 9.634 9.211c-.004.005-.014.005-.023.005-.548 0-10.477-8.219-10.477-8.219s-9.867-8.935-9.633-9.207c.005-.005.01-.01.019-.01Z"/><path fill="#e21c54" d="M770.633 352.41c-13.338 0-26.68 5.082-36.838 15.24-20.311 20.306-20.311 53.36 0 73.667 5.498 5.502 13.08 7.493 21.173 7.493 19.753 0 42.589-11.858 45.858-13.619 2.519-4.636 25.546-48.644 6.65-67.541-10.158-10.158-23.5-15.24-36.843-15.24Zm0-3.188c14.157 0 28.315 5.39 39.095 16.166 21.576 21.575-5.189 69.733-6.34 71.765l-.22.394-.39.215c-1.433.801-25.907 14.293-47.693 14.293-8.875 0-17.305-2.238-23.548-8.486-21.556-21.552-21.547-56.624.005-78.181 10.78-10.776 24.938-16.166 39.09-16.166Zm31.939 89.336c1.077 0 20.878 18.953 20.878 18.953s19.482 20.358 18.939 20.906c-.01.01-.019.014-.038.014-1.072 0-20.873-18.953-20.873-18.953s-19.491-20.358-18.943-20.91c.01-.01.019-.01.037-.01Z"/><path fill="#e21c54" d="M797.786 440.469c.824 0 3.98 29.617 3.98 29.617s1.855 29.775 1.04 29.85c-.828 0-3.98-29.612-3.98-29.612s-1.86-29.785-1.045-29.855h.005Zm-8.069 1.344c.005 0 .014 0 .019.005.73.388-12.771 27.49-12.771 27.49s-14.476 26.08-15.403 26.08h-.02c-.74-.388 12.763-27.485 12.763-27.485s14.475-26.09 15.412-26.09Zm18.302-9.212c7.25 0 27.289 1.25 27.289 1.25s29.668 3.162 29.602 3.981c-.014.15-.988.206-2.575.206-7.245 0-27.275-1.245-27.275-1.245s-29.682-3.161-29.617-3.986c.014-.145.988-.206 2.576-.206Zm52.255-36.07c.047 0 .075.01.089.028.389.74-26.08 15.422-26.08 15.422s-25.67 12.804-27.397 12.804c-.047 0-.075-.01-.085-.033-.393-.73 26.086-15.417 26.086-15.417s25.673-12.804 27.387-12.804Zm-9.109-41.193c.01 0 .019.004.024.01.66.467-15.75 24.75-15.75 24.75s-17.131 23.093-18.105 23.093c-.01 0-.014 0-.024-.005-.66-.464 15.76-24.76 15.76-24.76s17.13-23.088 18.095-23.088Zm-39.675-22.667c.655 0 4.2 23.168 4.2 23.168s2.538 23.388 1.892 23.467h-.005c-.646 0-4.196-23.167-4.196-23.167s-2.533-23.384-1.892-23.468Zm-44.112-5.531c.927 0 17.965 15.193 17.965 15.193s16.85 16.419 16.41 16.887c-.01.005-.019.01-.033.01-.932 0-17.965-15.188-17.965-15.188s-16.85-16.415-16.41-16.888c.005-.01.019-.014.033-.014Zm-33.237 11.32c1.78 0 18.724 4.552 18.724 4.552s18.47 5.849 18.316 6.364c-.005.023-.056.033-.15.033-1.77 0-18.71-4.552-18.71-4.552s-18.475-5.854-18.325-6.365c.005-.023.056-.032.145-.032Zm34.96 112.855c.029 0 .047.005.057.019.468.66-23.089 18.129-23.089 18.129s-23.336 15.777-24.699 15.777c-.023 0-.042-.009-.051-.023-.464-.65 23.079-18.12 23.079-18.12s23.36-15.782 24.703-15.782Zm-69.62-5.905c4.191 0 22.63 2 22.63 2s23.256 3.563 23.167 4.2c-.01.075-.314.108-.852.108-4.21 0-22.616-2-22.616-2s-23.252-3.564-23.167-4.2c.009-.075.309-.108.838-.108Zm-6.331-44.046c.87 0 16.863 16.42 16.863 16.42s15.656 17.557 15.179 17.997c-.01.005-.014.01-.028.01-.862 0-16.86-16.42-16.86-16.42s-15.651-17.557-15.178-17.997a.036.036 0 0 1 .023-.01Zm11.323-33.334c.548 0 6.355 18.32 6.355 18.32s5.03 18.714 4.52 18.86h-.01c-.552 0-6.355-18.326-6.355-18.326s-5.03-18.714-4.52-18.855h.01Z"/><path fill="#e21c54" d="M805.541 372.53c26.746 0 1.864 60.52-3.9 64.286 0 0-19.75 10.505-41.175 14.663a27.795 27.795 0 0 1-5.34.534c-17.72 0-25.359-18.499-13.515-25.331 2.58-1.49 6.43-2.084 10.935-2.084 17.567 0 45.137 9.076 46.762 9.614-2.477-.829-65.298-22.165-45.919-44.916 2.782-3.26 5.812-4.646 8.96-4.646 18.105 0 40.04 45.966 40.04 45.966s-24.713-57.435 2.722-58.082c.145-.004.285-.004.43-.004Z"/><path fill="#191919" fill-opacity=".14" d="M817.259 383.31c3.053 17.577-11.4 50.748-15.619 53.506 0 0-19.749 10.505-41.174 14.663-1.869.36-3.649.53-5.34.53-7.375 0-12.995-3.204-16.203-7.442 4.702 2.355 10.448 4.514 16.218 4.514 2.365 0 4.73-.36 7.03-1.217 13.567-5.035-2.83-8.781-5.344-9.184 2.814-.01 24.193-2.74 21.913-5.606-1.626-2.032-17.469-6.041-27.669-8.444a40.86 40.86 0 0 1 1.494-.023c17.745 0 45.647 9.245 46.753 9.61-1.354-.445-25.07-8.486-39.222-19.824 8.153 4.449 17.604 9.188 20.985 9.188.567 0 .965-.135 1.157-.426 2.29-3.465-21.548-25.43-20.517-25.43h.019c1.203.235 20.652 17.043 25.336 17.043.496 0 .824-.188.95-.6.665-2.178-3.662-10.682-8.13-18.583 12.26 13.596 22.494 35.03 22.494 35.03s-6.632-15.426-9.208-30.384c3.073 7.82 6.06 14.021 7.826 14.021.201 0 .384-.08.553-.248 4.172-4.15 3.41-28.642 3.41-28.647.004.005 2.219 28.137 5.3 28.137.141 0 .29-.061.436-.192 1.99-1.752 4.697-17.59 6.552-29.991Z"/><path fill="#ff8831" d="M756.527 438.638c.047 0 .15.014.3.042-.15 0-.267-.01-.305-.023-.023-.014-.023-.02.005-.02Z"/><path fill="#ffba31" d="M763.285 388.841c.81 0 1.957.469 3.016 1.302 1.616 1.246 2.459 2.852 1.887 3.578-.182.24-.5.356-.904.356-.805 0-1.953-.463-3.03-1.292-1.597-1.255-2.449-2.857-1.882-3.583.187-.244.51-.36.913-.36Zm9.006 6.65c1.044 0 2.557.726 3.924 1.972 1.92 1.747 2.838 3.873 2.047 4.754-.23.248-.58.37-1.002.37-1.045 0-2.557-.722-3.93-1.977-1.92-1.747-2.838-3.873-2.037-4.748.23-.249.576-.37.998-.37Zm-15.783 32.788c2.398 0 4.309.843 4.351 1.948.052 1.18-2.01 2.224-4.622 2.332-.14.005-.277.01-.417.01-2.403 0-4.323-.834-4.374-1.953-.052-1.176 2.018-2.216 4.622-2.328.15-.005.295-.01.44-.01Zm-11.675 1.718c1.578 0 2.81.516 2.904 1.279.107.908-1.438 1.85-3.456 2.089a8.015 8.015 0 0 1-.932.056c-1.597 0-2.834-.506-2.927-1.274-.113-.913 1.442-1.855 3.46-2.089.328-.042.647-.06.951-.06Zm63.013-53.945c.857 0 1.882 1.32 2.374 3.137.539 1.958.253 3.747-.628 3.99a.788.788 0 0 1-.21.029c-.857 0-1.878-1.33-2.38-3.134-.533-1.962-.252-3.746.633-3.994a.815.815 0 0 1 .21-.028Zm3.128 10.687c1.11 0 2.328 1.826 2.796 4.247.492 2.543-.047 4.796-1.213 5.025-.061.01-.122.02-.187.02-1.11 0-2.323-1.823-2.796-4.253-.487-2.539.056-4.8 1.208-5.02.066-.01.126-.02.192-.02Zm-9.062 49.834c-.089.08-.187.182-.272.243 0 0-.613.323-1.676.857a491.17 491.17 0 0 1-13.942.445h-.323c-1.742 0-10.266.014-18.77.23-4.763.309-9.545.412-13.1.894-1.78.178-3.264.323-4.303.426a22.37 22.37 0 0 1-1.48.094c-.108 0-.169-.005-.174-.019-.004-.047.581-.164 1.616-.337 1.035-.164 2.51-.389 4.285-.66 3.54-.647 8.332-.89 13.109-1.316 9.567-.483 19.135-.614 19.135-.614h.066c.772 0 7.933-.01 15.829-.243Zm-41.367-39.709c.061 0 .492.313 1.195.861.725.595 1.76 1.424 3.006 2.436 2.473 2.046 5.76 4.777 9.048 7.516 6.552 5.484 13.104 10.982 13.104 10.982s6.284 5.808 12.565 11.624c1.4 1.47 2.772 2.913 4.088 4.3-.15.215-.272.407-.412.59a684.951 684.951 0 0 1-4.309-4.23c-6.397-5.652-12.785-11.31-12.785-11.31L773.19 408.37c-3.18-2.842-6.379-5.685-8.772-7.825-1.175-1.077-2.163-1.99-2.856-2.618-.68-.642-1.054-1.03-1.026-1.059 0 0 .005-.004.01-.004Zm44.692-7.507c.094 0 .286 1.582.515 3.962.211 2.393.497 5.568.782 8.743.155 6.393.155 12.795.155 12.795s-.412 6.369-.838 12.738c-.108 1.236-.225 2.463-.328 3.653-.286.52-.553.997-.815 1.456.075-1.634.145-3.386.23-5.17.234-6.36.454-12.72.454-12.72s.117-6.36.22-12.714c-.131-3.185-.267-6.356-.36-8.744-.08-2.384-.104-3.985-.015-4Z"/><path fill="#e21c54" d="M893.369 504.008c1.39 0 2.527-.879 3.367-1.974 1.902-2.478 2.986-6.365 2.723-9.49-.445-5.291-2.004-10.21-3.272-15.32.004.057.006.116.004.176.013 5.73-2.384 11.125-5.04 16.012-1.911 3.52-4.139 9.855 1.822 10.573.134.017.266.023.396.023Z"/><path fill="#ffba31" d="M894.094 500.345c.95 0 1.726-.601 2.304-1.35 1.302-1.694 2.05-4.342 1.872-6.472-.297-3.607-1.356-6.957-2.209-10.434v.12c0 3.903-1.645 7.582-3.466 10.922-1.313 2.4-2.841 6.721 1.228 7.198.091.01.182.016.27.016Z"/><path fill="#191919" fill-opacity=".14" d="M891.424 501.074c.364 0 .832-.525 1.103-1.27.303-.829.247-1.612-.124-1.751a.318.318 0 0 0-.118-.02c-.363 0-.834.524-1.104 1.271-.308.825-.25 1.612.123 1.75a.33.33 0 0 0 .12.02Zm1.644-4.545c.46 0 1.086-.614 1.498-1.51.467-1.028.475-2.032.01-2.248a.45.45 0 0 0-.19-.04c-.457 0-1.083.616-1.492 1.512-.469 1.026-.475 2.032-.016 2.246a.45.45 0 0 0 .19.04Z"/><path fill="#e21c54" d="M879.419 464.403c2.134 0 4.69-1.574 6.39-2.904 4.04-3.165 8.574-6.168 13.764-6.996.052-.01.107-.017.159-.027-3.888-.331-7.69-.864-11.568-.864-.923 0-1.852.03-2.785.102-2.872.218-6.229 1.79-8.198 3.904-.952 1.02-1.615 2.334-1.214 3.754.634 2.238 1.936 3.031 3.452 3.031Z"/><path fill="#ffba31" d="M881.496 462.12c1.453 0 3.198-1.08 4.358-1.991 2.756-2.17 5.847-4.227 9.381-4.798.04-.006.075-.014.108-.02-2.624-.221-5.195-.575-7.817-.575-.648 0-1.3.023-1.957.073-1.953.15-4.243 1.226-5.585 2.677-.646.698-1.102 1.595-.832 2.564.428 1.528 1.313 2.07 2.344 2.07Z"/><path fill="#191919" fill-opacity=".14" d="M879.353 462.686c.31 0 .716-.12 1.119-.346.706-.404 1.133-.991.951-1.314-.078-.14-.254-.206-.485-.206-.31 0-.716.12-1.119.35-.708.4-1.131.987-.952 1.31.077.139.254.206.486.206Zm3.945-2.112c.407 0 .966-.195 1.505-.56.861-.583 1.346-1.376 1.084-1.768-.1-.147-.289-.218-.533-.218-.404 0-.962.195-1.503.562-.856.583-1.344 1.376-1.081 1.768.097.148.287.216.528.216Z"/><path fill="#e21c54" d="M878.252 496.5c4.767 0 7.891-6.784 9.326-11.488 2.568-8.418 5.983-17.098 12.433-23.397.06-.064.132-.127.196-.19-7.127 4.184-14.376 7.82-20.805 13.133-3.8 3.148-6.97 8.666-7.661 13.571-.33 2.37.016 4.86 1.959 6.449 1.656 1.353 3.173 1.922 4.552 1.922Z"/><path fill="#ffba31" d="M879.97 490.897c3.245 0 5.366-4.633 6.336-7.846 1.745-5.757 4.063-11.685 8.444-15.985.05-.045.095-.091.136-.13-4.851 2.854-9.773 5.336-14.152 8.963-2.587 2.147-4.74 5.92-5.203 9.274-.227 1.618.006 3.323 1.332 4.406 1.13.928 2.166 1.318 3.107 1.318Z"/><path fill="#191919" fill-opacity=".14" d="M879.07 493.31c.565 0 1.346-.746 1.864-1.837.599-1.261.62-2.504.052-2.775a.527.527 0 0 0-.242-.054c-.563 0-1.34.745-1.86 1.838-.599 1.262-.621 2.505-.054 2.776a.539.539 0 0 0 .24.052Zm3.4-6.834c.731 0 1.687-1.051 2.255-2.54.638-1.668.543-3.252-.203-3.542a.697.697 0 0 0-.254-.048c-.73 0-1.686 1.048-2.256 2.536-.634 1.666-.541 3.255.206 3.548.08.032.165.046.252.046Z"/><path fill="#88ad25" d="M941.783 2.39c-2.447 6.124-5.236 11.956-6.685 18.444-.862 3.835-.158 8.84 1.804 12.247.945 1.64 2.384 3.028 4.383 3.06.935.015 1.73-.096 2.399-.313 4.755-1.538 3.245-8.38 1.667-12.498-2.492-6.518-4.586-13.615-3.606-20.727.012-.073.022-.145.038-.213Zm-6.696 10.855-.121.178c-4.29 5.757-10.757 9.353-17.107 12.246-4.581 2.086-11.583 6.759-6.088 11.986 1.452 1.376 3.443 1.397 5.27.888.172-.047.348-.101.52-.157 3.632-1.175 7.376-4.124 9.352-7.301 3.515-5.645 5.625-11.76 8.174-17.84Zm-5.342 19.191c.06 6.602-.302 13.053.817 19.61.66 3.872 3.209 8.237 6.321 10.645 1.435 1.108 3.197 1.83 4.975 1.254a4.03 4.03 0 0 0 .234-.084c7.062-2.764 2.353-9.732-1.093-13.401-4.786-5.081-9.418-10.855-11.206-17.805a6.169 6.169 0 0 1-.048-.219Zm-1.199 15.798a3.887 3.887 0 0 1-.108.187c-3.864 6.048-10.061 10.096-16.188 13.438-4.42 2.412-11.07 7.57-5.215 12.391 1.469 1.205 3.334 1.156 5.05.601.09-.029.18-.058.271-.09 3.701-1.319 7.485-4.673 9.313-8.147 3.101-5.883 4.77-12.136 6.877-18.38Zm-3.123 19.204c-.821 6.545-2.041 12.896-1.806 19.542.137 3.929 2.08 8.594 4.844 11.391 1.33 1.35 3.072 2.325 5.012 1.858a9.33 9.33 0 0 0 .677-.192c6.448-2.086 2.857-9.275.022-13.238-4.065-5.673-7.884-12.013-8.728-19.141-.012-.071-.016-.144-.021-.22Zm-4.197 16.277c-.043.055-.093.116-.135.173-4.637 5.476-11.317 8.66-17.834 11.157-4.704 1.798-11.98 6.025-6.819 11.583 1.362 1.463 3.35 1.609 5.203 1.22.452-.097.906-.22 1.363-.367 3.439-1.113 6.946-3.643 8.956-6.47 3.857-5.413 6.343-11.39 9.266-17.296Zm-5.764 19.228c-1.892 6.32-4.152 12.375-5.022 18.971-.518 3.892.627 8.821 2.886 12.035 1.086 1.55 2.64 2.802 4.635 2.661a7.956 7.956 0 0 0 1.88-.343c5.225-1.69 3.038-8.682 1.033-12.782-3.06-6.268-5.78-13.153-5.427-20.325.002-.07.008-.146.015-.217Zm-40.186 15.154c-2.318.75-3.874 2.498-3.307 6.016.321 1.974 1.893 3.198 3.657 3.902 3.438 1.376 8.124 1.44 11.726.276.22-.071.437-.147.648-.23 6.216-2.36 11.596-5.95 17.313-9.238l-.207.067c-6.9 1.98-14.227.922-21.03-.621-2.605-.592-6.188-1.017-8.8-.172Zm-27.979 13.757c-1.603.52-2.817 1.858-3.201 4.49-.283 1.981.85 3.62 2.32 4.817 3.046 2.485 7.878 3.981 11.794 3.746 6.637-.392 12.848-2.206 19.282-3.636h-.215c-7.18-.174-13.85-3.379-19.886-6.886-2.823-1.64-7.127-3.49-10.094-2.53Zm50.888-3.418c-5.084 4.205-10.325 7.986-14.709 12.99-2.593 2.95-4.378 7.684-4.285 11.613.046 1.891.644 3.797 2.378 4.784 1.751.995 3.21 1.157 4.422.766 3.346-1.083 4.794-6.398 5.289-10.062.935-6.915 2.501-14.15 6.77-19.918.044-.055.089-.12.135-.173Zm-33.146 18.488c-6.158 2.37-12.332 4.296-18.076 7.646-3.392 1.975-6.588 5.894-7.75 9.65-.559 1.805-.6 3.802.734 5.29 1.842 2.053 3.66 2.453 5.333 1.912 2.924-.946 5.413-4.767 6.829-7.639 3.083-6.26 6.863-12.623 12.748-16.74.056-.04.116-.084.182-.119Z"/><path fill="#88ad25" d="m962.542-10.71-1.91.765-1.88.837a57.503 57.503 0 0 0-3.653 1.904 57.948 57.948 0 0 0-3.497 2.194 59.608 59.608 0 0 0-3.317 2.46 54.36 54.36 0 0 0-6.034 5.646 58.377 58.377 0 0 0-2.682 3.16 58.338 58.338 0 0 0-2.42 3.365 58.201 58.201 0 0 0-2.157 3.542 63.338 63.338 0 0 0-1.882 3.707l-.828 1.901-.755 1.94-.679 1.961-.6 1.99-.524 2.021-.435 2.033-.356 2.055-.27 2.068-.184 2.073-.094 2.088-.007 2.086.082 1.984c-1.602 13.424-3.539 26.84-7.023 39.87-.855 3.26-1.851 6.481-2.914 9.677a114.52 114.52 0 0 1-3.596 9.426c-1.34 3.088-2.796 6.121-4.447 9.05-1.65 2.923-3.413 5.788-5.39 8.502a83.43 83.43 0 0 1-6.388 7.774 90.525 90.525 0 0 1-7.34 6.888l-1.981 1.557-.492.388c-.074.054-.194.154-.226.172l-.263.177-1.054.707c-1.4.975-2.833 1.833-4.262 2.714-2.91 1.69-5.87 3.306-8.945 4.704-3.059 1.417-6.178 2.715-9.358 3.835-1.252.46-2.51.895-3.777 1.305-1.948.63-3.91 1.204-5.888 1.736-3.263.896-6.58 1.566-9.913 2.17-3.338.555-6.7.984-10.08 1.25 3.385-.158 6.773-.429 10.133-.914 3.358-.51 6.708-1.097 10.009-1.911a113.685 113.685 0 0 0 8.456-2.352c.45-.146.898-.293 1.347-.447 3.23-1.075 6.396-2.334 9.51-3.717 3.123-1.355 6.144-2.941 9.124-4.612 1.472-.873 2.96-1.73 4.357-2.673l1.07-.693.267-.172c.144-.094.185-.137.283-.208l.51-.385 2.044-1.553a78.099 78.099 0 0 0 7.569-6.928 84.736 84.736 0 0 0 6.558-7.887c2.029-2.759 3.842-5.665 5.536-8.633 1.702-2.967 3.195-6.043 4.571-9.167a113.847 113.847 0 0 0 3.705-9.544 129.743 129.743 0 0 0 2.934-9.793c3.447-13.196 5.308-26.7 6.845-40.174l.007-.063-.006-.078-.104-2.02-.024-2.025.057-2.024.146-2.022.225-2.018.317-2.003.387-1.993.476-1.975.552-1.952.632-1.934.707-1.91.783-1.877a58.351 58.351 0 0 1 1.78-3.663 58.248 58.248 0 0 1 2.056-3.512 60.388 60.388 0 0 1 2.323-3.353 58.706 58.706 0 0 1 2.556-3.183 53.55 53.55 0 0 1 5.803-5.745 59.023 59.023 0 0 1 3.218-2.528 59.11 59.11 0 0 1 3.41-2.278l1.767-1.043 1.806-.976 1.841-.908 1.876-.836Z"/><path fill="#ffba31" d="M941.083 6.793c-1.573 3.93-3.358 7.674-4.287 11.836-.553 2.46-.106 5.676 1.159 7.855.608 1.053 1.526 1.948 2.81 1.966.599.01 1.11-.062 1.54-.2 3.052-.988 2.08-5.38 1.073-8.02-1.604-4.182-2.95-8.74-2.32-13.3.011-.045.018-.09.025-.137Z"/><path fill="#e21c54" d="M941.262 3.918c-.032.01-.125.211-.27.562-.147.373-.375.897-.575 1.551-.45 1.294-.868 3.073-1.214 4.868-.336 1.794-.519 3.616-.625 4.986-.095 1.36-.124 2.277-.124 2.277s.004.915.053 2.286c.071 1.37.208 3.191.519 4.997.323 1.802.74 3.587 1.238 4.869.202.651.46 1.164.625 1.53.163.358.27.555.29.549.064-.024-.285-.865-.658-2.163-.407-1.3-.747-3.077-.995-4.859-.25-1.786-.33-3.592-.37-4.945l.007-2.256s.007-.899.066-2.253c.063-1.348.2-3.152.468-4.94.273-1.783.614-3.562.982-4.87.341-1.308.649-2.166.588-2.19l-.005.001Z"/><path fill="#191919" fill-opacity=".14" d="m941.055 22.482-.02.007c-.605.22-.697 1.478-.207 2.806.48 1.31 1.353 2.203 1.955 2.008l.02-.007c.597-.218.69-1.48.201-2.804-.482-1.312-1.347-2.204-1.95-2.01Zm2.178 6.819c-.47.152-.61 1.118-.316 2.168.3 1.065.933 1.82 1.416 1.686l.013-.004c.472-.153.615-1.118.315-2.174-.294-1.061-.936-1.819-1.41-1.682a26.04 26.04 0 0 1-.018.006Z"/><path fill="#ffba31" d="M932.499 16.875c-.031.04-.06.074-.085.113-2.75 3.695-6.9 6-10.976 7.86-2.932 1.337-7.43 4.334-3.904 7.687.931.885 2.21.9 3.386.568a6.33 6.33 0 0 0 .332-.099c2.323-.751 4.73-2.639 6-4.683 2.255-3.62 3.61-7.545 5.247-11.446Z"/><path fill="#e21c54" d="M934.381 14.696c-.074.024-.46.828-1.12 1.97-.65 1.193-1.66 2.698-2.712 4.16a52.094 52.094 0 0 1-3.13 3.855c-.909 1.006-1.536 1.65-1.536 1.65l-1.577 1.608c-.977.937-2.296 2.172-3.725 3.271-1.437 1.094-2.927 2.125-4.12 2.76-1.18.668-2.017 1.021-1.99 1.087.003.01.067-.005.18-.041.1-.033.24-.084.415-.148.375-.147.915-.335 1.521-.653 1.251-.567 2.801-1.549 4.293-2.602 1.492-1.065 2.865-2.27 3.873-3.198 1-.941 1.642-1.593 1.642-1.593s.62-.673 1.515-1.712a48.492 48.492 0 0 0 3.048-3.99c1.013-1.52 1.964-3.083 2.546-4.32.322-.606.524-1.143.68-1.513.148-.368.224-.578.202-.593l-.005.002Z"/><path fill="#191919" fill-opacity=".14" d="M919.364 27.883a5.78 5.78 0 0 0-.646.255c-1.281.61-2.099 1.57-1.826 2.141.228.484 1.137.554 2.17.22a5.71 5.71 0 0 0 .644-.255c1.282-.606 2.096-1.561 1.821-2.146-.228-.483-1.132-.55-2.163-.215Zm-5.612 3.374a4.18 4.18 0 0 0-.769.345c-.962.548-1.54 1.345-1.288 1.782.18.317.749.354 1.418.137.247-.08.508-.194.77-.342.958-.55 1.539-1.348 1.29-1.781-.182-.319-.752-.358-1.421-.141Z"/><path fill="#ffba31" d="M930.77 36.78c.038 4.231-.192 8.372.526 12.579.424 2.486 2.056 5.29 4.054 6.826.92.71 2.046 1.181 3.187.812.052-.017.106-.037.158-.056 4.536-1.771 1.508-6.246-.706-8.597-3.07-3.261-6.038-6.966-7.185-11.422-.013-.049-.023-.098-.035-.141Z"/><path fill="#e21c54" d="M929.847 34.05c-.027.009-.042.235-.04.631.006.396-.007.97.058 1.65.071 1.362.359 3.173.727 4.96.37 1.79.888 3.545 1.31 4.85a59.07 59.07 0 0 0 .753 2.157s.35.844.915 2.093c.585 1.24 1.402 2.88 2.378 4.428.98 1.543 2.047 3.035 2.99 4.03.437.534.868.913 1.159 1.18.284.273.455.41.478.403h.002c.048-.05-.591-.695-1.432-1.758-.864-1.042-1.855-2.554-2.765-4.113-.911-1.556-1.666-3.199-2.218-4.436l-.848-2.084s-.341-.841-.798-2.109c-.447-1.279-1.008-2.998-1.442-4.756-.42-1.748-.782-3.526-.939-4.871-.178-1.344-.228-2.258-.288-2.255Z"/><path fill="#191919" fill-opacity=".14" d="M936.89 51.201a.565.565 0 0 0-.211.121c-.472.434-.083 1.63.878 2.67.83.913 1.823 1.406 2.372 1.228a.608.608 0 0 0 .212-.12c.473-.433.082-1.633-.879-2.674-.83-.91-1.82-1.403-2.371-1.225Zm4.558 5.508a.408.408 0 0 0-.134.071c-.393.304-.16 1.26.52 2.136.614.783 1.377 1.231 1.814 1.09a.408.408 0 0 0 .135-.071c.393-.31.161-1.266-.524-2.137-.608-.782-1.379-1.228-1.811-1.089Z"/><path fill="#ffba31" d="M926.225 52.042c-.027.039-.052.08-.078.119-2.475 3.88-6.45 6.478-10.383 8.622-2.83 1.547-7.102 4.858-3.344 7.948.94.78 2.152.742 3.258.384.052-.017.107-.035.159-.054 2.369-.847 4.794-2.997 5.97-5.228 1.99-3.773 3.063-7.783 4.418-11.791Z"/><path fill="#e21c54" d="M927.947 49.733c-.073.024-.401.858-.976 2.048-.564 1.234-1.465 2.808-2.407 4.346a52.28 52.28 0 0 1-2.85 4.067 65.33 65.33 0 0 1-1.412 1.75l-1.458 1.719c-.907 1.008-2.136 2.335-3.482 3.53-1.35 1.197-2.764 2.328-3.91 3.049-1.128.751-1.937 1.159-1.908 1.224.002.005.025 0 .068-.014.09-.029.265-.102.512-.215.36-.174.89-.398 1.472-.763 1.206-.655 2.68-1.742 4.09-2.901 1.412-1.171 2.699-2.473 3.638-3.467.931-1.01 1.522-1.709 1.522-1.709s.572-.712 1.39-1.815c.806-1.108 1.843-2.618 2.752-4.2.906-1.585 1.74-3.212 2.23-4.49.278-.626.447-1.171.575-1.552.123-.379.182-.597.156-.608l-.002.001Z"/><path fill="#191919" fill-opacity=".14" d="M914.237 63.843c-.307.1-.63.237-.951.418-1.24.699-1.983 1.717-1.668 2.272.232.41.981.458 1.855.175.307-.1.629-.24.95-.417 1.23-.697 1.98-1.709 1.66-2.27-.23-.414-.974-.46-1.846-.178Zm-5.466 3.807c-.305.098-.636.26-.96.479-.918.616-1.434 1.451-1.153 1.868.175.269.642.297 1.2.117.304-.099.637-.262.964-.48.921-.616 1.44-1.451 1.159-1.868-.178-.268-.65-.297-1.21-.116Z"/><path fill="#ffba31" d="M925.859 71.882c-.527 4.196-1.305 8.271-1.156 12.535.09 2.517 1.334 5.516 3.105 7.307.856.863 1.972 1.498 3.217 1.194.153-.038.3-.08.44-.126 4.138-1.338 1.826-5.95.011-8.492-2.608-3.636-5.06-7.704-5.602-12.279-.007-.045-.009-.094-.015-.139Z"/><path fill="#e21c54" d="M925.308 69.053c-.03.01-.068.232-.122.614-.045.395-.138.96-.16 1.646-.113 1.364-.068 3.192.053 5.015.13 1.82.41 3.63.655 4.983.25 1.34.458 2.235.458 2.235s.234.884.629 2.2c.414 1.305 1.005 3.037 1.763 4.7.77 1.658 1.625 3.285 2.425 4.4.366.577.744 1.012.995 1.32.245.306.397.467.42.46.06-.042-.494-.765-1.182-1.93-.722-1.148-1.501-2.78-2.194-4.446-.694-1.668-1.223-3.395-1.604-4.692-.338-1.31-.565-2.182-.565-2.182s-.222-.874-.51-2.2a54.694 54.694 0 0 1-.796-4.898c-.181-1.79-.3-3.6-.276-4.956-.002-1.354.076-2.265.014-2.27l-.003.001Z"/><path fill="#191919" fill-opacity=".14" d="M929.926 87.006a.466.466 0 0 0-.144.074c-.53.365-.303 1.604.508 2.765.737 1.067 1.71 1.693 2.271 1.511a.55.55 0 0 0 .145-.072c.522-.364.293-1.603-.514-2.768-.74-1.058-1.709-1.69-2.266-1.51Zm3.797 6.066a.347.347 0 0 0-.082.037c-.43.247-.327 1.231.231 2.18.526.902 1.269 1.457 1.716 1.312a.48.48 0 0 0 .08-.034c.43-.255.33-1.24-.229-2.191-.525-.898-1.271-1.448-1.716-1.304Z"/><path fill="#ffba31" d="M918.416 87.173c-.031.04-.064.076-.093.113-2.968 3.515-7.255 5.561-11.443 7.164-3.01 1.15-7.683 3.862-4.372 7.428.87.941 2.15 1.035 3.342.781a8.25 8.25 0 0 0 .86-.231c2.208-.714 4.461-2.337 5.755-4.152 2.48-3.475 4.07-7.305 5.951-11.103Z"/><path fill="#e21c54" d="M920.428 85.12c-.08.027-.514.807-1.238 1.897-.72 1.151-1.823 2.592-2.962 3.984a52.553 52.553 0 0 1-5.004 5.202l-1.672 1.51c-1.03.876-2.427 2.023-3.924 3.032-1.496 1.005-3.051 1.936-4.281 2.5-1.218.592-2.075.894-2.053.961.008.02.224-.04.607-.152.152-.05.333-.105.533-.17a9.846 9.846 0 0 0 1.025-.386c1.284-.49 2.892-1.372 4.442-2.334 1.557-.97 3.002-2.088 4.067-2.949 1.056-.88 1.737-1.488 1.737-1.488s.664-.632 1.621-1.615c.945-.992 2.175-2.35 3.289-3.795 1.102-1.451 2.15-2.952 2.807-4.155.358-.582.595-1.103.774-1.464.17-.359.26-.567.24-.58l-.008.003Z"/><path fill="#191919" fill-opacity=".14" d="M904.302 97.439a5.895 5.895 0 0 0-.343.124c-1.317.528-2.19 1.434-1.954 2.028.218.54 1.282.64 2.459.259.115-.038.231-.078.35-.128 1.316-.52 2.19-1.425 1.954-2.027-.216-.54-1.28-.64-2.466-.256Zm-5.716 2.993c-.185.06-.375.138-.565.233-.99.488-1.618 1.249-1.396 1.696.178.364.856.412 1.635.16a4.5 4.5 0 0 0 .566-.23c.991-.483 1.614-1.244 1.396-1.695-.178-.362-.86-.415-1.636-.164Z"/><path fill="#ffba31" d="M915.157 107.398c-1.217 4.049-2.66 7.939-3.22 12.17-.329 2.495.4 5.661 1.85 7.72.701.992 1.69 1.8 2.976 1.704a5.12 5.12 0 0 0 1.214-.221c3.344-1.082 1.94-5.569.657-8.194-1.967-4.026-3.713-8.44-3.488-13.04l.01-.14Z"/><path fill="#e21c54" d="M915.081 104.512c-.03.01-.108.22-.223.588-.114.382-.292.925-.43 1.596-.34 1.329-.597 3.136-.779 4.952a48.142 48.142 0 0 0-.182 5.025c.023 1.366.082 2.282.082 2.282s.083.912.256 2.274c.192 1.353.487 3.16.96 4.93.48 1.763 1.055 3.5 1.661 4.735.26.633.567 1.122.76 1.47.194.343.318.532.338.525h.003c.06-.034-.362-.838-.851-2.103-.516-1.254-1.016-2.993-1.423-4.746-.409-1.76-.644-3.551-.805-4.895l-.193-2.241s-.076-.9-.138-2.254c-.05-1.349-.08-3.16.03-4.964.115-1.8.3-3.6.55-4.934.223-1.338.449-2.22.387-2.238-.002 0-.003-.002-.003-.002Z"/><path fill="#191919" fill-opacity=".14" d="M916.565 123.006c-.02.007-.043.014-.065.024-.578.275-.564 1.537.042 2.814.584 1.235 1.5 2.034 2.081 1.846.022-.008.045-.015.063-.026.58-.273.56-1.533-.043-2.811-.586-1.232-1.497-2.035-2.078-1.847Zm2.766 6.607-.02.006c-.471.174-.527 1.16-.138 2.194.39 1.018 1.072 1.708 1.541 1.556l.02-.006c.468-.182.53-1.165.137-2.196-.39-1.016-1.078-1.704-1.54-1.554Z"/><path fill="#ffba31" d="M881.778 119.674c-1.486.48-2.483 1.603-2.12 3.861.203 1.267 1.214 2.055 2.347 2.505 2.202.879 5.206.922 7.517.175a8.11 8.11 0 0 0 .416-.146c3.993-1.515 7.445-3.815 11.111-5.928a2.1 2.1 0 0 1-.135.041c-4.422 1.27-9.123.59-13.493-.4-1.669-.375-3.967-.65-5.643-.108Z"/><path fill="#e21c54" d="M875.703 123.673a.02.02 0 0 0-.011.009c-.006.024.208.098.587.212.385.108.932.29 1.608.399 1.34.312 3.164.469 4.99.53 1.831.055 3.657-.066 5.02-.193 1.368-.139 2.271-.271 2.271-.271s.9-.159 2.244-.447a50.607 50.607 0 0 0 4.446-1.199l.397-.128c1.723-.593 3.427-1.26 4.64-1.895.624-.288 1.109-.588 1.456-.786.344-.208.533-.33.52-.35-.002-.01-.029-.007-.074.007-.23.074-.967.44-2.013.88-.984.437-2.267.897-3.616 1.333-.352.114-.708.226-1.061.335-1.734.517-3.5.908-4.827 1.164-1.328.253-2.224.383-2.224.383s-.89.128-2.228.326c-1.346.154-3.141.335-4.943.341-1.806.005-3.619-.082-4.953-.299-1.27-.174-2.122-.386-2.23-.351Z"/><path fill="#191919" fill-opacity=".14" d="M875.128 120.123c-.362.117-.598.307-.63.549-.069.497.768 1.012 1.867 1.159.565.076 1.09.036 1.477-.09.358-.115.594-.304.624-.543.069-.497-.766-1.021-1.863-1.166-.568-.073-1.093-.032-1.475.091Zm6.067.648c-.375.12-.628.321-.686.583-.129.626.883 1.375 2.264 1.67.8.172 1.551.155 2.066-.011.377-.122.628-.325.683-.591.135-.623-.874-1.373-2.259-1.67-.805-.17-1.554-.148-2.068.019Z"/><path fill="#ffba31" d="M853.657 135.21c-1.028.333-1.807 1.191-2.05 2.878-.185 1.271.544 2.324 1.49 3.097 1.95 1.586 5.046 2.552 7.565 2.4 4.258-.253 8.24-1.414 12.373-2.337h-.144c-4.602-.106-8.884-2.161-12.754-4.413-1.812-1.055-4.574-2.242-6.48-1.625Z"/><path fill="#e21c54" d="m847.782 137.044-.005.002c-.01.022.17.152.498.38.338.218.802.554 1.412.861 1.189.697 2.879 1.395 4.605 1.998 1.731.6 3.507 1.025 4.851 1.316 1.346.27 2.242.417 2.242.417s.908.12 2.277.248c1.364.116 3.191.22 5.02.183 1.824-.055 3.646-.178 4.993-.423.677-.084 1.233-.231 1.626-.314a7.55 7.55 0 0 0 .493-.13c.073-.023.109-.04.105-.05-.014-.061-.904.097-2.255.225-1.346.154-3.158.2-4.965.191a53.162 53.162 0 0 1-4.953-.329c-1.34-.16-2.23-.302-2.23-.302l-2.229-.355c-1.326-.255-3.094-.62-4.819-1.15-1.724-.537-3.424-1.163-4.638-1.769-1.188-.559-1.95-1.024-2.028-.999Z"/><path fill="#191919" fill-opacity=".14" d="M847.887 133.54c-.168.054-.29.146-.348.272-.217.457.433 1.201 1.434 1.669.715.334 1.423.433 1.845.297.167-.054.29-.144.35-.273.212-.453-.428-1.203-1.43-1.667-.721-.335-1.43-.435-1.851-.298Zm5.574 2.434a.663.663 0 0 0-.39.289c-.315.56.432 1.582 1.657 2.272.93.524 1.868.72 2.41.545a.671.671 0 0 0 .393-.296c.316-.557-.424-1.576-1.655-2.267-.931-.526-1.876-.717-2.415-.543Z"/><path fill="#ffba31" d="M895.457 131.967c-3.261 2.694-6.617 5.128-9.436 8.338-1.66 1.894-2.808 4.928-2.745 7.445.03 1.218.409 2.44 1.524 3.072 1.125.64 2.062.745 2.838.494 2.148-.695 3.077-4.107 3.394-6.455.6-4.437 1.601-9.078 4.34-12.779l.085-.115Z"/><path fill="#e21c54" d="M896.98 129.53c-.052.016-.225.15-.497.364-.3.257-.757.61-1.242 1.09-1.017.916-2.238 2.276-3.397 3.688-1.154 1.414-2.192 2.922-2.942 4.075a68.691 68.691 0 0 0-1.2 1.944s-.43.801-1.048 2.03c-.59 1.237-1.349 2.9-1.939 4.633-.578 1.735-1.067 3.498-1.25 4.862-.132.672-.153 1.247-.184 1.646-.027.395-.03.625-.01.627l.005-.002c.07-.022.168-.923.458-2.217.265-1.332.819-3.056 1.457-4.742.635-1.687 1.43-3.312 2.045-4.518.65-1.181 1.085-1.976 1.085-1.976s.435-.786 1.135-1.948a52.765 52.765 0 0 1 2.78-4.11c1.094-1.43 2.249-2.833 3.197-3.799.93-.987 1.604-1.6 1.564-1.647a.02.02 0 0 0-.017 0Z"/><path fill="#191919" fill-opacity=".14" d="M887.629 145.744c-.55.178-1.085 1.131-1.26 2.341-.213 1.396.141 2.608.77 2.703a.6.6 0 0 0 .26-.026c.549-.178 1.087-1.133 1.267-2.341.205-1.396-.14-2.606-.772-2.702a.572.572 0 0 0-.265.025Zm-1.302 7.028c-.427.138-.88.834-1.084 1.73-.246 1.084-.05 2.044.436 2.16.08.018.162.014.247-.014.43-.139.879-.839 1.086-1.742.246-1.072.044-2.039-.436-2.148a.467.467 0 0 0-.249.014Z"/><path fill="#ffba31" d="M861.331 149.406c-3.947 1.52-7.907 2.76-11.594 4.907-2.18 1.265-4.23 3.782-4.974 6.189-.358 1.161-.388 2.442.47 3.4 1.18 1.318 2.348 1.575 3.421 1.228 1.878-.608 3.477-3.061 4.384-4.905 1.975-4.016 4.4-8.102 8.176-10.74.038-.025.082-.053.117-.079Z"/><path fill="#e21c54" d="M863.353 147.63a6.87 6.87 0 0 0-.39.14c-.373.145-.915.329-1.526.631-1.257.55-2.844 1.453-4.393 2.42a46.484 46.484 0 0 0-4.083 2.932c-1.062.854-1.755 1.459-1.755 1.459s-.665.62-1.64 1.592c-.955.985-2.2 2.32-3.312 3.78-1.1 1.46-2.125 2.98-2.723 4.211-.346.595-.546 1.134-.7 1.502-.158.365-.226.583-.208.588.004.002.006 0 .009 0 .08-.026.457-.838 1.13-1.955.679-1.177 1.747-2.634 2.889-4.032 1.136-1.4 2.411-2.687 3.372-3.632.995-.915 1.657-1.529 1.657-1.529s.663-.61 1.698-1.487a52 52 0 0 1 3.94-3.016c1.495-1.007 3.033-1.968 4.237-2.587 1.197-.64 2.037-1.003 2.009-1.064-.007-.011-.081.005-.211.047Z"/><path fill="#191919" fill-opacity=".14" d="M849.258 160.027c-.542.175-1.197.845-1.667 1.772-.644 1.26-.697 2.52-.123 2.81.15.078.33.08.524.018.542-.176 1.199-.849 1.669-1.776.639-1.258.7-2.519.128-2.809-.154-.076-.337-.078-.531-.015Zm-3.434 6.245c-.42.135-.939.604-1.339 1.26-.578.943-.696 1.925-.27 2.184.128.08.294.082.479.022.422-.137.94-.602 1.342-1.259.572-.941.69-1.923.265-2.182-.128-.08-.293-.085-.477-.025Z"/><path fill="#e21c54" d="M888.411 9.375c2.187 0 3.977 1.37 5.3 3.08 2.992 3.866 4.698 9.932 4.285 14.809-.702 8.256-3.155 15.93-5.15 23.907.007-.091.01-.182.007-.276.02-8.942-3.753-17.36-7.931-24.986-3.009-5.494-6.514-15.378 2.866-16.499a5.09 5.09 0 0 1 .623-.035Z"/><path fill="#ffba31" d="M889.552 15.09c1.494 0 2.716.939 3.626 2.108 2.05 2.642 3.226 6.775 2.947 10.098-.468 5.628-2.135 10.856-3.477 16.282v-.189c0-6.089-2.59-11.83-5.455-17.041-2.066-3.746-4.47-10.488 1.933-11.232a3.79 3.79 0 0 1 .426-.026Z"/><path fill="#191919" fill-opacity=".14" d="M885.35 13.952c.573 0 1.31.82 1.736 1.982.477 1.294.39 2.515-.195 2.733a.505.505 0 0 1-.185.032c-.572 0-1.313-.818-1.739-1.985-.484-1.286-.393-2.515.195-2.729a.522.522 0 0 1 .189-.033Zm2.587 7.093c.725 0 1.71.959 2.359 2.356.734 1.605.747 3.17.016 3.509a.714.714 0 0 1-.299.062c-.721 0-1.706-.962-2.349-2.36-.737-1.601-.747-3.17-.026-3.505a.714.714 0 0 1 .3-.062Z"/><path fill="#e21c54" d="M866.457 71.175c3.36 0 7.382 2.457 10.056 4.533 6.359 4.938 13.494 9.624 21.662 10.917.081.016.169.026.25.042-6.118.517-12.103 1.348-18.204 1.348a58.41 58.41 0 0 1-4.383-.159c-4.52-.341-9.803-2.794-12.903-6.092-1.497-1.592-2.54-3.642-1.91-5.858.997-3.493 3.048-4.73 5.432-4.73Z"/><path fill="#ffba31" d="M869.726 74.74c2.287 0 5.033 1.683 6.859 3.106 4.337 3.385 9.201 6.595 14.764 7.486.061.01.117.022.169.032-4.13.344-8.175.897-12.301.897a40.89 40.89 0 0 1-3.08-.114c-3.074-.234-6.677-1.914-8.79-4.178-1.016-1.089-1.734-2.489-1.309-4 .673-2.385 2.067-3.23 3.688-3.23Z"/><path fill="#191919" fill-opacity=".14" d="M866.353 73.856c.488 0 1.128.185 1.761.54 1.112.63 1.784 1.546 1.498 2.05-.123.217-.4.321-.763.321-.488 0-1.128-.188-1.761-.546-1.115-.624-1.78-1.54-1.498-2.044.12-.217.4-.321.763-.321Zm6.21 3.294c.64 0 1.52.306 2.368.874 1.355.91 2.118 2.148 1.706 2.759-.156.23-.455.341-.838.341-.637 0-1.515-.305-2.366-.877-1.348-.91-2.115-2.148-1.702-2.759.152-.23.451-.338.831-.338Z"/><path fill="#e21c54" d="M864.622 21.09c7.502 0 12.418 10.586 14.676 17.926 4.042 13.136 9.416 26.681 19.566 36.51.094.1.208.198.308.295-11.215-6.527-22.623-12.2-32.74-20.491-5.982-4.913-10.97-13.523-12.058-21.178-.52-3.697.026-7.583 3.083-10.062 2.606-2.112 4.994-3 7.165-3Z"/><path fill="#ffba31" d="M867.325 29.834c5.107 0 8.444 7.23 9.971 12.243 2.746 8.983 6.395 18.233 13.29 24.943.077.071.149.143.213.204-7.635-4.454-15.38-8.327-22.272-13.987-4.071-3.35-7.46-9.237-8.188-14.471-.357-2.525.01-5.186 2.096-6.875 1.777-1.45 3.408-2.057 4.89-2.057Z"/><path fill="#191919" fill-opacity=".14" d="M865.908 26.068c.89 0 2.119 1.163 2.934 2.866.942 1.969.975 3.909.081 4.331a.836.836 0 0 1-.38.084c-.887 0-2.108-1.163-2.927-2.868-.942-1.97-.978-3.91-.085-4.331a.853.853 0 0 1 .377-.082Zm5.352 10.664c1.15 0 2.654 1.64 3.548 3.964 1.004 2.602.854 5.075-.319 5.526a1.08 1.08 0 0 1-.4.075c-1.15 0-2.654-1.634-3.55-3.957-.998-2.6-.852-5.079.324-5.537.127-.048.26-.071.397-.071Z"/><path fill="#ffba31" d="M885.191 176.725a6.634 6.634 0 0 1 4.419-6.248c3.453-1.217 7.241.588 8.455 4.039.259.731.382 1.478.382 2.212a6.625 6.625 0 0 1-4.424 6.243 6.621 6.621 0 0 1-8.45-4.037 6.614 6.614 0 0 1-.382-2.209Z"/><path fill="#191919" fill-opacity=".14" d="M885.478 178.603c1.515 1.254 3.622 1.719 5.61 1.015a5.804 5.804 0 0 0 3.865-5.467 5.768 5.768 0 0 0-1.467-3.84 6.612 6.612 0 0 1 4.579 4.205 6.628 6.628 0 0 1-4.042 8.455 6.625 6.625 0 0 1-8.45-4.037c-.037-.113-.06-.218-.095-.331Z"/><path fill="#191919" fill-opacity=".14" d="M886.383 175.23c0-.898.56-1.74 1.46-2.059a2.177 2.177 0 0 1 2.9 2.061c0 .9-.555 1.74-1.452 2.056a2.182 2.182 0 0 1-2.908-2.058Zm5.25-1.772c0-.418.262-.81.677-.955a1.014 1.014 0 0 1 1.296.613 1.022 1.022 0 0 1-.623 1.297 1.012 1.012 0 0 1-1.35-.955Z"/><path fill="#88ad25" d="M864.94 172.025a4.847 4.847 0 0 1 3.233-4.564 4.833 4.833 0 0 1 6.17 2.95c.188.533.279 1.079.279 1.614a4.84 4.84 0 0 1-9.682 0Z"/><path fill="#191919" fill-opacity=".14" d="M865.151 173.397a4.204 4.204 0 0 0 4.095.74 4.236 4.236 0 0 0 2.584-5.402 4.223 4.223 0 0 0-.832-1.398 4.85 4.85 0 0 1 3.624 4.688c0 1.99-1.24 3.855-3.227 4.56a4.838 4.838 0 0 1-6.176-2.949c-.027-.08-.045-.16-.068-.239Z"/><path fill="#191919" fill-opacity=".14" d="M865.813 170.932a1.592 1.592 0 1 1 3.184-.003c0 .659-.407 1.274-1.058 1.508a1.596 1.596 0 0 1-2.126-1.505Zm3.835-1.297a.741.741 0 0 1 1.438-.246.75.75 0 0 1-.453.944.735.735 0 0 1-.942-.454.693.693 0 0 1-.043-.244Z"/><path fill="#e21c54" d="M902.205 159.498c0-.395.048-.795.148-1.194a4.915 4.915 0 1 1 9.541 2.375 4.917 4.917 0 0 1-9.689-1.181Z"/><path fill="#191919" fill-opacity=".14" d="M902.502 161.174c.44.324.937.566 1.493.704a4.298 4.298 0 0 0 5.34-4.165 4.311 4.311 0 0 0-1.274-3.043c.086.02.166.03.25.05a4.92 4.92 0 0 1 3.583 5.959 4.917 4.917 0 0 1-9.392.495Z"/></g></svg>